<svg xmlns="http://www.w3.org/2000/svg" width="322.782" height="424" viewBox="0 0 322.782 424"><title>ASL letter</title><path d="M65.002 408.676c-2.398-3.049-2.683-5.22-2.755-20.974-.043-9.665-.77-27.18-1.613-38.922-1.494-20.805-1.635-21.48-5.488-26.46-8.848-11.43-23.795-38.682-23.795-43.384 0-1.026-.626-2.49-1.391-3.256s-1.903-3.35-2.529-5.744-2.095-7.546-3.265-11.45c-4.414-14.728-7.57-31.756-10.887-58.727-.698-5.68-1.273-20.957-1.279-33.951-.009-21.022.283-24.294 2.642-29.686 3.439-7.858 4.198-9.58 8.656-19.612 2.05-4.615 4.846-11.2 6.213-14.637 1.367-3.435 5.099-9.054 8.293-12.485 7.102-7.628 16.837-11.075 27.239-9.644 5.715.786 7.03.484 11.547-2.646 2.804-1.943 5.097-4.059 5.097-4.702 0-2.566 10.473-15.138 14.877-17.86 6.459-3.992 18.636-3.148 25.91 1.794 2.742 1.864 5.413 3.39 5.934 3.39s4.96-4.053 9.863-9.005c4.904-4.953 10.576-9.636 12.605-10.408 2.229-.847 7.531-1.09 13.393-.613 18.132 1.477 19.16 1.801 25.36 8l5.785 5.786 6.714-4.624 6.714-4.625 16.123-.033 16.122-.034 7.744-13.068c4.26-7.187 9.371-14.277 11.36-15.756 4.344-3.23 19.314-4.426 27.568-2.203 8.062 2.17 8.802 5.145 6.41 25.77l-1.963 16.915 3.92 9.37a2486 2486 0 0 0 5.577 13.242c7.449 17.402 10.307 29.41 8.6 36.14l-2.544 10.039c-.68 2.682-1.774 5.586-2.43 6.453-2.104 2.777-7.791 30.812-9.447 46.561-1.056 10.05-1.674 13.066-5.991 29.23-3.37 12.616-11.357 29.135-22.469 46.465-.683 1.065-1.583 2.953-2 4.195s-1.232 2.259-1.811 2.259c-.58 0-1.451 1.253-1.938 2.786-.853 2.687-11.935 21.712-13.414 23.028-.4.355-2.466 3.212-4.594 6.35s-6.915 8.928-10.64 12.87c-4.432 4.69-7.063 8.72-7.616 11.67-.465 2.478-.442 20.913.05 40.966l.895 36.46-5.192 3.277c-2.855 1.803-5.406 3.278-5.668 3.278-.66 0-2.574-37.287-2.892-56.327-.292-17.457-1.983-24.632-6.167-26.163-1.528-.558-9.469-2.314-17.647-3.901-11.515-2.235-17.192-4.12-25.168-8.356-10.029-5.325-10.46-5.755-16.439-16.346-14.25-25.246-17.578-37.215-15.851-57.02 1.06-12.162-1.19-13.665-5.152-3.44-1.399 3.608-3.27 7.164-4.157 7.901s-1.613 2.651-1.613 4.252c0 3.078-2.878 6.372-4.313 4.936-1.423-1.422-.97-4.868 1.765-13.43 1.438-4.502 2.329-8.93 1.98-9.842-.35-.91-2.863-2.547-5.584-3.636-2.824-1.13-8.952-6.118-14.28-11.623l-9.334-9.643h-8.08c-7.84 0-8.234-.164-13.222-5.486-5.707-6.088-10.885-13.17-10.885-14.888 0-.615-1.366-2.4-3.035-3.97-2.682-2.519-4.603-2.883-16.51-3.128-11.018-.227-14.107.137-16.95 1.997-4.564 2.988-5.51 7.333-3.08 14.129 1.09 3.046 2.91 10.765 4.046 17.154s2.613 13.94 3.283 16.779 1.81 8.357 2.536 12.261c2.382 12.832 3.895 19.813 5.16 23.81.686 2.167 2.515 8.296 4.064 13.62 3.137 10.782 2.922 10.296 9.689 21.942 5.443 9.367 4.754 8.495 15.176 19.21 9.112 9.366 16.79 12.362 31.76 12.392 12.193.025 26.791-4.179 35.049-10.092 3.943-2.824 6.253-1.995 6.253 2.244 0 6.082-13.709 13.673-32.93 18.234-7.8 1.85-16.03 4.008-18.29 4.795-3.146 1.094-4.57 1.047-6.074-.2-4.186-3.475-4.659-.328-4.659 31.008 0 39.94-1.856 48.048-8.94 39.042m144.209-109.598c11.936-2.76 21.748-10.784 35.068-28.679 5.67-7.617 10.76-14.43 11.308-15.14 1.064-1.376 14.153-27.93 15.906-32.268 3.595-8.897 12.832-40.693 12.832-44.171 0-1.453.824-5.468 1.83-8.921 1.007-3.454 2.809-10.926 4.004-16.605 1.196-5.679 2.742-12.649 3.435-15.488a322 322 0 0 0 2.306-10.326c.574-2.839 1.45-6.939 1.946-9.11.84-3.684.546-4.109-4.402-6.34-6.66-3.003-8.02-7.079-4.122-12.35 1.511-2.045 2.747-4.139 2.747-4.654s1.115-2.136 2.477-3.602c2.305-2.479 2.344-3.024.558-7.827-1.056-2.84-2.478-7.402-3.16-10.138-1.92-7.71-4.814-12.726-9.912-17.183l-4.678-4.09.34-10.871c.188-5.98 1.124-13.142 2.081-15.917 2.306-6.684.144-8.113-7.727-5.107-5.527 2.11-17.401 12.609-17.416 15.398-.004.794-.863 3.082-1.908 5.085-3.236 6.205-4.667 23.05-3.13 36.837.759 6.806 1.736 12.95 2.17 13.654.435.704 1.115 3.271 1.51 5.705.644 3.956 1.354 4.611 6.685 6.166 6.59 1.921 10.43 5.149 7.41 6.227-.967.345-5.191.787-9.387.983l-7.629.356-3.135 8.389c-4.61 12.338-5.481 18.002-4.181 27.199.637 4.509 1.04 8.25.895 8.315-3.87 1.708-7.821 5.584-9.546 9.363-1.209 2.648-2.383 5.134-2.61 5.525-.43.741 1.791 3.356 16.166 19.028 12.67 13.815 17.921 24.79 11.86 24.79-1.434 0-2.581-.86-2.581-1.936 0-1.065-.581-1.936-1.29-1.936-1.869 0-1.588 2.882.734 7.537 2.01 4.027 1.453 9.949-.804 8.554-.646-.4-5.331-7.678-10.412-16.174-11.632-19.453-18.407-27.442-22.254-26.243-1.517.473-3.174 1.508-3.68 2.3-.587.914-6.065 1.44-15.028 1.44-12.057 0-14.499.356-16.824 2.458-1.496 1.352-2.72 3.131-2.72 3.953 0 1.695-5.502 6.985-10.326 9.93-1.845 1.127-8.156 2.343-14.74 2.841-6.333.48-12.351 1.567-13.374 2.416-3.463 2.873-8.124 15.199-8.903 23.54-1.08 11.561 1.374 22.415 8.322 36.82 10.17 21.081 14.726 25.878 28.695 30.21 7.908 2.453 24.122 2.48 34.594.058m-79.492-91.834c3.188-2.872 6.618-12.654 5.708-16.277-.427-1.703-2.79-5.294-5.25-7.98-4.05-4.422-4.926-4.81-9.268-4.106-6.485 1.053-7.272 2.129-8.37 11.447-1.015 8.604.257 12.79 5.468 18 2.915 2.916 7.773 2.466 11.712-1.084m33.18-16.407c4.023-2.228 7.134-12.869 4.421-15.12-.956-.793-1.738-2.462-1.738-3.708 0-3.923-3.345-5.535-9.554-4.604-6.566.985-7.06 1.803-8.152 13.49-.663 7.107-.435 8.52 1.615 10.02 3.019 2.207 9.35 2.17 13.409-.078zm14.806-15.601c2.612-44.223 3.66-57.359 4.946-61.953.795-2.84 1.87-8.067 2.392-11.616.52-3.55 1.538-8.777 2.26-11.616.723-2.84 2.01-9.258 2.862-14.262 1.422-8.365 1.336-9.51-1.074-14.198-1.442-2.804-4.457-6.84-6.7-8.97-3.964-3.764-4.433-3.872-16.779-3.872-12.237 0-12.878.143-17.568 3.94-2.677 2.168-6.07 6.234-7.54 9.035-2.582 4.922-2.661 6.726-2.358 53.495.172 26.62.65 51.45 1.06 55.177.792 7.178 3.144 9.405 3.144 2.976 0-2.12 1.33-5.347 3.008-7.297 2.42-2.815 4.4-3.613 10.14-4.089 3.925-.325 8.32.044 9.773.822 3.83 2.05 7.978 11.524 8.59 19.617.668 8.825.548 8.39 1.919 6.944.64-.674 1.506-7.034 1.925-14.133m-24.796-32.378c-2.791-1.955-3.71-5.003-1.847-6.132.532-.323 6.05-1.007 12.261-1.52 10.75-.887 11.294-.808 11.294 1.654 0 5.79-15.78 10.15-21.708 5.998m-60.404 41.346c.915-2.384-.252-8.21-2.119-10.581-2.087-2.651-6.005-1.898-6.712 1.29-1.04 4.695-.031 11.4 1.897 12.591 2.152 1.33 5.83-.42 6.934-3.3m14.89-3.148c1.743-8.858 2.761-9.677 13.303-10.71 4.063-.399 7.984-1.093 8.712-1.543 1.376-.85 1.895-21.606.573-22.928-.413-.413-2.791.102-5.285 1.144-2.493 1.042-6.947 1.718-9.897 1.503-4.725-.344-5.41-.798-5.76-3.815-.334-2.881.281-3.644 3.872-4.803 2.348-.757 6.657-1.746 9.576-2.197 9.18-1.417 8.816.076 7.1-29.14-2.346-39.953-2.138-38.714-7.056-42.084-3.393-2.324-6.01-2.892-13.346-2.892-8.888 0-9.256.132-14.118 5.021-2.746 2.761-6.938 8.73-9.316 13.264l-4.325 8.243 2.778 5.129c1.528 2.82 3.27 6 3.87 7.064 2.686 4.76 7.043 18.546 10.402 32.913 1.33 5.69 2.468 16.613 4.737 45.496.35 4.437 1.09 8.067 1.647 8.067s1.697-3.48 2.534-7.732M76.8 177.74c.708-8.542 3.665-12.168 10.918-13.394 4.825-.815 4.933-.954 4.629-5.944-.171-2.81-.989-6.756-1.816-8.77-1.264-3.075-2.041-3.533-4.852-2.863-13.13 3.13-19.586 1.866-16.826-3.291 1.008-1.883 2.745-2.446 7.543-2.446 4.352 0 7.26-.808 9.635-2.675 3.876-3.05 4.202-5.439 1.457-10.702-1.06-2.034-1.928-4.625-1.928-5.76 0-2.751-10.934-24.541-14.36-28.619-2.459-2.925-3.617-3.221-12.39-3.172l-9.677.055-5.171 5.544-5.172 5.544.556 11.18c.305 6.15 1.245 12.342 2.088 13.762.842 1.42 2.096 4.033 2.786 5.808s3.004 6.13 5.142 9.68c2.137 3.55 4.452 7.732 5.143 9.295.692 1.562 2.657 5.058 4.367 7.767 4.575 7.248 11.2 19.89 11.2 21.375 0 1.288 3.797 4.682 5.325 4.76.444.023 1.076-3.188 1.403-7.134m124.964-3.818c7.123-3.683 8.69-10.156 4.897-20.213-1.694-4.492-3.91-5.232-9.129-3.051-7.984 3.336-11.15 9.46-8.712 16.849 1.357 4.113 5.473 8.373 8.09 8.373.587 0 2.771-.88 4.854-1.958m24.122-11.896c4.858-7.945 7.776-17.083 9.463-29.636.762-5.668 2.367-11.484 3.67-13.3 6.478-9.031 8.527-20.591 5.4-30.461-3.967-12.52-5.486-18.876-6.294-26.33l-.91-8.389-7.744-.645c-4.26-.355-9.64-.436-11.956-.18-5.197.575-11.518 6.264-12.53 11.277-.415 2.06-1.594 6.65-2.62 10.2-1.992 6.893-4.411 15.894-7.632 28.394-2.484 9.64-4.628 24.48-4.628 32.034 0 7.507 2.014 9.12 10.012 8.02 5.08-.698 6.602-.426 8.326 1.488 3.081 3.421 7.476 15.32 7.476 20.244 0 2.34.367 4.621.815 5.07 1.578 1.578 5.432-1.7 9.152-7.786m-22.229-29.674c-5.175-.485-12.317-4.601-10.733-6.186 1.178-1.178 26.867.766 26.867 2.033 0 .568-.913 1.945-2.028 3.06-1.979 1.979-3.45 2.093-14.106 1.093m-158.32 28.55c2.368-.482 4.608-1.667 4.979-2.633.906-2.36-4.244-6.359-10.576-8.21-2.84-.83-6.983-2.385-9.209-3.455-7.284-3.504-8.81-2.206-9.247 7.867l-.386 8.895 10.067-.793c5.536-.436 12.003-1.187 14.372-1.67m-6.97-24.899c.393-.636-.15-2.814-1.207-4.84s-1.925-4.956-1.93-6.511c-.01-4.066-2.09-4.77-5.123-1.737-4.537 4.537-2.702 10.929 3.825 13.329 2.905 1.068 3.65 1.028 4.434-.24m251.581-87.578c2.011-3.927 4.875-22.895 3.858-25.546-1.428-3.721-7.29-3.508-8.758.318-.422 1.1-1.136 8.025-1.586 15.389-.799 13.05-.75 13.388 1.925 13.388 1.693 0 3.44-1.36 4.561-3.55" style="fill:#000"/></svg>