<svg xmlns="http://www.w3.org/2000/svg" width="197.507" height="447.901" viewBox="0 0 197.507 447.901"><path d="M153.567 433.338c-3.826-2.228-4.426-3.132-6.333-9.537-1.16-3.892-2.118-9.377-2.13-12.189-.023-5.597 5.442-38.518 7.134-42.968 2.069-5.441 1.794-5.643-7.695-5.652-4.813-.005-12.8-.456-17.75-1.004-20.311-2.247-38.015-16.442-44.692-35.835-3.415-9.917-3.187-24.39.581-36.956 3.952-13.177 9.108-23.803 14.683-30.261 2.642-3.06 4.945-6.026 5.116-6.59.756-2.482-6.226-6.42-15.596-8.798-5.28-1.339-12.185-3.816-15.346-5.505-6.88-3.677-16.415-11.648-21.054-17.603-5.15-6.609-5.18-10.065-.199-22.805 2.313-5.914 5.173-11.867 6.356-13.228 3.266-3.758 8.251-4.123 14.741-1.081 5.419 2.54 21.013 7.119 34.716 10.194 14.547 3.264 16.56 4.68 31.795 22.345 13.553 15.715 13.877 16.005 20.833 18.673 3.886 1.49 8.978 3.798 11.316 5.128 4.193 2.386 4.25 2.39 4.25.342 0-1.142-2.019-7.18-4.486-13.418-4.639-11.73-6.522-18.703-8.544-31.64-.962-6.155-.882-10.868.434-25.5 3.985-44.322 3.874-59.395-.556-75.45-2.479-8.984-2.459-8.42-.829-23.663l1.3-12.163-2.774-5.672c-2.963-6.056-7.173-9.492-11.64-9.498-3.766-.006-5.91 2.991-6.895 9.643-.478 3.219-1.61 9.35-2.517 13.626-1.394 6.573-1.456 8.58-.401 13 1.152 4.828 3.027 38.305 2.924 52.227-.04 5.346-5.227 44.507-6.643 50.149-.953 3.798-11.385 6.186-11.361 2.601.006-.963 1.621-8.05 3.589-15.75 4.367-17.09 5.538-33.947 3.085-44.436-1.323-5.66-1.333-7.89-.083-18.5 1.56-13.25 1.137-19.074-1.813-24.928l-1.947-3.864 2.687-10.136c3.24-12.222 4.399-29.247 2.461-36.167-2.482-8.867-10.63-12.169-16.934-6.864-1.703 1.433-4.192 4.476-5.532 6.762-2.27 3.873-2.435 5.114-2.423 18.145.009 9.217-.554 16.717-1.65 21.988-2.478 11.92-2.73 13.5-2.148 13.5.291 0 2.7-.93 5.351-2.067 3.24-1.388 5.88-1.868 8.048-1.46 3.57.669 3.737.84 4.678 4.777.64 2.683.55 2.75-3.74 2.75-4.367 0-10.986 2.13-12.07 3.886-.312.504-.74 18.398-.95 39.765-.278 28.216-.765 40.628-1.78 45.349l-1.396 6.5-3.756-.117c-2.066-.064-3.99-.35-4.274-.634s.413-11.13 1.551-24.1 1.851-25.285 1.586-27.366-1.223-13.908-2.128-26.283c-1.635-22.362-1.632-22.561.504-32.5 4.973-23.136 5.043-29.256.387-33.913-2.988-2.988-8.553-4.915-12.78-4.426-3.739.433-6.883 6.23-9.134 16.839-2.144 10.102-1.553 32.07.935 34.82 2.54 2.806 2.07 10.423-1.534 24.866-3.125 12.522-3.207 13.424-3.573 39.563L67.148 177l-2.425.608c-4.86 1.22-4.967.85-6.197-21.237-1.004-18.012-1.404-21.025-2.947-22.17-2.07-1.534-5.624-1.029-11.722 1.669-4.197 1.856-4.286 2-6.394 10.408-1.176 4.689-2.871 14.235-3.766 21.213-1.51 11.77-1.506 14.004.045 30.887l1.672 18.2-2.442 6.461c-9.15 24.211-8.506 21.518-9.234 38.572-.782 18.347.593 28.218 7.72 55.39 4.802 18.314 7.696 24.466 16.088 34.207 4.837 5.614 6.495 8.383 7.346 12.272.605 2.761 2.742 11.233 4.75 18.825s3.65 16.08 3.65 18.864c0 2.91-1.341 9.295-3.157 15.022-2.857 9.013-3.357 9.904-5.25 9.361-1.15-.33-3.33-.87-4.842-1.2-1.513-.33-2.747-1.107-2.743-1.726s1.214-4.5 2.69-8.625c3.662-10.243 3.649-20.33-.043-31.614-1.46-4.462-2.954-10.297-3.32-12.966-.57-4.158-1.545-5.789-6.826-11.411-9.728-10.359-13.83-18.857-20.895-43.303-5.653-19.56-6.953-28.822-6.905-49.206.048-19.996.005-19.793 8.68-41.092l4.518-11.092-1.655-16.48c-1.868-18.601-2.466-13.367 6.878-60.23 2.322-11.643 3.713-21.048 3.355-22.677-.98-4.466 1.334-17.991 4.025-23.516 2.982-6.12 5.395-7.405 15.323-8.158 6.564-.498 7.427-.806 8.241-2.948.506-1.33.626-8.939.27-17.15-.59-13.632-.465-15.28 1.622-21.552 2.388-7.175 6.485-12.752 11.134-15.156 3.755-1.942 13.343-1.746 18.901.386l4.5 1.726 4.22-5.176C106.583 16.778 114.669 12 119.585 12c1.595 0 4.236.788 5.87 1.75 3.423 2.017 8.94 9.9 11.428 16.328 2.4 6.201 2.689 6.351 6.832 3.54 2.034-1.38 4.233-2.346 4.888-2.147.654.199 2.42.631 3.922.96 3.436.752 9.274 5.826 12.4 10.777 4.31 6.83 5.346 13.35 4.698 29.592-.548 13.753-.41 15.409 2.15 25.7 3.724 14.968 4.207 29.533 2.04 61.486-2.211 32.62-1.417 39.994 7.164 66.514l4.53 14-.475 19.5c-.718 29.403-5.34 54.207-15.68 84.135-8.547 24.742-14.8 56.79-13.728 70.365.304 3.85 1.399 10.263 2.434 14.25 1.193 4.599 1.488 7.213.808 7.15-.59-.055-2.975-1.208-5.3-2.562m-.171-79.393c6.937-3.713 21.002-59.035 21.977-86.445.377-10.592.032-12.303-3.228-16.016-3.728-4.245-5.946-5.47-17.433-9.627-4.767-1.725-10.213-4.493-12.103-6.152-1.889-1.66-7.086-8.403-11.547-14.986-9.122-13.459-8.642-13.348-13.265-3.052-1.276 2.842-3.487 5.93-4.912 6.865-1.983 1.299-2.602 2.552-2.636 5.333-.024 2-.657 5.355-1.407 7.457l-1.363 3.821 9.49 9.888c5.22 5.438 10.466 10.167 11.657 10.51 8.575 2.46 10.522 3.762 15.046 10.05l4.61 6.409h-3.165c-1.742 0-5.902-1.281-9.245-2.847s-8.104-3.687-10.58-4.714c-2.606-1.081-7.747-4.992-12.219-9.297l-7.72-7.43-1.07 2.894a646 646 0 0 1-3.013 7.894c-11.56 29.727-14.15 43.823-10.38 56.517 1.978 6.659 7.558 14.998 14.164 21.17 4.243 3.963 6.55 5.162 14.946 7.77 5.46 1.697 11.923 3.476 14.36 3.954 6.364 1.249 16.732 1.267 19.036.034m-52.103-120.054c4.994-2.998 8.204-6.147 7.016-6.881-.629-.389.117-4.087 1.989-9.862 1.647-5.082 2.995-9.385 2.995-9.561s-1.905-1.582-4.233-3.123c-3.17-2.097-5.997-2.97-11.25-3.477l-7.017-.677-4.81 5.323c-5.36 5.93-9.91 7.812-15.69 6.487-4.015-.92-9.58-3.632-10.496-5.113-1.2-1.94-2.504-.98-2.504 1.843 0 2.904 3.813 8.92 8.114 12.804 5.725 5.169 24.859 14.17 30.386 14.294 1.1.024 3.575-.901 5.5-2.057M80.251 196.89c.064-.93-13.891-5.129-15.277-4.597-1.333.512-4.268 5.476-3.6 6.087.23.21 3.115 1.735 6.41 3.389l5.992 3.006 3.217-3.637c1.77-2 3.235-3.912 3.258-4.248m-21.618-72.353c.34-2.485 1.714-8.46 3.051-13.277 3.558-12.813 3.82-15.778 1.629-18.481-1.493-1.843-2.799-2.264-6.835-2.207-2.83.04-6.074.781-7.494 1.712-4.08 2.673-6.12 10.432-6.158 23.425l-.033 11.208 5.659-.59c4.994-.522 5.81-.35 6.95 1.476 1.757 2.814 2.5 2.062 3.231-3.266" style="fill:#000"/></svg>