<svg xmlns="http://www.w3.org/2000/svg" width="415.831" height="448.235" viewBox="0 0 415.831 448.235"><path d="m98.99 433.25-3.767-3.682 2.82-1.736c1.552-.955 6.477-3.867 10.946-6.472 13.525-7.884 19.702-14.775 32.48-36.235 3.683-6.188 10.347-17.107 14.808-24.265l8.11-13.015-2.838-2.298c-3.82-3.093-5.071-2.962-18.841 1.96-6.548 2.34-14.562 4.654-17.808 5.14-5.356.804-30.91-1.44-30.91-2.712 0-.56 5.04-10.757 5.67-11.474.201-.227 1.564.228 3.03 1.013 4.861 2.601 15.913 3.7 24.049 2.389 22.93-3.693 47.513-27.805 54.09-53.053 2.612-10.03 2.417-16.007-1.204-36.936-1.774-10.252-3.12-22.943-3.125-29.485l-.01-11.486-5.938-.745c-9.733-1.222-20.347-3.453-20.933-4.401-.751-1.216 6.893-3.376 18.12-5.12 5.157-.801 10.782-1.85 12.5-2.329 5.349-1.491 12.139-12.128 27.074-42.41l14.415-29.228-3-3c-1.651-1.65-6.345-4.376-10.432-6.056l-7.431-3.055 7.5-.011c4.125-.006 11.156.86 15.625 1.923l8.125 1.935 7.61-8.395c7.446-8.216 7.587-8.505 6.616-13.516-.546-2.816-1.01-7.933-1.032-11.37l-.04-6.25 3.203 5.625c7.808 13.713 11.566 15.52 32.392 15.567 13.22.03 17.008-.375 20.313-2.172 2.234-1.215 4.062-2.777 4.062-3.471 0-.799-.975-.74-2.657.16-2.388 1.278-3.687.41-12.813-8.559-9.819-9.65-10.394-10.007-17.363-10.766-6.83-.745-7.283-.621-8.638 2.353-1.643 3.605-3.916 3.893-10.155 1.286-5.192-2.169-11.405-1.64-23.967 2.04-18.767 5.498-22.76 8.895-37.95 32.291-12.77 19.667-15.932 23.207-34.582 38.708-26.642 22.144-43.426 41.394-50.519 57.94-1.37 3.198-5.02 14.467-8.112 25.042-8.282 28.34-13.11 37.974-28.286 56.456-10.103 12.302-17.458 24.168-17.458 28.162 0 1.87.804 5.678 1.787 8.464l1.788 5.066-3.975 1.384c-8.835 3.076-12.827 7.027-18.812 18.615-5.64 10.92-14.145 22.297-19.441 26.007-2.493 1.746-2.538 1.685-1.254-1.693.733-1.928 4.308-9.974 7.945-17.88s8.17-18.031 10.072-22.5c4.646-10.913 11.959-24.314 30.353-55.625 22.802-38.814 24.524-42.683 30.312-68.125 2.738-12.031 6.946-33.35 9.351-47.374l4.375-25.498 5.74-7.002c21.873-26.676 33.671-39.121 58.843-62.068 27.549-25.113 27.825-25.322 37.895-28.676 8.73-2.907 11.81-4.797 22.115-13.567C246.78 14.64 250.37 12 253.033 12c1.291 0 6.956 1.906 12.59 4.237 16.387 6.778 23.055 8.388 38.991 9.414 12.782.822 16.01 1.478 21.825 4.436 18.044 9.177 50.056 31.478 56.956 39.677 3.143 3.735 3.347 4.664 2.814 12.82-.935 14.302-8.089 24.398-17.299 24.411-1.918.003-4.634 1.498-6.768 3.726-5.18 5.406-10.52 6.754-22.964 5.798-8.9-.684-12.318-1.638-20.987-5.853-9.527-4.633-10.586-4.891-13.217-3.226-1.742 1.102-8.12 2.15-16.313 2.681l-13.453.872-4.248 5.19c-10.316 12.608-32.883 55.255-34.115 64.472-.833 6.23 3.716 18.975 10.322 28.919 7.516 11.314 26.946 29.926 31.24 29.926 5.247 0 19.98-6.741 42.592-19.489 11.613-6.547 26.379-14.467 32.812-17.6 10.753-5.238 12.21-5.63 18.06-4.853 13.973 1.853 26.43 8.317 30.244 15.695 4.72 9.127-.082 18.011-17.103 31.642-13.123 10.51-16.806 14.259-25.394 25.855-7.571 10.224-15.328 18.463-19.4 20.607-1.73.91-8.761 2.315-15.625 3.122-14.016 1.647-19.734 3.832-41.854 15.992-12.44 6.839-15.973 9.554-26.25 20.183-10.905 11.278-12.416 12.396-18.499 13.688-3.643.775-16.361 1.408-28.263 1.408-11.901 0-24.243.357-27.426.793-5.59.766-5.993 1.117-11.85 10.313-3.336 5.235-10.172 17.113-15.192 26.394s-11.23 19.969-13.799 23.75c-8.744 12.871-22.034 23.594-35.666 28.777-2.53.962-3.668.54-6.805-2.527m128.427-98.266c8.677-.876 18.795-7.59 33.135-21.986 10.831-10.874 10.937-11.041 10.937-17.24 0-6.454.814-7.249 5.082-4.964 1.506.806 2.418 2.613 2.418 4.792 0 1.923.315 3.812.7 4.196.384.385 3.416-1.13 6.737-3.364 6.475-4.358 17.668-8.631 35.688-13.626 19.1-5.294 19.14-5.321 35.738-25.302 9.994-12.032 17.89-20.224 23.184-24.055 16.767-12.135 12.804-23.194-8.901-24.835-8.005-.606-9.911-.297-16.327 2.64-3.995 1.829-11.849 6.376-17.453 10.105-9.852 6.555-10.241 7-11.722 13.405-.842 3.644-2.881 9.156-4.531 12.25l-3 5.625-.056-7.852c-.045-6.142-.51-8.026-2.141-8.651-3.827-1.469-15.916 2.013-27.916 8.04-10.838 5.442-11.946 6.332-12.688 10.187-.846 4.398-2.989 6.618-5.876 6.087-.93-.171-3.092-4.811-4.806-10.311-2.904-9.32-3.681-10.507-11.435-17.45-13.209-11.829-17.498-16.62-20.914-23.36-3.768-7.437-8.03-23.283-8.03-29.854 0-6.154 15.488-37.163 28.093-56.247 5.173-7.832 9.406-14.403 9.406-14.602 0-.2-1.345-.362-2.989-.362-3.57 0-12.84 7.402-19.795 15.806-2.92 3.53-6.059 6.069-7.5 6.069-2.02 0-3.334 2.427-7.104 13.125-6.198 17.584-17.085 38.205-27.333 51.769-4.622 6.118-9.04 12.02-9.816 13.115-1.914 2.698-.036 31.903 3.277 50.986 2.978 17.15 3.048 20.735.63 32.255-2.702 12.867-9.341 25.358-18.333 34.49-10.779 10.948-10.241 11.203 21.942 10.405 13.83-.344 28.095-.922 31.7-1.286m-28.806-82.528c-2.652-2.653-.376-5.645 7.686-10.101 7.746-4.281 9.287-4.69 16.25-4.306 7.068.389 7.692.656 7.692 3.295 0 2.465-.835 2.997-5.888 3.755-4.961.744-15.167 4.033-22.927 7.39-1.067.461-2.333.446-2.813-.033m-38.35-120.45c18.501-18.489 21.292-21.845 26.874-32.32 10.351-19.424 9.867-19.08 38.104-27.17 13.406-3.84 28.031-7.259 32.5-7.595s18.237.528 30.596 1.921c17.586 1.982 22.805 2.99 24.008 4.635 1.61 2.201 3.45 10.393 4.814 21.423.797 6.447.89 6.567 7.776 9.936 12.94 6.33 26.035 4.994 33.431-3.411l2.5-2.842-4.029 2.333c-4.021 2.329-4.035 2.328-7.337-.729-4.415-4.086-8.87-11.215-10.188-16.298-.854-3.296-1.936-4.362-5.317-5.238-2.334-.605-10.69-5.274-18.568-10.375-7.877-5.102-15.502-9.27-16.942-9.26-1.44.007-5.081 1.422-8.091 3.142l-5.473 3.129.707-3.534c.389-1.944.883-4.343 1.097-5.331.334-1.533-5.121-1.784-37.109-1.71-34.787.08-37.907.267-43.125 2.603-7.647 3.423-21.943 15.996-35.316 31.06-9.457 10.652-12.376 15.087-19.742 30-4.755 9.625-11.727 21.438-15.494 26.25-8.676 11.084-11.8 15.666-17.04 25l-4.21 7.5 12.464-11.245c6.855-6.184 21.754-20.528 33.11-31.875m-32.91 3.119c10.882-16.43 12.733-19.454 10.712-17.5-.71.688-6.137 6.816-12.058 13.619-9.183 10.55-10.766 13.022-10.766 16.812 0 5.44-.193 5.646 12.111-12.931m246.605-44.717c2.16-3.832 1.586-4.83-2.209-3.838-2.062.54-2.758 1.657-2.758 4.43 0 4.448 2.278 4.177 4.967-.592m-16.492-.711c1.237-.785 1.002-1.775-1.035-4.364-2.777-3.531-7.234-6.456-8.266-5.424-.71.711 5.781 10.85 6.93 10.822.424-.01 1.49-.476 2.37-1.034m-55.156-7.126c.99-2.582.61-2.827-5.866-3.761l-5.578-.805 3.75 3.202c4.322 3.691 6.643 4.103 7.694 1.364m67.296-13.676c-4.607-3.764-5.233-3.818-6.274-.539-.572 1.803.057 3.547 2.038 5.656l2.865 3.05 2.555-2.556 2.556-2.555zm-16.865-4.306v-7.411l-9.062-5.622c-14.14-8.77-15.647-9.277-17.925-6.025-1.964 2.804-7.263 3.694-8.648 1.453-.43-.696.057-2.949 1.084-5.006 1.69-3.389 1.669-3.84-.23-4.812-1.151-.59-8.281-1.416-15.844-1.836-11.5-.637-16.195-1.586-28.691-5.796-21.706-7.313-25.524-6.787-35.44 4.883L232.6 40.75l22.882.01c35.553.014 41.482 1.546 64.308 16.61 10.52 6.943 25.96 14.08 31.387 14.507 1.088.086 1.562-2.127 1.562-7.288" style="fill:#000"/></svg>