<svg xmlns="http://www.w3.org/2000/svg" width="242.375" height="491.249" viewBox="0 0 242.375 491.249"><path d="M48.522 455.187c-.389-13.315-1.587-28.866-2.683-34.816-2.839-15.422-9.532-38.169-16.29-55.358-7.43-18.902-14.777-49.201-17.462-72.016-.825-7.009 4.335-41.341 10.682-71.076 3.548-16.623 3.596-16.657 31.862-22.05 3.493-.665 4.023-1.39 5.348-7.313 1.895-8.467 7.731-20.66 11.585-24.204 3.613-3.323 11.32-6.181 20.9-7.752 6.165-1.01 7.92-2.01 14.113-8.043 5.7-5.552 8.696-7.39 15.444-9.474 4.605-1.422 11.306-2.586 14.891-2.586h6.52l6.767 8.438c6.84 8.527 11.065 17.868 11.14 24.625.027 2.483.453 3.275 1.303 2.425.834-.834.86-3.393.074-7.534-.654-3.449-1.561-19.165-2.015-34.925-.76-26.317-1.275-31.164-6.324-59.437-3.023-16.93-5.485-32.118-5.47-33.75.078-8.423 9.674-21.152 19.339-25.653 13.04-6.072 24.011-1.896 33.943 12.92 8.452 12.608 10.098 19.703 11.544 49.766 1.06 22.044 1.794 28.153 4.58 38.125 4.371 15.644 5.12 26.177 2.57 36.131-2.984 11.65-2.506 23.922 1.7 43.646 7.324 34.352 8.592 43.714 7.398 54.598-1.797 16.388-7.089 43.947-11.64 60.625-2.722 9.981-5.024 22.624-6.372 35-3.054 28.058-5.88 34.142-21.73 46.788-13.79 11.003-15.338 18.997-9.552 49.317 1.756 9.201 3.193 20.31 3.193 24.687 0 7.64-.125 7.958-3.101 7.958-2.216 0-3.263-.803-3.666-2.812-.31-1.547-2.957-13.951-5.882-27.565-4.678-21.771-5.166-25.496-4.051-30.937 1.395-6.814 1.131-7.026-5.368-4.31-8.47 3.539-26.913 1.688-38.715-3.885-13.417-6.336-25.703-25.142-28.328-43.36-1.156-8.03-1-10.057 1.377-17.784 1.475-4.797 6.357-14.867 10.848-22.379 5.235-8.756 7.909-14.464 7.45-15.906-.472-1.491-3.637-3.121-9.376-4.83-4.765-1.42-10.144-3.854-11.954-5.41l-3.29-2.83-6.982 2.357q-12.472 4.21-21.696-2.03c-6.86-4.641-7.741-5.099-6.76-3.512.631 1.023-1.068 1.443-5.832 1.443-5.925 0-7.355.54-12.031 4.543-5.553 4.753-6.906 4.601-8.27-.927-.706-2.86-.076-3.743 5.125-7.188C37.735 284.042 40.744 283 44.72 283c2.976 0 5.41-.3 5.41-.666 0-2.966-18.725-33.104-21.154-34.046-.478-.186-2.178 9.377-3.777 21.25-2.835 21.046-2.857 21.932-.862 35.337 2.404 16.148 21.357 74.37 27.62 84.849 6.1 10.202 11.456 12.471 31.299 13.257 9.76.387 16.178 1.143 16.07 1.894-.1.688-1.69 2.375-3.536 3.75-3.004 2.24-5.305 2.5-22.082 2.5H54.98l.688 5.625c.38 3.094 1.538 15.469 2.577 27.5s2.181 24.125 2.54 26.875c.643 4.922.575 5.025-4.356 6.563-2.755.86-5.503 1.562-6.106 1.562s-1.413-10.828-1.8-24.062m116.734-57.373c10.545-3.561 23.12-16.67 30.794-32.098 3.924-7.89 4.565-10.401 4.627-18.125.049-5.974-.653-10.573-2.101-13.78l-2.174-4.813-5.948 4.937c-7.976 6.62-15.58 11.516-18.871 12.15-1.485.286-3.95 1.396-5.48 2.467-8.371 5.864-25.14-3.012-39.888-21.113l-6.71-8.235-3.504 4.085c-1.927 2.247-5.285 7.741-7.463 12.21-3.522 7.226-3.954 9.3-3.905 18.75.041 7.971.761 12.431 2.882 17.856 3.508 8.973 14.588 21.364 20.995 23.478 10.37 3.423 29.736 4.599 36.746 2.231m3.624-61.355c0-.708 1.523-.991 3.437-.638 3.073.567 4.133-.302 10-8.196 3.61-4.857 6.563-10.153 6.563-11.77 0-3.616-4.922-13.512-11.672-23.466-11.446-16.879-22.278-25.334-30.484-23.795-10.7 2.008-20.173 9.997-22.986 19.387-3.844 12.83 7.963 33.995 25.1 44.99 8.202 5.265 20.042 7.325 20.042 3.488m-34.745-29.621c-6-6.7-7.755-9.545-7.755-12.562 0-12.734 19.743-26.766 29.964-21.296 1.264.677 4.414 5.036 7 9.687 2.585 4.652 5.488 9.681 6.451 11.177 1.685 2.617 1.205 3.076-12.77 12.187-7.986 5.208-14.659 9.468-14.828 9.468-.17 0-3.797-3.897-8.062-8.661m19.89-9.049c8.312-3.347 8.78-3.732 7.352-6.044-1-1.617-1.358-1.584-2.76.253-.887 1.161-3.517 2.283-5.845 2.494-2.719.245-4.898 1.388-6.09 3.195-2.312 3.501-1.138 3.518 7.344.102m-14.438-1.546c1.152-4.59 5.985-8.373 11.67-9.136 2.818-.378 5.123-.914 5.123-1.191 0-.278-.942-1.942-2.093-3.698-1.722-2.628-2.755-3.062-5.833-2.446-4.83.966-11.91 6.383-13.373 10.23-.746 1.963-.65 4.09.279 6.127 1.791 3.933 3.258 3.972 4.227.114m70.868-2.619c6.093-22.447 8.922-36.023 10.286-49.375.745-7.288.442-9.034-2.943-16.95-8.458-19.776-12.038-51.96-8.442-75.9 2.81-18.704 2.574-22.3-2.378-36.421-4.032-11.495-4.35-13.495-4.37-27.5-.026-18.519-1.855-36.888-4.454-44.754-2.1-6.351-11.508-17.825-15.711-19.16-1.416-.449-5.048-.124-8.07.722-6.323 1.77-14.256 9.596-14.222 14.03.027 3.56 7.972 43.093 8.834 43.955.353.354 3.382-.744 6.73-2.44 8.379-4.241 12.589-4.071 15.008.606 1.049 2.028 1.907 3.997 1.907 4.375s-2.421.687-5.38.687c-3.847 0-7.089 1.084-11.373 3.8-5.503 3.49-5.906 4.078-4.933 7.188.584 1.863 1.074 18.012 1.09 35.887.02 21.752.593 35.704 1.734 42.188.938 5.328 1.881 9.687 2.097 9.687s3.262-.615 6.77-1.368c5.202-1.115 7.984-.975 15.062.76 8.62 2.112 8.683 2.159 8.683 6.368 0 4.863.136 4.823-8.011 2.352-3.375-1.024-10.266-1.862-15.313-1.862-7.323 0-9.176-.378-9.176-1.875 0-2.926-2.969-2.21-6.489 1.563-3.68 3.946-5.308 6.946-6.525 12.025-.855 3.572-.837 3.585 3.89 2.719l4.749-.87-5.176 5.406-5.176 5.407 1.036 11.875c.57 6.531 1.432 16.464 1.915 22.073l.879 10.197 10.136 10.448c8.442 8.702 11.807 13.513 20.136 28.793 5.5 10.09 10.322 17.956 10.716 17.48s3.312-10.428 6.484-22.116m-94.79-8.19c6.552-7.252 7.54-10.508 4.456-14.683-3.03-4.102-6.19-18.307-6.22-27.958-.016-5.39-1.361-10.508-5.636-21.44-6.293-16.094-8.769-25.846-10.057-39.604-.483-5.156-1.513-9.788-2.29-10.293s-3.48-.927-6.005-.938c-8.77-.036-16.853 10.31-18.192 23.282-.633 6.136-.236 7.611 4.482 16.652 5.142 9.853 5.177 10.012 5.177 23.49v13.57l5.187 8.175 5.187 8.177 5.438-3.04 5.437-3.038 6.25 4.588c6.339 4.653 7.96 8.452 4.217 9.888-1.118.43-2.727.204-3.576-.5-1.07-.888-2.877-.723-5.894.538-2.394 1-5.645 1.48-7.224 1.067-2.736-.715-2.83-.519-1.967 4.128.498 2.684 2.293 6.707 3.989 8.942 2.535 3.34 3.935 4.062 7.874 4.062 4.013 0 5.533-.822 9.367-5.065m-34.734-.553c2.995-1.251 4.243-2.464 3.78-3.672-.381-.992-1.331-4.23-2.112-7.194-.78-2.965-3.43-9.604-5.886-14.754-4.158-8.716-4.52-10.445-5.243-25.028-.627-12.618-1.278-16.51-3.348-20.012l-2.57-4.347-10.428.348c-16.209.542-21.402 4.567-21.702 16.82-.157 6.4.399 7.734 9.3 22.32 5.207 8.531 10.487 18.184 11.732 21.45 2.46 6.45 4.426 7.73 4.426 2.882 0-1.68 1.272-4.535 2.828-6.343 2.73-3.175 3.034-3.236 8.846-1.772 4.6 1.158 6.322 2.285 7.306 4.78 4.378 11.106 3.193 14.693-1.953 5.912-6.236-10.64-11.96-8.576-12.01 4.332-.01 2.464.358 4.855.816 5.313 1.514 1.514 11.669.866 16.218-1.035M102.007 268c.425-.687-.071-1.25-1.103-1.25-1.03 0-2.222.563-2.647 1.25s.071 1.25 1.102 1.25 2.223-.562 2.648-1.25m32.466-4.293c3.147-1.673 8.687-3.658 12.31-4.41 6.46-1.341 6.58-1.447 6.115-5.395-.432-3.674-.866-4.036-4.95-4.13-3.414-.077-5.244.747-7.71 3.47-2.197 2.43-5.03 3.874-8.856 4.513-3.094.517-5.485 1.346-5.313 1.842.172.497.313 2.31.313 4.028 0 3.882.927 3.891 8.09.082M129.755 253c3 0 7.875-3.97 7.875-6.413 0-2.374-9.152-.186-11.563 2.764-2.552 3.122-3.151 7.613-.687 5.15.825-.826 2.794-1.5 4.375-1.5m20.266-22.56c-1.508-14.024-1.426-16.754 1.054-35.235l2.688-20.034-2.615-5.148c-1.439-2.831-4.5-8.1-6.801-11.71-3.9-6.115-4.525-6.563-9.158-6.563-6.737 0-16.442 3.38-19.166 6.676-1.228 1.484-3.633 5.381-5.345 8.66-3.06 5.859-3.09 6.197-1.76 20 1.64 17.034 1.415 16.179 8.236 31.233 3.04 6.706 5.876 14.75 6.304 17.877.63 4.6 1.163 5.52 2.788 4.82 1.105-.476 4.363-1.753 7.24-2.839l5.231-1.974 6.02 5.133c3.31 2.823 6.22 4.947 6.468 4.72s-.285-7.255-1.184-15.616" style="fill:#000"/></svg>