<svg xmlns="http://www.w3.org/2000/svg" width="286.335" height="439.68" viewBox="0 0 286.335 439.68"><path d="M53.772 422.836c.94-2.664 4.009-7.527 5.07-11.476 6.046-22.493 9.623-25.469 8.564-61.032-.073-2.459-7.249-23.602-13.105-37.262-6.658-15.527-13.91-26.674-17.77-34.225C26.324 258.868 12 227.528 12 212.537c0-3.48 1.908-12.037 4.505-20.202 5.548-17.44 6.464-27.237 3.768-40.274-1.113-5.38-2.023-13.42-2.023-17.867 0-20.28 16.027-48.756 32.127-57.081 3.364-1.74 4.048-3.136 6.346-12.946 4.578-19.552 10.75-29.684 20.891-34.29 9.25-4.202 17.73-3.072 35.145 4.682.761.34 2.104-1.123 2.985-3.249 2.282-5.509 10.183-11.802 19.824-15.789 6.867-2.84 10.257-3.449 19.557-3.518 12.454-.092 18.491 1.707 27.537 8.203l5.237 3.761 7.363-2.222c4.599-1.388 11.391-2.221 18.093-2.218 9.379.004 11.66.47 18.125 3.699 6.073 3.034 7.995 4.807 10.753 9.921 1.847 3.425 4.27 9.894 5.385 14.375 1.115 4.482 5.386 14.977 9.492 23.324 10.825 22.006 11.248 25.018 6.337 45.033-2.192 8.93-4.59 21.256-5.33 27.39-.74 6.133-2.448 14.458-3.798 18.499-2.447 7.327-2.447 7.355.053 10.016 1.378 1.467 3.688 5.473 5.134 8.902 1.445 3.429 4.846 10.734 7.557 16.234 5.374 10.9 8.341 24.79 6.917 32.38-1.113 5.933-7.51 17.836-19.881 36.995-20.808 32.224-38.497 62.081-40.36 68.125-4.43 14.363-3.317 55.646 2.05 76.09 1.277 4.863 2.106 9.057 1.842 9.32-.263.264-3.052-.503-6.198-1.704-5.539-2.115-5.806-2.463-8.505-11.07-2.379-7.583-2.788-11.726-2.795-28.26-.004-10.657.48-23.537 1.075-28.622l1.083-9.246-2.958.869c-6.279 1.845-28.497 2.34-36.286.808-21.218-4.174-36.683-19.664-41.159-41.223-3.495-16.836 1.393-42.44 11.869-62.168 4.739-8.925 5.033-8.29-6.55-14.094-8.68-4.35-18.147-12.383-20.928-17.76-.978-1.893-1.779-5.423-1.779-7.845 0-3.51-1.079-5.488-5.316-9.75-2.925-2.94-7.686-9.347-10.581-14.24-6.568-11.096-11.342-15.318-25.176-22.266-12.5-6.277-19.577-13.118-20.907-20.207-.92-4.909.243-28.707 1.503-30.747.408-.66 2.089.782 3.735 3.204 2.484 3.657 2.992 5.96 2.992 13.58 0 13.076 3.345 19.457 11.875 22.653 11.445 4.288 14.947 6.002 21.875 10.704l6.875 4.665 2.912-3.539c1.602-1.946 5.435-5.016 8.517-6.823 4.81-2.82 6.055-3.078 8.8-1.827 2.856 1.301 3.098 1.22 2.28-.773-5.095-12.396-8.134-22.629-8.134-27.388 0-7.597-4.021-11.32-17.862-16.545-5.783-2.183-13.269-5.926-16.635-8.32-3.366-2.393-6.966-4.345-7.999-4.339-4.286.028-14.826 6.258-19.166 11.328-8.53 9.966-10.062 17.483-10.295 50.535-.197 28-.305 29.128-4.123 43.229-4.883 18.036-4.882 17.958-.192 15.532 2.051-1.06 6.192-2.265 9.202-2.678 4.79-.656 5.734-.38 7.557 2.208l2.084 2.96-6.598 1.034c-4.926.773-7.997 2.23-12.12 5.75l-5.524 4.712 3.188 9.877c46.277 83.321 35.978 96.063 56.695 119.02 6.346 3.636 11.833 4.942 22.934 7.801 5.64 1.453 13.103 2.957 8.861 4.303-1.37.435-3.244 1.543-4.162 2.461-1.394 1.394-3.656.979-13.659-2.507l-16.016-1.491-4.462 15.746c-8.493 29.965-5.877 29.961-9.562 39.168l-4.152 10.375-5.84.38-5.84.38zm135.703-92.902c7.957-1.707 12.443-5.457 19.934-16.666 6.44-9.637 12.839-18.952 27.548-40.098 19.593-28.17 26.293-41.088 26.293-50.7 0-6.2-1.561-10.144-7.684-19.415-2.767-4.189-6.81-12.017-8.986-17.396-5.4-13.353-6.965-14.334-24.33-15.25-13.517-.713-14.101-.635-18.664 2.479-5.669 3.868-13.434 6.055-22.237 6.26-5.382.127-7.208-.433-10.526-3.225-2.208-1.858-4.469-3.378-5.023-3.378-2.022 0-2.279 5.17-.575 11.57 3.491 13.114 1.386 18.814-8.394 22.727-6.334 2.534-25.48 3.032-29.704.771-3.466-1.855-7.562-10.481-7.6-16.005-.027-4.119-.743-4.669-4.3-3.304-3.863 1.482-1.166 13.405 4.193 18.54 4.471 4.283 17.696 8.718 39.556 13.264 10 2.08 21.134 4.886 24.742 6.236 6.922 2.59 14.532 8.95 14.532 12.147 0 1.567 1.207 1.756 6.926 1.084 8.207-.964 12.158.61 11.587 4.617-.32 2.25-1.983 3.144-9.478 5.1l-9.09 2.372 3.717 2.26c4 2.432 7.588 8.215 7.588 12.227 0 2.46-.063 2.459-7.716-.125l-7.715-2.606-2.85 3.313c-1.567 1.821-3.157 3.312-3.534 3.312s-.685-5.09-.685-11.312c0-7.468-.62-12.51-1.823-14.838-2.845-5.5-11.834-9.066-24.74-9.813l-10.937-.634-4.863 10.486c-10.593 22.841-14.678 41.557-11.565 52.986 2.127 7.806 11.464 21.973 17.053 25.873 5.352 3.735 20.78 8.32 28.376 8.433 2.544.038 7.483-.543 10.974-1.292m-43.11-130.826c-1.926-4.663-3.272-12.367-2.834-16.217.4-3.514-.012-4.193-3.222-5.312-10.418-3.632-15.445.425-14.144 11.413.415 3.503 1.63 7.704 2.699 9.336 1.72 2.626 2.891 2.967 10.174 2.967 7.348 0 8.133-.234 7.326-2.187m10.112-1.563c.288 0 .523-2.986.523-6.636 0-7.538-2.762-12.894-4.957-9.614-2.669 3.989-.916 18.103 2.104 16.944.994-.382 2.043-.694 2.33-.694m-37.747-22.61 7.136-5.11-3.625-6.453c-2-3.56-5.964-8.11-8.842-10.15l-5.216-3.698-5.199 5.199-5.198 5.198 1.436 7.726c2.56 13.764 7.754 15.704 19.508 7.288m38.46-10.202c.84-1.547 1.564-5.625 1.607-9.063.066-5.29-.694-7.4-4.95-13.75-4.443-6.627-5.45-7.454-8.658-7.105-6.486.704-10.708 3.817-13.264 9.78-2.971 6.931-3.042 10.322-.334 16 2.51 5.264 5.975 6.72 16.303 6.851 6.823.087 7.954-.243 9.296-2.713m35.36 1.59c1.767-.671 4.157-3.2 5.311-5.62 1.97-4.131 1.964-4.966-.094-13.7l-2.193-9.3-6.652-.831c-9.884-1.235-11.615-.244-15.777 9.032-5.172 11.528-4.904 14.495 1.668 18.433 5.599 3.356 12.192 4.095 17.737 1.987m44.314-9.096c7.253-4.367 7.985-5.86 11.5-23.432.757-3.781 2.795-11.366 4.528-16.855 4.903-15.526 3.952-22.345-6.13-43.937-4.451-9.533-9.453-20.672-11.115-24.752-1.662-4.081-4.776-9.284-6.92-11.563-3.74-3.975-4.276-4.143-13.266-4.143-8.895 0-21.895 1.767-23.294 3.167-1.393 1.392 10.436 35.967 18.708 54.683 6.056 13.701 8.75 21.346 8.824 25.033.06 2.965-1.892 11.492-4.421 19.315-2.49 7.703-4.528 15.938-4.528 18.3 0 3.923.458 4.456 5.313 6.174 8.462 2.996 13.287 2.534 20.8-1.99m-20.322-3.247c-2.982-3.295-2.52-7.579 1.733-16.09 3.37-6.743 4.319-7.691 8.846-8.84 3.922-.996 6.322-.861 10.597.595l5.526 1.883-.687 7.071c-1.205 12.38-1.873 15.196-3.605 15.196-2.392 0-3.202-2.873-3.202-11.352v-7.398h-4.115c-3.747 0-4.416.616-7.5 6.903-1.862 3.796-3.385 8.263-3.385 9.926 0 4.024-1.702 4.875-4.208 2.106m-85.317-19.774c4.328-2.804 15.76-6.66 19.74-6.66 1.244 0 3.533 1.96 5.086 4.359 1.553 2.397 3.319 4.366 3.923 4.375 1.227.017.035-15.02-1.88-23.708-.678-3.078-2.661-7.47-4.408-9.76-2.784-3.651-3.66-4.06-7.118-3.326-2.169.46-4.86 1.645-5.982 2.633-1.779 1.566-2.297 1.537-4.062-.229-1.113-1.113-2.024-2.777-2.024-3.698 0-1.833 6.933-8.147 8.946-8.147.69 0-1.885-3.515-5.72-7.812s-8.994-11.648-11.463-16.335c-6.251-11.869-10.584-16.34-20.776-21.44-9.582-4.793-15.85-5.548-22.61-2.724-8.833 3.691-15.984 16.748-15.8 28.85.07 4.569.664 5.515 5.844 9.297 3.171 2.315 11.471 6.568 18.445 9.45 13.935 5.758 21.615 10.862 22.48 14.938.31 1.458 1.472 7.33 2.583 13.05s2.887 12.47 3.945 15a680 680 0 0 1 3.174 7.726l1.25 3.125 1.118-3.125c.615-1.719 3.004-4.346 5.309-5.84m77.31-13.577c.036-8.018-.277-8.923-13.214-38.273-3.834-8.697-9.347-23.808-12.252-33.579-2.904-9.77-6.02-18.504-6.924-19.408-2.985-2.985-15.912-7.2-22.326-7.28-9.167-.115-16.89 3.312-23.578 10.462-3.158 3.375-5.741 6.81-5.741 7.633 0 3.845 14.645 27.369 26.468 42.514 15.416 19.748 19.782 29.735 19.782 45.248v7.376l2.364-2.92c2.01-2.481 3.745-2.989 11.563-3.382 13.21-.664 17.53.72 19.009 6.088l1.187 4.312 1.814-5.625c.997-3.094 1.829-9.018 1.847-13.166" style="fill:#000"/></svg>