<svg xmlns="http://www.w3.org/2000/svg" width="243.996" height="495.455" viewBox="0 0 243.996 495.455"><path d="M40.786 482.508c-1.335-.982-3.411-1.785-4.614-1.785-3.26 0-3.764-1.76-1.839-6.43 1.07-2.594 2.067-12.065 2.612-24.82.485-11.344 1.627-25.688 2.538-31.875l1.657-11.25c-3.991-9.454-8.6-17.873-8.6-17.873-1.058-11.657-1.569-6.495-6.817-23.415-3.12-10.055-7.73-22.786-10.636-36.531-1.536-7.264-4.083-23.385-2.679-33.335 2.193-15.527.03-11.158 1.082-18.7 1.49-10.681 3.15-30.379 7.136-39.521 3.52-8.074 3.538-8.248 2.836-27.547-.662-18.18-.518-19.978 2.258-28.125 2.785-8.172 2.88-9.391 1.574-19.982-1.173-9.508-1.043-13.53.825-25.625 1.219-7.89 2.437-18.565 2.707-23.721C31.888 91.659 35.64 84.287 46.72 80.75c4.859-1.55 13.383-1.272 17.579.575 2.232.983 2.296.411 1.428-12.867-.828-12.678-.675-14.374 1.743-19.37 3.024-6.246 10.046-12.37 18.446-16.085 7.126-3.152 20.123-2.82 23.916.613 2.305 2.086 2.523 1.88 6.454-6.105 5.572-11.318 12.048-15.55 23.733-15.512 24.089.081 31.987 15.801 27.415 54.565-1.164 9.871-1.06 14.05.609 24.588 1.106 6.982 2.342 16.474 2.748 21.094.827 9.424-.42 8.56 14.84 10.291 11.02 1.25 14.606 5.65 16.19 19.86.448 4.015 2.276 13.296 4.063 20.625 2.724 11.173 3.225 15.974 3.1 29.734-.098 10.682-.774 18.179-1.939 21.48-1.57 4.451-1.56 5.26.084 6.624 4.865 4.038 5.839 8.625 5.071 23.892l-.74 14.72 7.476 7.808c16.375 17.101 16.886 25.102 4.142 64.833-4.234 13.198-4.35 13.385-22.373 35.99l-18.118 22.723-.042 7.76c-.09 16.648-2.346 32.751-6.154 43.933-4.48 13.158-4.552 14.386-1.38 23.606 1.332 3.874 1.983 7.316 1.445 7.648-.538.333-3.049.269-5.58-.142-8.737-1.418-13.943-12.761-9.095-19.819.931-1.356 2.9-5.72 4.375-9.7 2.228-6.012 2.681-9.953 2.681-23.336v-16.103l-4.688 1.295c-2.578.712-10.974 1.054-18.657.76-13.016-.498-10.29-.846-18.861-5.082-12.03-5.946-24.363-18.465-30.054-30.508-3.662-7.75-4.037-7.055-4.046-17.83-.01-15.249 6.95-24.061 17.79-34.25 13.179-12.387 23.277-14.003 39.899-12.944 7.975.508 7.494-4.765 6.82-7.203-4.262-15.418-3.604-29.142 2.392-49.84 2.52-8.699 2.683-10.408 1.212-12.653-2.905-4.433-8.892-19.878-11.241-28.998-2.12-8.226-2.128-9.167-.155-17.022 1.43-5.693 2.089-13.557 2.089-24.937 0-13.368.52-18.334 2.655-25.368 1.46-4.81 3.555-12.832 4.653-17.826 1.887-8.575 1.864-9.686-.418-20-3.126-14.131-3.754-29.01-1.896-44.923 1.164-9.965 1.157-13.791-.032-17.5-3.244-10.124-12.34-17.865-19.02-16.188-4.355 1.093-11.92 11.367-14.236 19.336-1.72 5.915-1.769 8.845-.397 23.494l1.566 16.736h4.723c4.594 0 14.492 3.77 13.226 5.818-.341.553-8.262.514-11.28.966l-5.486.823-.696 6.509c-.383 3.58-1.31 18.04-2.06 32.134s-2.253 30.458-3.339 36.366c-1.892 10.297-1.862 11.332.733 25 1.489 7.842 3.002 15.473 3.362 16.958.517 2.126-.717 3.784-5.813 7.812-3.558 2.813-6.982 5.114-7.607 5.114-1.789 0-1.331-4.168.79-7.196 1.751-2.501 1.7-3.711-.557-13.217-4.157-17.504-4.311-21.499-1.524-39.612 1.426-9.268 3.192-29.848 3.925-45.735 1.234-26.736 1.144-30.163-1.22-46.062-1.403-9.447-2.552-17.692-2.552-18.32 0-.63-1.828-2.26-4.063-3.622-4.928-3.005-14.504-3.291-19.728-.59-6 3.103-7.206 7.086-7.667 25.341l-.417 16.516 4.375.018c2.406.01 5.219.581 6.25 1.27 1.586 1.06 1.344 1.724-1.567 4.3-1.894 1.676-5.493 3.432-8 3.902l-4.556.855.807 17.638c.444 9.702.809 22.842.811 29.201l.005 11.563h5c3.277 0 13.621-.3 13.621.768 0 1.983-16.3 10.482-18.294 10.482-2.86 0-2.95 2.758-.453 14.081 1.4 6.35 2.719 17.198 2.932 24.108l.388 12.564-4.848 3.686c-6.612 5.028-14.735 9.372-16.03 8.572-2.282-1.41-.858-4.837 3.799-9.14 4.727-4.37 4.89-4.8 5.763-15.32.744-8.955.498-11.975-1.427-17.5-2.081-5.974-2.286-10.097-1.944-39.216.338-28.868-.824-50.396-3.03-56.147-1.001-2.608-4.78-3.526-10.526-2.555-4.686.792-5.04 1.173-6.771 7.289-1.005 3.549-2.446 12.263-3.202 19.365a1927 1927 0 0 1-3.055 26.516c-1.873 15.166-1.036 22.083 3 24.78 2.55 1.704 8.585.851 5.569 4.435-4.955 5.89-12.134 15.16-10.864 36.357.876 14.61.765 19.638-.502 22.772-2.336 5.78-2.071 6.603 2.124 6.603 5.023 0 4.95 3.21-.137 5.995-8.762 4.8-9.399 7.08-11.243 23.686-1.784 16.06-2.877 7.7-1.373 29.418 2.163 31.246 4.54 35.818 6.908 44.047 3.696 12.844 4.037 18.466 9.684 32.702 5.974 15.057 6 19.108 14.61 28.134 5.897 6.183 6.936 8.011 7.48 13.162l.632 5.98-4.415-4.195c-4.094-3.89-4.505-4.027-5.656-1.875-3.178 5.945-5.283 17.754-6.542 36.696-.754 11.344-1.754 22.975-2.222 25.848-.799 4.905-.998 5.114-3.277 3.437zm117.946-88.119c8.764-2.02 17.022-10.402 39.387-39.978 14.261-18.86 19-28.94 22.744-48.378 3.316-17.213 2.385-20.668-4.769-17.717-2.273.938-6.607 3.972-9.632 6.743l-5.5 5.039.896-5c1.493-8.33 4.654-13.455 9.222-14.951l4.119-1.35-3.908-3.724c-2.149-2.049-4.826-5.272-5.95-7.163-1.177-1.98-3.122-3.426-4.586-3.41-4.453.048-12.434 4.432-16.501 9.064-3.629 4.133-4.082 4.32-5.777 2.384-3.233-3.693-5.89-9.985-5.89-13.949 0-5.393 6.473-17.616 11.813-22.304 5.124-4.499 9.18-5.836 14.483-4.775 4.198.84 4.982-1.076 1.516-3.707-2.884-2.19-9.598-2.178-13.812.023-11.903 6.219-21.878 28.615-22.042 49.487-.098 12.588 2.755 19.91 12.308 31.578 4.412 5.39 5.798 8.062 5.503 10.614-.615 5.321-4.248 5.012-9.809-.833-2.673-2.81-5.637-5.11-6.586-5.11-2.074 0-8.374 11.144-8.374 14.811 0 1.429 1.125 5.451 2.5 8.94 2.556 6.484 3.361 15 1.419 15-2.736 0-7.56-5.521-11.354-12.996-5.209-10.263-4.903-14.233 2.207-28.706.291-.592-3.898-.858-9.309-.592-8.094.4-11.355 1.24-18.399 4.747-9.624 4.79-19.914 13.43-22.92 19.245-2.347 4.537-2.489 17.534-.267 24.402 5.48 16.938 17.19 29.581 30.288 32.7 5.856 1.396 20.665 1.322 26.98-.134m36.944-134.902c2.983-1.135 3.2-1.669 2.42-5.943-1.13-6.18-2.71-10.321-3.938-10.321-.545 0-3.03 1.385-5.522 3.08-5.09 3.457-10.263 12.82-9.082 16.434.425 1.298.994 3.095 1.265 3.992.348 1.152 2.12.511 6.036-2.182 3.048-2.098 7.018-4.375 8.82-5.06M183.83 222.6c8.627-2.866 9.065-3.752 6.521-13.211l-2.162-8.041-5.986-1.158c-8.38-1.622-12.087-.035-14.197 6.075-.934 2.704-2.536 5.842-3.56 6.973-2.411 2.666-2.357 3.562.713 11.768l2.573 6.877 5.017-3.635c2.76-1.999 7.746-4.54 11.081-5.648m-18.562-23.66c2.812-4.636 4.094-5.586 8.554-6.34 6.89-1.164 18.276.313 20.64 2.677 1.03 1.031 1.913 3.1 1.962 4.598.085 2.631.124 2.638 1.162.223 1.48-3.446 1.513-19.457.049-23.876-.661-1.993-2.038-10.236-3.06-18.317-2.576-20.375-3.038-21.14-14.112-23.353-16.328-3.264-18.504-.197-17.237 24.296.64 12.374.367 18.933-1.146 27.5-2.169 12.282-2.511 18.147-1.057 18.085.516-.021 2.426-2.493 4.245-5.493" style="fill:#000"/><path d="m192.296 171.876-6.993-1.266c.328 5.415-15.592-.358-15.981 1.516 0 0 5.461 1.149-1.048 1.149l3.345-5.743c.383 0 17.074 3.408 17.074 3.791s-16.731-3.963-17.074-3.791c-.484.242 7.09 1.414 6.849 1.898-.172.342-8.373.326-7.997.399 3.977.77 2.85 1.133 2.85.75s-2.638-1.069-2.85-.75c-.901 1.352 4.148 3.435-.792 3.067" style="fill:#000;fill-opacity:1;stroke:#000;stroke-width:4.4000001;stroke-linecap:butt;stroke-linejoin:miter;stroke-miterlimit:4;stroke-opacity:1;stroke-dasharray:none"/></svg>