<svg xmlns="http://www.w3.org/2000/svg" width="491.338" height="261.422" viewBox="0 0 491.338 261.422"><path d="M413.072 242.303c-4.813-.912-14.938-4.04-22.5-6.952-18.631-7.172-27.049-9.822-35.425-11.15-6.523-1.034-7.179.557-14.995 2.683-7.338 1.995-8.31 1.75-20.625 3.06-7.435.792-13.96-.083-23.851-.662-6.9-.404-23.493-.472-26.586-1.147-7.018-1.532-13.777-1.747-27.459-3.452-12.257-1.528-25.386.06-35.623-6.253-6.502-4.01-7.847-4.356-16.924-4.356-17.573 0-29.814-4.9-35.489-14.208-2.611-4.282-3.284-15.8-1.237-21.184 1.57-4.128-1.015-7.624-7.882-10.661-12.92-5.715-18.724-26.488-11.428-40.9l3.102-6.126-5.072-5.167c-6.394-6.516-7.947-12.5-5.576-21.49l1.708-6.473-8.03-4.264-8.416-1.943-11.778 3.02c-7.078 1.816-15.96 4.144-22.492 6.462-11.246 3.991-11.608 4.988-30.297 7.309-15.388 1.91-17.38-.254-23.104-3.125-7.93-3.979-11.218-9.39-11.09-18.257.126-8.652 3.97-16.237 12.153-23.976 9.23-8.729 16.219-11.888 40.384-18.255 19.259-5.074 30.51-8.761 36.311-11.902 1.222-.66 12.627-1.805 25.346-2.542s28.7-2.179 35.516-3.204c15.345-2.309 33.652-2.322 55.999-.04 18.693 1.908 25.203 1.425 41.417-3.072 9.42-2.612 10.151-2.642 18.55-.745 14.05 3.173 24.781 9.619 37.118 22.295 7.876 8.093 16.828 15.226 33.275 26.514 20.585 14.13 23.326 16.459 32.207 27.38 5.924 7.285 10.014 13.543 10.494 16.058 1.172 6.134 10.03 11.309 11.527 14.661.742 1.661 4.325 1.453 12.014 3.94 10.29 3.326 25.214 4.96 42.77 11.295 6.256 2.257 8.607.735 13.464 3.6 8.786 5.181 8.823 2.548 8.786 5.181-.073 5.127-6.243 7.319-12.344 7.319-1.716 0-3.654-5.079-17.451-7.771-13.408-2.617-17.69-4.683-30.293-6.994-9.879-1.81-10.695-2.374-17.808-4.318-3.129-.855-9.393-.867-9.518-.663s-2.064 4.515-4.07 8.21c-5.2 9.578-4.985 7.621-15.422 15.37-5.43 4.03-9.433 4.777-22.09 3.625-14.554-1.326-9.945-1.69-20.898-4.072-13.285-2.89-49.42-24.155-54.006-31.02-3.069-4.593-11.737-9.627-11.737-8.148 0 .498.904 2.652 2.008 4.788 1.445 2.794 1.863 6.163 1.49 12.007-.5 7.86-.342 8.384 4.868 16.152 5.885 8.777 6.933 14.962 3.619 21.371-2.652 5.128-13.94 13.523-24.485 18.21-28.782 12.793-33.34 14.988-35.577 17.128-5.74 5.495 5.539 7.939 28.059 9.798 19.024 1.57 26.348.996 44.003 2.823 12.154 1.257 16.873.654 30.78.732 18.097.103 29.106-5.884 38.06-11.143 5.985-3.515 9.336-5.643 19.015-5.643 14.366 0 .035 8.475.035 8.475l-10 4.16 6.538 3.643c3.36 1.872 13.841 4.036 19.873 5.645 13.96 3.724 14.235 4.775 44.509 12.262 13.81 3.415 22.603 3.262 22.603 3.262 4.835-2.706-3.103 7.038-4.063 8.574-2.772 4.43-27.2-2.937-41.959-5.734zM200.314 200.76c2.196-1.136 6.809-4.19 10.25-6.786 4.02-3.033 9.526-5.627 15.399-7.253 5.027-1.392 11.933-4.143 15.347-6.114l6.206-3.583-2.663-2.409c-3.098-2.804-6.156-8.32-6.156-11.103 0-3.063 7.131-2.568 8.125.564.437 1.375 2.735 3.98 5.107 5.79l4.314 3.29 5.914-3.697c5.381-3.364 5.883-4.084 5.56-7.978-.57-6.867-3.3-8.59-14.04-8.862-5.145-.13-11.886.487-14.98 1.371-3.094.885-8.45 2.403-11.905 3.374-3.453.97-12.501 2.215-20.106 2.764-13.786.997-13.856 1.018-24.382 7.473-5.806 3.56-11.786 6.474-13.288 6.474-3.325 0-4.771 2.527-7.06 12.336-2.165 9.281-1.391 10.553 7.99 13.137 13.738 3.782 24.562 4.214 30.368 1.212m-18.492-45.847c10.627-4.882 12.053-5.205 25.751-5.816 8.117-.362 15.271-1.281 16.25-2.088.962-.792 4.182-2.09 7.157-2.886l5.408-1.446-2.114-3.225c-1.498-2.287-1.932-4.83-1.492-8.738.756-6.703 1.16-7.163 5.36-6.108 2.97.745 3.232 1.257 2.538 4.956-.574 3.061-.135 4.936 1.706 7.276 1.363 1.734 2.122 3.508 1.687 3.944-.436.436 2.094.793 5.622.793 7.083 0 9.017-1.798 8.985-8.356-.034-7.062-1.356-9.02-8.42-12.477l-8.73-2.651-11.03.98-10.301 1.344-25.355-.951c-10.357-.39-8.723-.5-19.272-.027-13.955.627-25.156 4.054-30.406 9.305-2.848 2.848-3.014 3.702-2.37 12.209.776 10.278 1.91 13.11 6.439 16.077 3.529 2.312 15.024 4.534 18.837 3.64 1.375-.322 7.562-2.912 13.75-5.755m183.14-4.63c12.065-2.73 17.242-9.973 17.57-25.798l.243-11.776-6.074-8.81c-7.81-11.327-19.14-21.916-35.542-33.215-7.198-4.958-18.712-13.824-25.587-19.7-14.056-12.016-35.58-27.167-41.25-29.038-3.127-1.032-6.139-.408-18.125 3.755l-14.375 4.992-16.875-2.08c-22.835-2.815-31.489-2.728-34.272.348-1.187 1.312-3.76 7.91-5.717 14.664-6.217 21.456-11.584 23.19-38.449 12.433-8.954-3.585-10.312-3.848-10.312-1.991 0 2.576 4.884 10.001 7.5 11.402 1.031.553 9.187 3.333 18.125 6.179 20.764 6.61 30.802 7.505 42.923 3.824 13.85-4.207 16.493-7.772 18.005-24.294.318-3.485.369-3.459 4.809 2.512 2.468 3.318 5.468 8.986 6.667 12.596s3.22 7.12 4.493 7.8c4.13 2.211 12.875 4.03 25.835-.333 16.229-5.464 17.376-4.821 26.698-4.171 10.35.722 8.952-.245 4.119 4.173-2.83 2.586-2.998 4.07-5.898 4.07-9.078 0-17.585 2.416-20.602 5.85-7.273 8.282 1.83 26.529 21.099 42.293 25.427 20.804 51.066 29.73 74.992 24.315m-195.41-38.932c13.414-.932 14.088-.52 26.335-.936 11.461-.39 11.05 1.273 21.872-.232 6.016-.837 10.938.913 10.938.772s-.6-1.979-1.334-4.083c-1.194-3.425.119-16.999 1.807-18.687.265-.265 1.965-.11 3.779.345 3.145.79 3.26 1.105 2.495 6.868-.44 3.322-.42 8.067.044 10.546.705 3.754 1.255 4.376 3.297 3.728 1.348-.428 4.383-.14 6.745.639 3.106 1.025 4.995 1.042 6.827.062 4.339-2.322 5.347-5.827 4.448-15.46l-.837-8.963-8.51.41c-9.805.473-14.948-1.487-20.243-7.713l-3.357-3.947-4.152 4.013c-3.419 3.305-6.545 4.59-17.697 7.278-15.38 3.706-15.93 3.669-38.499-2.644-8.402-2.35-16.481-4.272-17.952-4.272-5.537 0-10.588 9.587-10.604 20.127-.01 5.578 4.184 11.982 9.797 14.963 4.646 2.468.19 4.473 18.242-2.085zM64.947 85.193c44.422-16.087 45.55-13.883 56.074-12.342 6.346.93 10.951 3.13 13.845 1.3 1.453-.92.934-2.089-2.73-6.143-9.072-10.043-9.314-20.785-.755-33.684 1.961-2.957 3.566-5.534 3.566-5.728s-6.328.669-14.063 1.916c-14.874 2.398-30.56 7.715-26.158 8.866 3.833 1.003 6.964 12.131 6.002 21.335-.433 4.143-.967 7.714-1.188 7.934s-2.252.77-4.515 1.223c-3.684.737-4.033.567-3.335-1.63.428-1.349.864-5.791.97-9.872.23-8.934-3.882-18.604-7.46-17.545-1.17.346-12.253 3.55-24.628 7.12s-23.984 7.528-25.798 8.796c-4.415 3.087-10.686 13.128-11.72 18.766-1.736 9.463 4.434 13.506 20.643 13.523 8.75.01 12.5-.667 21.25-3.835m106.346-35.048c2.15-4.017 8.721-23.92 8.102-24.54-.296-.295-6.66.926-14.143 2.715-7.483 1.79-15.403 3.254-17.599 3.254-3.163 0-4.507.844-6.47 4.062-1.362 2.235-2.33 4.51-2.15 5.056.395 1.204 25.663 11.753 28.682 11.974 1.18.087 2.789-1.048 3.578-2.521" style="fill:#000"/></svg>