<svg xmlns="http://www.w3.org/2000/svg" width="504.174" height="234.91" viewBox="0 0 504.174 234.91"><path d="M246.907 218.89c-3.464-.63-9.489-2.557-13.389-4.281l-7.09-3.136-8.428 3.172c-7.501 2.823-9.052 3.018-14.112 1.769-7.064-1.744-17.547-8.53-21.807-14.115-2.26-2.961-3.656-7.04-4.691-13.695-1.395-8.974-1.712-9.613-5.955-12.013-5.834-3.301-14.603-12.368-16.283-16.837-1.677-4.462-1.693-10.97-.038-15.323.707-1.86 1.014-3.651.683-3.982s-7.59 3.324-16.927 4.592c-16.25 2.205-9.577.724-27.245 4.372l-10.92 2.255-25.078 5.202c-16.506 3.423-25.238 4.883-28.779 4.866-7.201-.036-16.445-.086-23.674-6.75-8.255-7.608-11.117-13.658-11.173-23.615-.08-14.028 9.283-29.264 19.458-31.662 2.984-.703 3.317-1.44 4.01-8.851 1.014-10.86 5.217-18.689 14.798-27.559 9.383-8.686 23.374-15.763 38.562-19.503 5.844-1.44 18.782-6.334 28.75-10.877 17.499-7.974 21.563-7.206 31.52-9.682 16.512-4.107 4.918-.94 16.512-4.107 20.313-5.548 32.733-3.877 44.653-4.154 29.28-.68 26.023.41 60.733-2.02 20.507-1.437 28.326-.956 30.926-.468 5.494 1.03 52.078 19.893 66.02 30.74 12.323 9.587 14.386 11.005 28.807 28.382 9.592 11.557 23.243 27.613 29.852 30.357 2.823 1.173 20.475 4.018 26.299 4.7 13.138 1.538 12.857 1.75 22.924 3.237l16.35 2.414-3.895 5.293c-3.086 4.193-6.503 3.68-12.437 3.229-6.032-.459-10.432-2.224-13.87-3.17-3.437-.948-12.654-1.337-22.229-3.494-13.767-3.103-6.605-1.096-19.494-3.42-4.542-.819-7.877-.262-8.558 1.675-5.28 15.033-9.417 19.051-17.735 27.856-10.55 11.167-18.228 14.467-41.95 12.186-20.963-2.016-23.41-4.903-42.274-22.345l-11.47-10.605-.875 6.016c-.48 3.308-1.804 7.435-2.941 9.17-2.406 3.672-2.656 3.333 3.832 5.192 11.54 3.307 15.418 14.305 9.785 27.748-1.246 2.973-4.122 5.843-8.972 8.952-9.23 5.918-13.94 7.788-24.638 9.783-4.812.897-13.461 4.253-16.211 5.202-5.285 1.822-18.164 9.778-18.164 11.332 0 .504 1.828 1.914 4.063 3.135 3.216 1.757 6.928 4.67 17.812 4.629 12.947-.05 19.151-.717 37.106-.747 27.073-.046 23.635-1.236 42.486-1.957 8.923-.341 19.777-2.87 22.43-2.87 6.078 0 11.231-3.187 24.755-12.41 7.056-4.813 13.9-8.084 15.27-7.491 1.116.484 5.158-1.857 7.852-1.44l.591 3.832-2.466 1.509c-3.838 2.347-9.305 6.831-12.399 9.576l-5.625 4.992 4.306 3.155c7.844 5.748 26.17 6.545 36.252 6.382 8.587.921 20.64.514 34.081-1.696 0 0-1.453.322-1.522 4.074l2.12 7.319-16.756-.321c-20.735-.398-19.689-.864-30.302-1.18-16.845-.504-17.931-2.445-28.341-6.124l-10.798-2.495-8.133.41c-11.184.563-8.418 1.116-26.32 3.11-15.96 1.78-14.012 1.78-15.96 1.78-9.948 0-14.871.37-26.29 1.063-17.04 1.034-19.717-.155-35.225.358-8.724.288-18.696.009-22.16-.621m-26.142-17.316c5.354-2.822 10.304-4.72 15.136-8.356 4.832-3.635 14.875-7.225 15.925-7.225 4.63 0 26.12-11.093 31.598-13.46l6.03-2.605-6.075-3.109c-4.69-2.4-6.513-4.225-7.997-8.004l-1.923-4.896-6.378-2.467c-3.286-1.27-13.806-.379-21.025 1.948-16.557 5.337-25.067 7.676-37.227 15.428-5.156 3.287-11.833 7.225-14.837 8.75l-5.461 2.773.596 6.207c.689 7.17 4.51 11.996 12.706 16.051 5.925 2.932 5.933 5.816 18.932-1.035m21.084-55.513c9.625-2.828 22.913-3.04 26.847-4.84l5.758-2.634-3.928-1.095c-5.032-1.404-15.895-11.142-17.943-16.084-1.32-3.19-1.247-4.668.46-9.137 2.849-7.46-.508-5.372-7.584-3.277-11.747 3.477-5.902-1.81-26.148 8.47-71.893 36.504-46.129 14.813-52.419 24.99-3.107 5.027-3.707 10.287-.558 14.29 3.215 4.088 14.361 9.654 19.332 9.654 2.226 0 11.998-2.27 20.663-6.658 20.995-10.517 30.422-12.217 35.52-13.679m56.98 10.898c0-6.323-2.974-8.501-10.405-7.621-3.401.402-6.49 1.038-6.863 1.412s.227 2.581 1.336 4.907c1.503 3.15 3.39 4.695 7.412 6.066 6.494 2.214 8.52 1.08 8.52-4.764M68.5 148.554c10.369-2.174 14.809-4.945 15.474-5.61 2.073-2.073.59-20.473-1.739-25.527-2.027-4.399-2.304-4.553-6.193-3.437-2.24.642-7.534 1.168-11.766 1.168-6.155 0-9.14-.76-14.922-3.803l-7.229-3.802-5.71 2.917c-7.452 3.807-13.837 12.985-13.837 19.891 0 5.805 2.188 10.43 7.076 14.96 9.706 8.995 17.14 7.795 38.846 3.243m310.692-5.788c14.758-7.529 28.014-27.39 24.178-41.283-3.487-12.628-27.787-40.732-54.147-58.515-17.138-11.561-19.06-12.56-19.783-10.28-.44 1.39-2.082 3.366-3.648 4.391-2.62 1.717-4.311 1.404-21.254-3.927l-18.408-5.793-19.589 5.674c-10.773 3.12-26.9 7.74-35.838 10.267-8.937 2.527-18.5 5.89-21.25 7.475s-10.552 8.138-17.338 14.564l-12.338 11.684 5.748 6.967c7.835 9.499 9.988 14.903 8.353 20.972-.7 2.598-2.544 5.91-4.098 7.36-4.083 3.81-23.338 12.826-27.39 12.826-10.2 0-16.745-9.573-21.614-31.614-1.4-6.336-3.563-2.331-2.87 5.313 1.354 14.925 12.537 28.8 23.213 28.8 2.016 0 12.304-.506 21.104-4.152 33.502-13.884 11.67-6.648 27.14-11.27 7.736-2.31 16.517-5.119 18.062-5.727 4.63-1.82 10.213-6.56 21.355-10.736 21.814-8.176 15.014-6.25 21.814-8.176 2.753-.78 11.422-1.78 17.61-1.263 14.921 1.248 20.192.607 15.272 3.648-.743.46-1.257 5.81-6.03 6.251l-8.68.8 14.176 16.25c15.1 17.312 20.213 21.863 28.856 25.686 14.665 6.487 38.534 8.328 47.394 3.808m-249.996-6.97c6.047-1.564 11.3-3.15 11.676-3.525s-1.655-4.615-4.511-9.423c-6.806-11.455-10.416-21.097-9.54-25.479.382-1.909.441-3.471.13-3.471-.585 0-33.88 14.635-39.373 17.307-1.719.836-2.175 1.252-1.014.925 4.424-1.247 8.016 14.87 5.525 24.795l-.885 3.53 13.5-.908c7.424-.5 18.446-2.188 24.492-3.751m157.78-8.193c1.615-3.122 1.732-5.044.66-10.84-1.546-8.365-3.789-12.128-9.188-15.42-3.844-2.344-14.876-3.5-14.392-1.508.125.516-.435 3.188-1.243 5.938-3.384 11.505-.962 16.92 10.015 22.39 8.645 4.308 11.693 4.188 14.148-.56m-115.823-17.505c12.838-6.92 12.46-6.102 7.32-15.847-5.124-9.714-7.297-11.64-10.719-9.503-1.283.8-5.784 2.135-10.004 2.966-8.613 1.694-8.875 2.208-5.762 11.344 1.983 5.82 8.559 14.84 10.819 14.84.713 0 4.469-1.71 8.346-3.8M80.27 98.704c6.426-2.169 20.403-7.545 31.06-11.947 16.933-6.994 20.9-8.153 31.488-9.197 23.606-2.326 38.616-9.662 50.183-24.525 8.93-11.475 12.788-13.429 38.953-19.73 10.313-2.484 22.674-5.735 27.47-7.225 7.425-2.306 8.26-2.837 5.625-3.57-6.114-1.704 9.263 2.211-23.468 2.236-10.163.008 0 0-19.636.22-29.048.327-32.434-1.85-46.24 3.626-10.547 4.182-14.455 5.078-25 5.73-12.223.756-12.89.96-30 9.207-9.626 4.638-17.712 8.564-17.97 8.724s.445 2.576 1.563 5.368 2.031 8.455 2.031 12.583c0 6.907-.256 7.603-3.206 8.725-1.764.67-3.451 1.219-3.75 1.219-.3 0-.544-3.43-.544-7.624 0-6.99-2.46-15.182-5.04-16.776-1.387-.858-22.05 6.519-28.19 10.065-9.007 5.2-18.02 18.159-18.02 25.909 0 11.438 11.936 13.988 32.691 6.982m242.173-70.267c1.148-1.384-.636-2.698-9.312-6.861-9.641-4.626-11.242-5.036-15.74-4.025-2.753.618-5.24 1.358-5.524 1.642-.411.412 25.343 10.218 28.372 10.803.431.084 1.423-.618 2.204-1.56" style="fill:#000"/></svg>