<svg xmlns="http://www.w3.org/2000/svg" width="285.687" height="499.612" viewBox="0 0 285.687 499.612"><path d="M51.936 480.097c1.8-3.57 3.653-8.576 5.318-14.32 2.803-9.673 3.977-10.515 3.61-31.876-.219-12.686-1.357-32.127-2.17-41.683l-4.386-16.004-8.443-25.704c-4.478-13.632-11.863-18.574-12.915-24.507l-2.512-14.162-1.5-22.842c-.711-10.834-2.105-44.418-3.22-59.988-1.283-17.935-.173-17.27-2.476-34.54l-1.952-14.634-1.061-13.921c-3.387-44.418-8.23-70.208-7.4-84.857 2.046-36.087-.01-42.446 2.787-48.794 3.083-6.998 10.826-14.813 18.096-18.262C36.033 12.9 40.862 12 44.443 12c6.334 0 6.71.208 13.86 7.628 8.652 8.981 9.001 10.055 11.735 36.122 1.117 10.656 3.735 26.969 5.818 36.25 2.171 9.68 4.046 22.205 4.395 29.375.768 15.731 1.276 17.403 3.806 12.5 4.379-8.486 6.814-9.865 22.247-12.6 17.791-3.152 24.145-1.672 27.026 6.296l1.572 4.346 4.492-8.396c6.15-11.495 11.495-14.218 29.477-15.018 11.418-.508 13.502-.261 18.576 2.195 3.143 1.522 6.884 4.408 8.312 6.414l2.597 3.647 6.214-6.8c7.382-8.077 11.994-9.893 24.514-9.655 10.742.204 15.722 2.034 22.707 8.345 4.754 4.295 5.138 5.124 5.138 11.092 0 13.522 2.722 28.062 8.682 46.384 5.464 16.8 6.203 20.44 7.106 35 1.785 28.81 1.326 35.987-3.235 50.625-3.924 12.591-4.122 14.23-4.884 40.272l-.794 27.146-6.875 6.994c-3.78 3.847-13.898 12.444-22.482 19.104-18.224 14.14-24.362 20.222-30.592 30.315-9.227 14.95-8.91 29.271 1.626 73.271 6.29 26.272 6.797 32.898 2.516 32.898-5.342 0-10.775-3.448-12.119-7.692-4.386-13.848-8.305-36.618-11.53-66.996-.82-7.734 2.252-19.936 2.042-19.936s-2.496.556-4.282 1.235c-8.938 2.65-17.215 4.937-27.585 3.712-10.881-3.232-27.843-9.987-38.953-30.323-9.11-16.674-10.72-25.64-5.913-39.908 2.88-8.55 8.646-21.018 14.915-26.912 7.474-7.027 3.297-9.102-6.16-7.912-10.665 1.341-14.994.538-21.152-3.922-6.054-4.386-7.401-8.996-12.197-41.742-1.92-13.108-4.78-26.915-6.95-33.556-3.88-11.872-5.858-25.828-9.277-65.423-1.068-12.375-3.316-29.531-4.995-38.125-1.678-8.594-3.678-19-4.444-23.125-.765-4.125-1.828-16.219-2.36-26.875-.732-14.613-1.515-20.45-3.19-23.75-3.742-7.377-5.56-8.75-11.582-8.75-11.48 0-14.961 9.616-18.291 30.57-.914 5.748.015 9.971-.532 16.94-1.494 19.02 1.378 39.4 2.17 51.877.25 3.923 2.946 23.384 4.963 31.977.984 15.056 2.992 20.508 5.347 31.973-.523 3.438 2.95 9.1 2.926 9.788-.024.687 1.265.55 3.664.895 6.688.958-.823 6.416-3.917 9.565-5.13 5.22-4.348 4.565-3.751 7.55.368 1.839 1.354 8.382 2.192 14.541.837 6.16 1.68 11.394 1.87 11.632s2.778-1.23 5.748-3.262c8.427-5.765 13.438-7.992 16.088-7.151 4.463 1.416 2.78 5.31-4.235 9.796-3.67 2.348-8.71 6.756-11.202 9.796l-4.53 5.528-.985 17.601c-.542 9.68-.66 23.43-.263 30.555l4.97 23.412 4.878 9.117c8.674 16.214 8.12 18.717 10.558 24.458 3.898 9.179 4.276 8.24 6.888 18.498 2.63 10.326 3.133 14.482 5.254 17.461 2.923 4.105 4.863 2.107 19.474-.101 3.081-.466 4.297-.04 5.313 1.858 1.796 3.355-1.607 6.046-3.513 5.407-.86-.288-.794 3.592-4.545 3.037-9.424-1.394-9.765 2.26-11.265 2.266-3.901.018-5.021 3.586-5.356 27.072-.2 14.076-.64 21.662-2.043 27.585-1.14 4.813-1.384 16.013-1.384 16.013 2.74.524-4.835 2.496-9.727 2.496-1.39 0 1.926-2.937.58-1.734-2.066 1.846-10.434 2.81-7.673-2.67m120.443-95.159c7.466-2.315 14.033-4.493 14.592-4.838.559-.346 1.385-2.308 1.836-4.36 2.449-11.152 32.96-25.808 49.234-44.154l13.43-10.072 1.667-26.59c1.254-19.988 1.329-31.703 3.952-40.265 3.027-9.88 3.59-13.876 3.59-25.49v-13.774l-5.907-7.01c-3.248-3.856-9.152-10.18-13.119-14.055-6.044-5.903-8.176-7.188-13.156-7.931-3.269-.488-7.859-1.685-10.2-2.66l-4.256-1.773-9.494 9.85c-9.73 10.094-16.07 13.657-21.76 12.23-1.518-.382-5.698-3.57-9.288-7.085-6.77-6.63-10.32-14.575-10.32-23.093 0-6.661 9.084-17.583 22.259-26.76 2.274-1.585 3.88-3.135 3.57-3.446-.978-.977-18.334 4.771-20.28 6.717-3.2 3.2-5.2 8.174-7.184 17.87-1.808 8.836-1.78 9.767.478 16.193 3.295 9.375 8.592 14.3 27.732 25.783 18.792 11.275 26.727 17.216 31.702 23.738 3.37 4.42 3.407 4.628 1.115 6.304-1.304.953-3.884 1.733-5.733 1.733-2.95 0-3.54.701-4.801 5.714-.792 3.142-2.115 11.366-2.941 18.276-1.739 14.535-3.218 16.2-8.634 9.712l-3.534-4.233v5.294c0 4.468-.806 6.168-5.176 10.909-5.878 6.377-20.352 14.134-28.382 15.21-4.863.653-5.609.32-11.394-5.092-3.405-3.184-6.649-5.79-7.21-5.79-4.37 0-13.663 10.762-22.073 27.032-6.252 12.094-9.537 21.684-3.4 33.336 10.147 19.266 22.158 28.985 30.112 33.092 4.324 2.233 4.728 5.137 22.973-.522M176 283.653c2.657-1.84 5.5-4.512 6.318-5.937.991-1.727 1.51-10.097 1.557-25.091.038-12.375.483-23.39.99-24.476.69-1.48-.853-3.153-6.156-6.674-12.093-8.029-17.566-14.02-24.468-26.781-7.477-13.825-7.83-16.93-4.076-35.832 1.678-8.45 3.027-11.961 5.81-15.132 5.408-6.16 15.699-10.729 24.978-11.091 4.433-.173 7.943-.912 8.216-1.729.261-.784-2.526-2.823-6.194-4.53-7.968-3.71-21.381-4.313-27.344-1.23-8.46 4.375-12.406 19.503-12.432 47.648-.016 17.638.36 21.486 2.998 30.625 6.548 22.687 6.846 24.398 5.219 29.91-1.217 4.121-1.175 6.773.212 13.462 1.626 7.839 1.58 10.28-.4 21.678-1.03 5.917 1.268 12.807 5.337 16.007 4.785 3.765 13.335 3.4 19.435-.827m-20.32-24.687c0-7.522 8.86-12 19.375-9.793 4.451.934 5.044 1.49 5.392 5.063.432 4.426.71 4.311-9.767 4.042-5.375-.138-7.476.385-9.635 2.398-3.926 3.661-5.365 3.203-5.365-1.71m-25 15.61c1.72-1.2 4.358-3.99 5.864-6.203 2.591-3.806 2.714-5.106 2.295-24.26-.244-11.13-1.06-22.207-1.814-24.613-2.25-7.178-6.4-33.236-7.653-48.045-1.51-17.84-4.376-30.876-7.533-34.266-2.062-2.212-3.927-2.689-10.523-2.689-11.455 0-13.498 1.33-19.36 12.597-8.944 17.192-9.424 34.967-1.6 59.278 3.78 11.743 4.658 16.808 6.018 34.698 2.131 28.022 4.491 33.019 16.958 35.905 5.73 1.326 13.558.242 17.348-2.403m-28.27-24.378c-2.464-6.421 4.066-11.125 16.3-11.743 9.857-.498 14.47.965 14.47 4.589 0 3.868-2.755 5.206-10.722 5.206-4.247 0-9.742.844-12.21 1.875-5.591 2.336-6.964 2.35-7.837.073m97.852-12.885c-2.532-3.478-3.327-1.014-3.226 10l.105 11.562 2.13-10c1.323-6.216 1.698-10.591.99-11.562m-4.862-56.833c4.623-4.273 8.569-8.137 8.768-8.587.275-.62-5.19-10.552-8.146-14.805-.205-.295-2.295.38-4.645 1.501-4.639 2.212-14.447 14.194-14.447 17.65 0 4.707 5.409 11.828 9.095 11.973.532.02 4.751-3.458 9.375-7.732m55.938-8.793c-3.215-9.297-6.135-20.89-7.435-29.514-3.247-21.545-2.096-20.173-16.929-20.173h-12.518l-4.435 6.679c-7.755 11.68-7.3 15.425 3.784 31.19 4.409 6.271 5.814 7.352 11.875 9.137 8.845 2.604 19.29 8.147 25.625 13.598 2.75 2.366 5.074 4.323 5.163 4.35.09.025-2.219-6.845-5.13-15.267M36.894 121.283c-.668-1.757-1.215-3.994-1.215-4.97 0-2.73 14.11-9.312 19.961-9.312 4.502 0 5.208.428 6.699 4.062l1.666 4.063-6.35.76c-3.772.45-9.03 2.35-12.948 4.675l-6.598 3.917z" style="fill:#000"/></svg>