<svg xmlns="http://www.w3.org/2000/svg" width="283.498" height="511.261" viewBox="0 0 283.498 511.261"><path d="M72.175 497.665c-3.505-1.774-3.43-1.41-6.988-33.598L63.02 444.48l-5.114-3.618c-5.148-3.642-7.678-6.958-16.207-21.24-5.079-8.505-7.839-16.276-11.888-33.468-5.567-23.638-15.379-68.94-15.838-73.125-3.13-28.532-3.007-29.967 3.815-44.512l4.168-8.886 14.556-7.08c16.592-8.068 17.256-8.92 18.678-23.979.458-4.857 1.654-11.556 2.656-14.886s1.822-7.406 1.822-9.058c0-4.406 5.564-15.423 10.168-20.132 5.803-5.936 17.204-12.226 24.007-13.246l5.896-.885-.746-40.855c-.723-39.56-3.157-78.08-5.584-88.356-3.068-12.986-.58-20.276 8.475-24.84 7.967-4.014 13.003-4.952 21.137-3.935 6.25.78 7.429 1.47 13.594 7.94 3.713 3.897 6.762 7.753 6.777 8.569.014.816 3.047 12.91 6.74 26.875 4.893 18.5 7.822 33.193 10.794 54.141 2.243 15.813 4.235 28.936 4.426 29.163.192.226 2.507-.722 5.145-2.107s9.927-3.69 16.198-5.122c10.794-2.465 15.473-2.442 15.473.075 0 .614.844 1.116 1.875 1.116s1.875-.148 1.875-.33c0-.181 1.135-3.416 2.522-7.187 1.502-4.085 2.778-11.407 3.156-18.108 1.932-34.24 3.406-45.651 7.314-56.61 3.668-10.287 4.194-11.05 9.508-13.796 10.266-5.306 25.578-1.993 34.594 7.484 7.737 8.133 8.486 12.087 8.485 44.797 0 16.156-.694 35-1.541 41.875s-2.396 20.094-3.442 29.375c-2.399 21.3-5.02 42.412-7.06 56.875-.93 6.594-1.65 25.476-1.74 45.625-.088 19.78-.787 38.356-1.647 43.75-1.135 7.125-1.168 15.854-.136 36.36 2.34 46.524-.58 59.175-17.457 75.616l-6.473 6.306 2.116 5.29c2.2 5.496 2.198 5.798-.23 44.287-.746 11.837-.886 12.293-4.308 14.062-1.945 1.006-3.934 1.83-4.42 1.83s-.541-11.898-.124-26.439c.62-21.562.425-27.238-1.054-30.777-3.378-8.085-2.497-11.418 4.855-18.362 7.91-7.471 13.312-15.229 16.57-23.798 2.15-5.654 2.39-10.184 2.51-47.5.088-27.313.618-42.725 1.568-45.616.788-2.402 1.434-4.512 1.434-4.688s-1.688-.32-3.75-.32-3.75-.293-3.75-.65 1.406-2.878 3.125-5.6c1.719-2.723 3.125-5.333 3.125-5.8s-2.141-3.712-4.758-7.212c-12.742-17.042-21.492-34.634-21.492-43.208 0-4.349-.335-4.434-7.5-1.906-6.142 2.167-13.75 2.478-13.75.561 0-1.173 1.852-2.138 10.625-5.535 2.042-.79 1.394-1.263-3.543-2.582-3.324-.887-6.31-1.88-6.637-2.207s2.506-2.367 6.294-4.534c5.375-3.075 6.693-4.41 5.998-6.072-1.852-4.43-6.837-13.284-8.308-14.755-.842-.842-4.551-7.594-8.243-15.003-7.218-14.49-8.189-20.417-5.659-34.56 1.021-5.707.948-5.938-1.889-5.938-1.623 0-6.847 1.529-11.609 3.397-8.16 3.201-8.817 3.758-11.444 9.697-5.768 13.043-11.437 41.87-10.05 51.112.761 5.081 1.573 6.265 6.728 9.815l5.862 4.038-3.438 1.212c-3.81 1.343-3.899 1.708-2.163 8.854.668 2.75 2.376 10.625 3.796 17.5 4.132 20.017 3.945 19.675 15.177 27.745 26.797 19.253 28.388 22.598 5.304 11.155-7.795-3.863-14.933-7.025-15.862-7.025-3.339 0-4.69 3.087-4.69 10.719 0 4.245-.348 9.46-.773 11.59-1.024 5.118-7.802 12.743-11.726 13.19-1.719.197-5.18 1.238-7.692 2.315-4.377 1.876-4.568 2.218-4.615 8.232-.07 8.968-2.097 15.336-6.425 20.184-4.23 4.737-4.605 7.936-2.288 19.474 2.039 10.152 8.512 21.181 17.004 28.973 3.928 3.603 6.645 6.556 6.04 6.562-.607.006-6.034-2.81-12.061-6.26-9.537-5.457-11.24-6.957-13.122-11.562-3.392-8.299-4.51-13.284-5.394-24.042l-.822-10-5-1.06c-14.953-3.168-28.652-13.572-44.279-33.627l-6.574-8.438-8.949.025c-4.921.014-12.587.551-17.034 1.194-6.03.871-8.324.786-9.02-.338-1.027-1.652 4.306-3.215 19.918-5.836 13.8-2.317 11.93-4.616-6.562-8.066-11.802-2.202-21.875-5.334-21.875-6.801 0-.476 3.234-.852 7.187-.834 6.514.028 7.225-.233 7.587-2.781.22-1.547.656-2.813.969-2.813 1.912 0 19.49 9.792 24.793 13.81 6.716 5.09 8.63 7.086 14.276 14.879 6.26 8.642 27.666 27.561 31.184 27.561.597 0 .866-2.953.6-6.562-.61-8.238 2.266-13.286 9.507-16.694l5.14-2.42-7.211-12.474c-8.995-15.56-22.997-35.225-31.8-44.662-6.24-6.692-7.088-7.186-12.28-7.16-6.234.03-14.565 3.372-20.175 8.093-2.045 1.721-4.481 3.13-5.413 3.13-2.3 0-6.71 6.419-7.656 11.144-.545 2.729-1.484 3.855-3.214 3.855-2.081 0-2.317-.573-1.592-3.874.796-3.624.66-3.818-2.088-2.994-1.617.484-4.61 1.828-6.653 2.986-4.8 2.72-7.977 12.727-9.012 28.379l-.751 11.372 4.103-.602c2.859-.42 3.838-.172 3.228.815-.482.78-1.618 1.418-2.525 1.418-5.155 0-4.935 5.57 1.111 28.125 3.49 13.021 7.328 29.753 12.537 54.656 3.4 16.255 5.37 20.804 14.679 33.89 6.645 9.342 11.328 14.108 15.028 15.295 2.314.742 3.686 4.499 3.73 10.204.013 1.9.814 8.597 1.778 14.882 2.626 17.121 3.876 36.702 2.342 36.68-.706-.01-2.688-.729-4.403-1.596m63.992-164.636c3.303-5.359 3.394-5.915 1.922-11.75-1.82-7.216-3.95-8.897-9.867-7.788-7.059 1.325-10.697 11.371-6.822 18.84 4.385 8.452 9.83 8.71 14.767.698m22.798-29.163c3.39-2.479 3.47-17.497.124-23.713-2.812-5.225-4.872-6.389-8.179-4.62-1.28.686-3.407 1.246-4.726 1.246-1.32 0-3.818 1.314-5.55 2.92-2.99 2.77-3.092 3.298-1.994 10.312 1.3 8.307 3.624 12.629 7.664 14.256 4.12 1.66 10.103 1.47 12.66-.4m-20.546-29.723c2.406-1.937 7.29-4.263 10.854-5.171l6.479-1.65-1.976-4.334c-6.548-14.361-8.047-17.727-11.678-26.209-2.207-5.156-5.543-11.625-7.415-14.375-1.87-2.75-9.205-13.86-16.297-24.687l-12.895-19.688h-7.146c-6.125 0-8.103.642-13.848 4.491-8.3 5.561-12.328 9.874-12.328 13.198 0 1.403-1.052 4.043-2.338 5.868-3.704 5.256-6.412 16.638-6.412 26.948 0 8.455.257 9.495 2.347 9.495 3.514 0 4.95-2.508 5.385-9.407l.393-6.218 15.105 15c18.838 18.708 29.729 32.64 43.645 55.834l2.5 4.166.625-9.87c.6-9.47.803-10.014 5-13.391m-20-22.206c-2.75-.79-2.85-1.003-.835-1.778 1.259-.484 3.592-.88 5.185-.88s6.161-1.717 10.152-3.817c6.207-3.265 6.903-3.425 4.815-1.11-1.343 1.49-2.442 3.911-2.442 5.38 0 2.38-.753 2.696-6.875 2.887-3.781.119-8.281-.189-10-.682m130 2.518c0-2.813-2.397-5.176-5.25-5.176-2.932 0-2.841 1.412.35 5.469 2.74 3.484 4.9 3.355 4.9-.293m-89.352-10.248c1.936-6.1-4.552-20.917-8.572-19.579-2.558.852-2.305 4.317.815 11.131 1.673 3.655 3.377 7.63 3.786 8.833 1.005 2.953 2.972 2.762 3.97-.385m91.078-6.653c.41-1.637 1.311-13.59 2.002-26.563s1.606-28.091 2.036-33.597l.78-10.01-7.96-2.707c-18.317-6.23-35.944-13.538-34.98-14.502 2.237-2.237 19.612-1.01 32.413 2.29 7.09 1.826 13.14 3.074 13.442 2.771 2.167-2.166 5.543-42.595 5.537-66.295-.005-19.57-2.134-35.643-5.314-40.109-3.244-4.555-9.211-7.054-16.83-7.048-9.648.007-13.14 2.972-16.37 13.9-2.378 8.038-5.153 31.088-5.212 43.283l-.02 4.062 12.812.055c15.06.064 22.892 1.354 25.748 4.243 1.928 1.95 1.403 2.023-7.935 1.083-22.607-2.274-31.858-.291-31.891 6.836-.01 1.874-1.456 7.908-3.215 13.408-1.76 5.5-3.654 12.25-4.209 15s-2.51 11.549-4.344 19.553l-3.334 14.552 7.1 11.073c3.905 6.09 8.804 13.603 10.887 16.697s5.358 10.969 7.279 17.5c4.167 14.171 7.1 17.5 15.411 17.5 4.666 0 5.524-.414 6.167-2.975m-101.119-23.732c2.091-1.53 2.162-2.125.68-5.7-3.074-7.425.443-41.373 5.268-50.837 3.203-6.28 2.388-8.767-3.725-11.378-4.355-1.86-5.634-1.842-17.205.228-6.875 1.23-14.716 2.51-17.424 2.844-6.948.858-9.358 4.223-9.41 13.138-.05 8.63 1.708 11.773 15.188 27.162 9.42 10.754 18.52 23.108 18.52 25.14 0 1.716 5.498 1.311 8.108-.597m96.893-55.793c-6.058-3.2-15.681-5.264-13.261-2.844 1.782 1.782 13.945 6.377 17.01 6.426 2.433.04 1.601-.755-3.75-3.582m-44.122-7.272c.622-4.64.462-5.017-1.868-4.408-3.128.818-4.56 5.817-2.675 9.34 1.868 3.49 3.676 1.527 4.543-4.932m-47.136-15.332c.004-1.776-.536-6.276-1.201-10s-2.088-12.677-3.163-19.896c-3.078-20.678-2.046-18.875-10.341-18.077-14.528 1.398-26.882 3.288-29.61 4.531-2.609 1.189-2.862 2.335-3.616 16.358-1.056 19.632-1.026 29.056.094 30.177.498.498 11.463.732 24.368.52l23.462-.384zm-19.055-52.637 9.063-1.352-.008-4.516c-.027-16.222-9.215-49.287-15.203-54.706-1.6-1.447-5.08-2.366-10.173-2.684-7.332-.458-8.06-.24-13.755 4.123l-6.013 4.606.8 7.073c1.55 13.695 5.618 37.299 7.549 43.802l1.953 6.578 8.362-.786c4.6-.433 12.44-1.395 17.425-2.138M89.981 296.35c.243-.795 3.704-3.014 7.692-4.93 5.768-2.773 7.619-3.18 9.051-1.991 2.158 1.791 1.244 2.756-4.555 4.805-8.19 2.895-12.664 3.671-12.188 2.116" style="fill:#000"/></svg>