<svg xmlns="http://www.w3.org/2000/svg" width="387.383" height="526.119" viewBox="0 0 387.383 526.119"><path d="M184.168 512.631c-3.002-2.452-6.63-31.925-5.509-44.765.834-9.557 7.156-37.481 13.124-57.965 1.389-4.768 2.37-8.824 2.18-9.013s-5.664 1.374-12.165 3.476c-14.996 4.848-28.408 5.97-36.938 3.09-8.426-2.847-17.41-9.73-21.866-16.757-4.128-6.507-9.899-23.439-10.275-30.144-.219-3.914.194-4.482 4.474-6.141 2.594-1.006 5.064-1.48 5.49-1.054s2.122 6.835 3.768 14.243c1.647 7.407 4.007 14.874 5.246 16.593 3.064 4.252 10.381 8.12 20.355 10.76 8.16 2.159 8.542 2.149 19.375-.512 12.526-3.077 42.65-17.397 58.023-27.583 5.352-3.546 14.326-11.968 25.743-18.981 14.488-8.9 6.709-3.788 24.09-10.89 1.951-.796 4.71-2.46 14.257-5.04 11.97-3.236 17.073-4.307 20.7-6.225 1.502-.794 11.447-5.882 17.682-9.177 14.447-7.634 11.862-5.697 20.618-8.27 3.331-.978 6.988-4.757 7.813-5.582 4.721-4.722-1.143-11.446-18.561-21.283-9.499-5.365-10.853-5.763-22.43-6.591-13.54-.97-19.11.148-25.711 5.157-3.834 2.91-54.748 20.467-59.35 20.467-2.548 0-3.377 3.029-1.198 4.375 1.966 1.215-.083 5.287-2.853 10.716-3.624 7.103-4.414 7.616-.189 27.433.68 3.187 1.545 2.088-3.292-.116-2.408-1.097.248.996-4.588-7.425l-.952-11.654 1.675-11.781 3.231-13.649-6.35-8.637c-3.491-4.75 1.61-7.371.804-8.921-2.732-5.26-3.164 2.148 2.625-38.258 3.257-22.737 1.368-28.535.178-28.535-.268 0-11.04-3.398-17.655-5.117s-7.137-6.86-11.568-5.926c-2.589.546-3.165-1.923-3.243-5.856-.047-2.335 6.026 1.624 16.478 3.436 10.035 1.738 7.406 4.177 15.015 5.774 5.607 1.177 5.99-5.086 4.509-21.47-.814-9.004-1.083-30.946-.612-37.623.49-6.95-.765-16.102-1.593-22.662-3.681-29.173-5.085-27.1-8.075-29.521-2.36-1.912-4.505-2.245-12.018-1.865l-9.144.461.37-4.402.372-4.402 9.043-.367c4.974-.202 10.142.222 11.486.94 3.3 1.766 3.676.82 4.635-11.654.692-9.01.367-12.466-2.006-21.295-5.167-19.229-13.066-29.5-22.688-29.5-6.608 0-9.004 3.611-10.057 15.155-.853 9.362.764 53.07 2.111 57.05.294.868-.29 7.055-1.3 13.75-1.147 7.611-1.837 21.62-1.842 37.393-.004 13.872-.597 29.461-1.318 34.643-.93 6.685-2.16 11.816-1.198 15.392 1.187 4.408-.678 3.759-2.475 17.232-.977 7.323-1.586 18.57-2.346 26.023-1.21 11.858.183 12.612.6 27.194.255 8.888 2.076 18.658 2.199 27.497l.281 20.355-2.093 4.142c-1.258 2.49-3.69 4.969-6.02 7.88-5.903 7.374-10.748 10.036-18.262 10.033-7.512-.002-15.442-2.018-18.445-4.688-2.517-2.237-2.46-2.276-4.627 3.163-2.621 6.583-7.994 10.287-14.922 10.287-7.729 0-17.982-3.096-22.163-6.693-3.269-2.812-3.392-2.822-7.682-.635-11.47 5.848-25.665 3.942-35.675-4.79-10.794-9.417-11.696-11.982-12.76-36.26-.507-11.548-1.693-23.528-2.637-26.622-1.685-5.525-1.655-5.675 1.697-8.4 1.877-1.527 3.851-2.338 4.387-1.802 2.51 2.51 7.18 28.823 7.19 40.514.007 6.704-.653 14.91-.042 14.91s9.35-6.667 14.329-8.887c8.649-3.858 12.671.04 18.155-1.517 2.632-.747 2.831-.413 1.914-3.743-1.159-4.21-3.217-17.636-2.916-23.59.75-14.888-1.85-55.416-8.46-56.747-4.83-.973-20.297 3.091-26.862 8.311-2.482 1.973-15.27 11.625-18.904 30.966l-3.707 14.355-.116 31.525c-.064 17.51 1.971 31.122 2.24 31.39.268.268 2.066-.625 3.996-1.984 1.93-1.36-3.734 1.867 6.96-1.484 13.532 2.858-4.093 9.007-8.258 13.453l-3.558 3.743 1.2 11.056c.876 8.068 3.073 16.305 8.129 30.476 3.81 10.681 7.312 21.977 7.78 25.102l.852 5.682 8.328 2.663c4.58 1.465 10.623 3.023 13.429 3.462 5.991.937 18.982-2.048 24.943-5.732 5.105-3.155 7.642-3.126 9.372.108 1.034 1.93.991 3.05-.168 4.447-3.126 3.766-12.33 8.098-21.086 9.924-9.548 1.99-17.999 1.23-28.839-2.594-5.95-2.1-5.713-2.48-6.684 10.734-.678 9.218-6.003 36.647-10.54 54.284l-2.25 8.75-7.601.368-7.6.37 6.2-19.12c4.307-13.28 6.53-22.553 7.28-30.368.593-6.188 1.771-16.924 2.618-23.86 1.912-15.656 1.198-19.331-8.136-41.908-9.14-22.107-9.684-26.9-9.226-81.107l.365-43.125 6.729-21.57c4.2-13.464 13.526-24.753 14.607-25.984 3.966-4.514 22.03-11.837 30.78-12.646l8.365-.773 6.94-10.43c5.832-8.763 5.94-8.98 18.823-14.663 4.922-2.172 21.66-2.76 22.524-1.895 2.313 2.313-2.234 1.384 1.45-5.912 1.942-3.849 6.56-9.65 11.257-12.644.505-.323.897-.764 1.379-.9 12.583-3.527-.898-2.335 12.583-3.527 6.454-.57 22.25 4.918 24.733 8.375 1.747 2.434 1.795 2.371.906-1.181-1.766-7.066 1.51-29.321 1.303-50.625-.13-13.405 2.15-16.842.701-45.661-.864-17.208-1.191-33.801-.726-36.875 1.742-11.512 9.409-20.13 19.41-21.82 19.936-3.369 34.45 18.666 37.373 56.735.56 7.285.685 16.34.28 20.12-.526 4.897.122 10.833 2.25 20.626 3.522 16.199-.964 31.521 2.603 46.547 2.658 11.195 1.113 21.57.702 30.577-.833 18.234-.69 24.535-3.832 45.42-3.135 20.835-1.613 14.327-1.883 29.538-.287 16.274-2.443 15.676-.082 18.868 4.974 6.727 4.589 7.008 28.95-1.523 12.031-4.214 25.25-9.688 29.375-12.164 6.644-3.99 8.957-4.642 20.271-5.717 7.025-.668 14.796-.835 17.269-.371s10.103 3.701 16.954 7.193c13.47 6.867 20.752 13.58 27.511 25.363 4.316 7.523 3.387 7.956-.069 15.069-2.797 7.29-4.79 3.58-10.764 7.103-13.841 6.873-16.426 10.582-31.044 15.914-18.013 6.57-8.758 3.251-31.982 11.239-25.5 7.173-8.752 1.96-31.917 12.596-17.236 9.945-21.387 15.163-30.604 19.593-13.88 6.671-22.984 14.987-26.42 24.13-10.814 28.781-18.556 60.887-18.595 77.114-.007 3.306.94 12.41 2.109 20.232 2.058 13.788 2.051 14.273-.225 15.938-2.919 2.134-5.814 2.188-8.304.153m-64.128-179.16c5.197-1.396 4.063-3.635 1.69-24.902-3.615-32.419-.87-25.637-1.685-45.052-.86-20.544-1.737-34.768-2.632-45.527-.774-9.289-5.24-24.656-7.78-25.63-4.487-1.722-19.138 8.273-24.907 16.99-3.199 4.834-3.204 4.881-1.158 11.412 1.13 3.606 1.318 8.789 1.94 15.32.62 6.531.565 20.78 1.398 24.056 1.42 5.589 1.071 7.787 1.714 22.391.286 6.513 2.756 22.268 4.871 23.575.595.368 10.772-2.202 13.855-2.19 27.813.113 23.026 4.824 15.736 5.108l-4.98.194-6.678-.785c-6.76-.795-10.012.132-13.817 3.937-2.729 2.729-1.294 12.533 2.599 17.763 2.798 3.76 3.556 4.062 10.148 4.046 3.918-.01 8.277-.327 9.686-.705m-39.434-5.09c2.825-.565 3.6-1.53 4.215-5.252.88-5.316.862-11.494-.025-9.31-.433 1.065-1.827-1.334-4.044-2.177-5.583-2.123-19.3-1.332-23.154 5.34l-4.955 8.58-1.53-5.522c-1.376-4.965-.51-6.224-.51-3.73 0 3.508 6.397 9.846 11.561 11.455 8.59 2.676 8.205 2.663 18.442.616m85.346-3.824c5.275-3.044 8.399-9.464 8.389-17.238-.014-10.29-2.613-27.136-3.084-43.342-.345-11.87-.488-16.84-.944-27.492-.644-15.004.812-36.383-.926-44.166-3.403-15.238-3.623-15.673-9.17-18.192-7.148-3.245-17.728-3.193-23.152.114-3.122 1.903-5.389 5.191-9.063 13.143-2.695 5.833-4.9 11.314-4.9 12.18 0 .867 2.693 26.923 2.82 32.49.6 26.345 1.952-12.564.728 23.28-1.216 35.577-2.047 36.651 3.696 46.645 1.377 2.397.889 6.2.166 6.646-1.742 1.077 4.854 12.648 9.38 16.456 3.507 2.951 4.44 3.13 12.907 2.49 5.497-.415 10.728-1.614 13.153-3.014m-33.48-8.798c-6.538-2.104 1.198-4.552-3.101-4.947-26.94-2.477 3.292-8.377 2.45-10.854l9.272-6.272c8.46-5.722 9.474-3.077 14.998-2.97 10.978.214 19.18 4.15 19.18 16.3 0 7.395 2.198 13.284-1.718 11.802-2.09-.791-4.33-7.024-4.823-12.155-.838-8.723-11.53-11.592-20.665-8.855-6.696 2.006-16.97 8.173-12.21 15.593 2.118 3.3 1.397 8.711 1.05 9.005-6.401 5.407-4.98-4.364-4.432-6.647" style="fill:#000"/></svg>