<svg xmlns="http://www.w3.org/2000/svg" width="310.294" height="467.161" viewBox="0 0 310.294 467.161"><path d="M76.277 454.695c-.57-.965 1.649-16.269 5.285-36.445 3.205-17.778 5.671-45.804 4.457-50.641-.498-1.983-2.825-6.121-5.172-9.195-6.081-7.968-13.157-16.142-19.841-26.084-2.423-3.604-3.96-8.232-9.954-21.077-8.418-18.035-14.314-32.897-16.716-66.128-.745-10.312-4.773-40.962-5.198-43.712-.794-5.15-13.072-13.36-12.582-26.815.407-11.162-5.714-16.236 6.4-47.358l4.041-10.385 14.569-9.55C54.46 98.853 57.069 97.631 64.26 96.68c4.468-.591 10.093-2.027 12.5-3.19l4.375-2.115L82.06 77c1.024-15.92 13.397-31.95 19.222-34.33 14.756-6.03 12.816-5.676 23.824-7.972 9.02-1.88 23.214-2.258 26.866-.826 1.59.623.564-2.407 4.517-4.59 11.538-6.369 10.354-9.656 22.116-10.202 5.62-.261 13.84-1.696 21.551-.842 12.942 1.432 14.382 1.862 18.685 5.582l4.662 4.03 5.527-4.87c6.081-5.356 15.642-5.606 19.522-5.606 4.185 0 14.714 2.558 21.337 7.701 6.993 5.43 13.322 12.525 16.214 18.175.88 1.719 4.014 9.856 6.966 18.083 5.276 14.701 5.364 15.217 5.175 30-.322 25.035-.32 69.61.525 81.319.556 7.724-.094 7.253.046 30.19.124 20.346-.744 33.936-2.936 43.907-4.919 22.375-5.99 28.502-33.45 80.251-13.11 24.709-21.62 44.264-24.026 55.216-1.402 6.385-2.05 16.048-2.14 31.905-.12 21.231-.256 22.5-2.04 19.055-1.823-3.522-2.012-3.591-4.107-1.497-3.677 3.676-4.428.053-3.794-18.32 1.3-37.731 3.835-49.421 14.522-66.984 8.28-13.607 33.46-55.57 38.798-75.712 2.965-11.192 4.64-15.339 6.463-24.954 2.817-14.86 1.903-17.212 3.494-34.078 1.446-15.326-1.574-30.354-1.123-44.721.285-9.067-4.917-45.515-3.527-68.665 1.033-17.223-.637-25.346-8.19-39.824-5.388-10.33-18.088-24.722-24.941-28.266-3.53-1.825-4.915-1.92-9.464-.646-2.93.82-7.39 3.191-9.91 5.268-5.196 4.283-19.584 25.138-25.696 37.245-3.952 7.83-4.053 8.418-3.33 19.34.41 6.194 1.675 17.45 2.809 25.013 1.338 8.925 1.858 18.137 1.48 26.25l-.581 12.5 2.148-5.035c3.635-8.522 13.145-10.645 21.686-4.842 6.477 4.402 8.821 10.163 6.961 17.11-1.539 5.749-4.902 12.142-6.387 12.142-.515 0-1.554-1.154-2.31-2.565-1.042-1.95-.894-4.004.618-8.555 2.295-6.91 1.76-9.231-2.585-11.21-4.291-1.956-8.18-1.777-11.47.526-2.248 1.575-2.777 3.152-2.777 8.27 0 6.853.499 6.59-7.574 3.994-2.117-.68-4.926 4.096-4.926 8.377 0 1.358 2.321 4.988 5.159 8.066 4.768 5.173 5.626 5.597 11.312 5.597 16.232 0 21.055-10.9 28.361-34.325 3.066-9.83 5.142-9.728 7.485-19.563l2.5-10.487 2.707-17.259c1.947-12.414.703-17.139 3.968-24.204 4.375-9.47 5.995-13.481 9.723-12.298 4.55 1.444 5.369 6.13 2.624 15.016-3.04 9.845-5.473 14.4-7.105 30.27-1.252 12.171-.925 11.76-3.162 18.51l-4.575 13.804-6.881 15.938c-4.376 10.135-2.327 9.903-9.21 19.676-3.918 5.56-15.193 12.827-22.224 12.808-5.067-.013-12.861.536-20.19-4.159-7.263-4.652-7.456-3.162-13.617-1.7-9.389 2.228-23.454 2.071-29.448-.327-4.892-1.957-5.332-1.934-9.713.501-8.397 4.669-20.58 5.339-25.946 6.525-4.17.921-5.334-1.153-5.105-.806-.155.155 3.694 3.754 8.553 7.999 9.494 8.292 22.878 15.496 39.159 21.077 5.5 1.886 7.095 6.234 7.299 6.378.203.144 1.776.877-.26 4.913-6.908 13.703-8.253 23.574-6.449 47.338.731 9.625 1.812 18.217 2.872 21.44 4.401 13.38 19.384 35.308 42.09 55.156l4.212 6.7 3.804 4.789-5.409 2.87-13.249-14.01c-24.528-25.938-32.589-33.746-38.933-51.99-2.401-6.906-9.128-36.282-9.058-49.33.02-3.781 1.17-9.969 2.554-13.75 3.649-9.965 4.05-11.819-2.958-14.221-8.735-2.994-20.372-9.11-30.87-17.85-4.826-4.017-11.637-8.05-12.79-8.963-1.921-1.522-2.074-.94-1.85 7.06.225 8.007-.061 9.095-3.505 13.336-5.668 6.978-13.524 10.811-20.213 10.956-7.103.154-11.786 1.511-23.617-8.464-4.506-3.8-4.928-6.841-8.06-8.691-2.798-1.652-5.233-7.016-5.412-6.758-.178.259.11 11.096.64 24.084 1.21 29.604 3 46.35 7.901 54.08 2.01 3.168 4.798 12.487 8.227 20.016 6.052 13.29 8.272 16.067 13.477 25.79 10.039 18.751 14.341 19.669 26.94 21.998 7.896 1.46 10.461 2.95 11.955 6.95 2.856 7.648 2.893 7.552-2.914 7.552-6.297 0-11.214 2.279-13.11 6.075-.735 1.471-2.203 9.988-3.264 18.925-2.27 19.142-9.361 53.17-11.654 55.927-1.781 2.142-6.25 3.669-7.004 2.393m8.335-230.647c6.346-2.686 8.223-5.769 9.746-16.011 1.388-9.333 1.361-9.524-2.092-14.742-3.375-5.1-3.676-5.258-8.565-4.497-9.451 1.472-16.015 5.697-19.195 12.354l-2.878 6.028 2.74 7.251c3.109 8.225 10.455 11.319 13.558 11.319 1.465 0 4.474-.766 6.686-1.702m-21.991-33.923c.61-1.456 1.961-3.627 4.212-2.793 6.36 2.354 2.138-2.891 6.211-2.19 2.714.466 8.28-1.528 9.544-1.077 3.944 1.41-3.939-6.166-17.368-16.69-10.287-8.062-13.083-11.013-16.147-17.043-5.174-10.182-5.869-17.591-2.314-24.658 1.536-3.052 3.66-6.537 4.722-7.744 3.322-3.779.55-3.958-4.72-.306-6.041 4.187-13.448 12.165-14.942 16.095-.593 1.56-2.534 9.266-4.313 17.122l-2.85 18.123 9.443 15.018c8.641 13.743 5.692 10.391 16.268 19.215 7.28 6.073 6.858 5.225 9.902 9.18l.28-13.33c.074-3.55 2.072-8.922 2.072-8.922m75.138-7.381c1.857-.966 4.668-3.14 6.248-4.832 2.822-3.022 2.849-3.311 1.517-16.681-1.674-16.806-5.004-32.452-6.28-46.687-.913-10.196-.993-11.92.43-24.134.846-7.243.038-19.816 1.96-28.41s3.366-15.792 3.21-15.995c-.672-.878-27.137 2.47-32.785 4.147-13.44 3.991-16.63 9.581-17.46 30.598-.535 13.568-.305 15.358 4.095 31.875 3.618 13.577 4.74 20.302 5.003 30 .234 8.592 1.115 14.65 2.818 19.375 4.953 13.743 7.574 18.58 11.103 20.493 4.448 2.412 15.719 2.552 20.141.25m-4.124-35.784c-7.85-5.603-11.066-5.837-18.312-1.332-3.426 2.13-6.436 3.872-6.69 3.872-.252 0 .664-3.327 2.038-7.394 2.462-7.291 2.584-7.415 8.709-8.885 4.88-1.17 7.018-1.156 9.969.066 4.247 1.76 10.319 11.037 9.691 14.808-.378 2.27-.74 2.194-5.405-1.135M98.73 172.963c-1.683-3.807-4.277-10.924-5.763-15.817s-2.857-8.896-3.046-8.896c-.19 0-3.054 1.199-6.366 2.663l-6.02 2.664-2.962-3.601c-8.416-10.233-10.314-13.97-10.314-20.307 0-8.833 3.027-12.581 10.337-18.36 7.415-5.861 4.102-6.021-4.315-.683-6.14 3.893-11.694 13.09-13.086 21.669-.836 5.151 2.98 11.593 13.062 22.055 6.986 7.249 30.261 26.807 31.01 26.058.288-.288-.853-3.638-2.537-7.445m81.687 4.493c3.173-.635 4.592-2.02 7.062-6.894 1.7-3.355 3.883-9.326 4.85-13.269 3.563-14.521 3.555-21.553-.059-50.834l-3.473-28.136 3.044-6.547c1.673-3.6 5.201-9.899 7.84-13.997 5.025-7.807 10.828-19.963 10.828-22.685 0-1.908-8.305-4.023-21.581-5.496-10.083-1.118-17.096-.253-20.44 2.523-3.246 2.694-14.662 21.817-17.36 36.857-3.849 21.447-2.773 25.669-.727 51.316.95 11.908 2.959 24.302 3.465 26.362.907 3.687 3.646 2.103 6.072-4.661l2.463-6.87 5.82-.377c9.435-.61 13.78 1.108 16.955 6.705 2.834 4.996 3.67 9.297 1.808 9.297-.563 0-4.04-2.25-7.725-5-3.686-2.75-7.202-5-7.814-5s-3.89 2.342-7.285 5.205l-7.709 9.044.4 9.295c.373 8.706 3.241 11.26 4.669 12.393 2.096 1.666 12.33 2.082 18.897.769m-94.326-33.054c3.847-1.834 4.415-8.441 4.394-12.321-.032-5.866-2.873-16.672-4.529-17.224-.719-.24-5.903-1.02-8.705 2.02-4.727 5.129-2.687.385-5.936 11.361-2.912 9.838 6.943 19.9 14.776 16.164" style="fill:#000"/></svg>