<svg xmlns="http://www.w3.org/2000/svg" width="305.111" height="469.893" viewBox="0 0 305.111 469.893"><path d="M87.068 454.497s-3.053-1.433-1.4-3.936c6.596-9.993 2.862-12.237 1.998-39.28l-.796-24.912-5.598-4.578c-7.829-6.402-17.79-14.81-22.921-27.497-5.958-14.731-10.04-14.342-13.847-29.074-4.438-17.177-5.761-23.248-8.563-35.276-3.143-13.49-6.507-36.678-11.426-78.75-3.173-27.136-4.238-32.895-8.089-43.75-9.02-25.425-4.529-39.28 16.011-49.392 4.804-2.365 8.28-4.876 8.28-5.982 0-1.049 1.373-4.25 3.053-7.116 4.016-6.853 12.608-11.358 34.838-18.265 16.41-5.099 17.79-5.789 27.818-13.9 5.803-4.695 11.992-9.084 13.752-9.753 5.522-2.1 17.057-1.448 22.376 1.264 2.677 1.365 5.085 2.263 5.351 1.997.267-.267-.297-9.418 3.476-19.044 11.078-28.264 11.467-27.014 20.677-32.476 13.11-7.773 21.874-3.943 31.158.776 12.361 6.283 16.206 11.3 16.296 21.266l.063 6.875 5.883-6.495c7.106-7.845 16.59-12.88 24.258-12.88 11.715 0 33.256 14.572 36.705 43.87 1.114 9.463 5.296 25.512-1.943 70.176-2.257 13.931-3.35 29.908-3.35 29.908-2.222 21.373-6.1 47.088-13.443 92.359-3.777 23.285-4.215 33.656-6.964 40.46-4.919 12.179-9.156 19.873-21.628 33.488-8.614 9.405-11.49 9.36-13.446 14.597-1.442 3.86-3.353 7.86-4.248 8.892-2.21 2.548-.593 15.096 4.352 33.75 6.567 24.774 10.163 41.556 9.107 42.505-.56.503-2.8 1.247-4.979 1.653l-3.962.74-2.475-10.887c-1.361-5.987-4.904-22.558-7.873-36.824-3.496-16.797-5.94-25.937-6.938-25.937-.848 0-7.045 1.993-13.773 4.428-13.489 4.883-6.368.01-15.34-2.707l1.707-1.308 6.594-2.946c31.443-14.049 24.549-10.132 37.516-21.131 13.832-11.733 19.74-14.16 23.882-30.046l7.354-28.204 3.728-20.862c6.479-36.248 12.348-76.995 14.806-115.513.658-10.308 1.75-23.577 3.162-30.233 4.047-19.077 4.876-45.625 1.357-43.45-.56.346-4.22 12.691-4.625 22.174-.864 20.188-1.31 3.923-8.572 38.967-.889 4.293-6.112 10.83-8.057 16.045-5.445 14.593-12.372 25.126-21.96 33.387-4.845 4.176-5.013 4.218-13.966 3.46-13.135-1.11-17.974-3.463-24.56-11.945l-5.61-7.222-7.24.6c-4.4.365-11.845-.305-18.986-1.71-10.971-2.156-12.066-2.654-16.568-7.539-6.403-6.946-7.278-12.901-4.545-30.926 1.142-7.53 1.902-13.865 1.689-14.078s-4.788 2.12-10.167 5.186-10.136 5.564-10.572 5.553c-.912-.024-12.822-16.613-15.15-21.102-1.199-2.312-1.227-4.088-.123-7.774 1.119-3.732-.83-6.349 6.465-11.964 9.528-7.334 15.26-9.14 11.534-9.14-7.117 0-18.978 9.872-24.23 20.167-6.305 12.36 2.805 29.726 24.569 46.835 8.163 6.416 20.928 20.503 25.264 27.878 3.041 5.173 3.42 7.176 3.81 20.12.25 8.355-.404 21.201-1.563 30.675-5.13 41.915-.321 61.011 20.726 82.32 8.653 8.761 11.03 11.93 11.03 14.711 0 3.41-.233 3.544-6.118 3.544-4.968 0-6.796-.646-9.72-3.438-10.535-10.051-17.659-22.244-24.485-41.909-3.86-11.117-4.003-12.253-4.028-31.839-.013-11.17-.22-20.311-.457-20.312s-2.037 1.141-4 2.538c-7.076 5.04-16.554 5.36-20.415 4.513-5.267-1.157-14.528-4.112-14.528-6.987 0-4.202-2.01-3.871-4.185.69-1.554 3.258-3.804 5.178-8.685 7.413-13.92 6.373-25.586 3.389-33.99-8.697-4.18-6.01-17.458-18.222-19.813-18.222-.602 0-.711.984-.243 2.187.468 1.204 1.35 10.344 1.961 20.313 1.113 18.167 3.864 36.87 8.646 58.783a1393 1393 0 0 1 2.56 11.987c.143.014 1.59 8.066 3.938 14.986 6.216 18.321 9.335 17.367 14.76 35.856 5.644 19.239 14.033 20.465 17.547 23.646 5.015 4.54 11.704 5.802 24.522 7.977 18.064 3.066 13.63 5.582 6.087 9.052-4.06 1.868-4.377.9-10.216 1.226l-8.987.503.237 26.495.236 26.495-3.783 7.434c-3.704 7.28-1.75 7.443-7.27 7.805-3.101.204 7.888-2.868-.72-3.317m2.66-236.856c5.016-5.843 6.395-10.002 5.437-16.39-.571-3.812-2.13-6.346-4.207-8.603-17.53-19.043-11.313-11.88-28.261-38.253-6.075-9.453-21.512-25.076-22.033-25.076-1.994 0-14.327 10.14-15.836 13.022-2.655 5.066 2.256 23.328 11.12 41.353 4.54 9.232 7.734 12.754 12.518 13.805 4.744 1.042 10.86 6.443 15.365 13.57 1.958 3.1 4.028 5.346 4.598 4.993s1.037-3.91 1.037-7.906c0-6.639.41-7.727 4.745-12.612l4.744-5.346 6.515 2.164c5.797 1.926 7.791 4.457 3.512 4.457-4.168 0-13.127 7.824-16.563 14.465-3.52 6.805-3.538 6.939-1.078 8.412 3.277 1.963 9.361 3.157 12.5 2.453 1.375-.308 4.025-2.337 5.888-4.508m40.77-.71c4.589-2.69 10.593-6.844 13.343-9.232l5-4.343V192.9c0-5.75-.462-12.122-1.027-14.158-.649-2.336-8.973-11.796-22.549-25.625-11.836-12.058-19.686-24.736-21.827-28.173-3.621-5.815-10.018-13.651-12.372-24.49l-.975-4.49-15 5.528c-17.006 6.267-21.875 9.864-21.875 16.163 0 2.543 2.744 9.505 7.175 18.203 6.465 12.691 13.534 12.917 22.244 30.428 12.219 24.562 17.607 30.407 29.249 43.755 10.878 12.473 5.664 14.478 18.614 6.89m-19.432-12.514c-1.88-3.514 1.211-8.729 4.02-12.3 2.833-3.602 14.95-14.672 17.313-14.672 2.137 0 15.52 3.615 15.52 5.452 0 .983-2.038 2.26-5.418 1.937-4.803-.458-12.397.868-18.79 7.469-3.738 3.859-6.42 8.582-6.725 8.582-.306 0-2.789 4.158-2.789 4.158zm124.697-37.646c4.045-4.153 6.745-8.305 7.924-12.188.984-3.239 5.989-11.38 9.398-18.975 4.936-10.997 8.5-9.847 12.745-42.51 3.574-8.986 3.704-25.11 3.289-30.067l-.992-11.837-7.768-7.133c-8.68-7.97-12.485-8.93-19.197-4.837-4.635 2.826-6.117 4.78-14.297 18.845-10.876 18.7-14.191 30.617-15.476 55.625-.505 9.835-2.837 18.164-4.982 26.576-3.005 11.783-2.201 14.628-.723 20.787 1.351 5.634 2.332 7.127 6.133 9.33 3.02 1.753 6.732 2.634 11.168 2.653 6.348.028 6.916-.25 12.778-6.27m4.469-20.452s1.193-1.317 2.572-4.058c3.487-6.933-1.857-11.33-5.415-14.128-4.433-3.486-8.696-4.433-12.39-2.75-2.722 1.24-3.73 1.684-7.417 7.343-2.418 3.713-.026 4.617-1.94 7.84-9.693-5.537-8.06 2.958-6.826-4.696.299-1.883 5.89-7.348 6.303-10.614.413-3.265.97-5.937 1.238-5.937s3.735-.846 7.703-1.88c8.868-2.31 13.172-1.17 19.246 5.098 3.51 3.62 4.281 5.37 4.263 9.664-.022 5.19 5.245 17.744-3.136 17.744-.587 0-.348-.895-1.383-2.373zm-54.037 8.056c6.998-2.661 12.669-18.414 14.422-40.068.826-10.191 2.798-21.023 6.197-34.031 8.004-30.628 8.102-41.562.436-48.733-6.48-6.062-11.355-7.712-22.996-7.783-14.18-.086-17.253 1.902-19.399 12.556-2.491 12.368-5.389 42.284-5.389 55.641 0 6.945-.814 15.801-1.809 19.682-2.756 10.748-5.838 31.497-5.048 33.986.766 2.412 1.164 2.624 13.107 6.949 8.676 3.142 15.397 3.733 20.479 1.8m-25.78-35.915 3.437-4.766 9.189-.37c10.678-.43 19.388 5.977 22.165 12.624 3.26 7.803.37 6.705-8.519 2.674-10.517-4.769-17.863-7.865-23.804-2.968l-6.844 2.583 2.81-6.959zm-21.886-13.482c4.972-2.998 7.187-3.79 7.187-2.57 0 .97.563 2.111 1.25 2.536.803.496 1.25-3.94 1.25-12.41V79.354l-4.527-1.892c-6.174-2.58-6.766-2.423-5.966 1.579.6 3-3.255 9.486-3.504 5.472-.578-9.287-11.007 1.231-13.246 3.24-4.8 4.306-.516 13.06 3.584 18.273 3.385 4.304 5.343 4.157 13.972-1.047" style="fill:#000"/></svg>