<svg xmlns="http://www.w3.org/2000/svg" width="353.416" height="462.145" viewBox="0 0 353.416 462.145"><path d="M153.284 444.151c-6.317-18.42-2.521-60.06 6.859-75.237 1.388-2.246 2.523-4.368 2.523-4.714s-2.109-.988-4.687-1.425c-6.203-1.052-16.363-6.808-19.478-11.036-2.847-3.863-4.585-17.239-2.24-17.239.773 0 1.412.422 1.42.938.006.515 2.815 4.03 6.239 7.812l6.226 6.875 3.133-3.75c7.804-9.34 17-31.805 19.97-48.788 2.004-11.463.803-21.085-5.52-44.214-7.92-28.969-8.38-33.455-5.229-51.015 3.843-21.409 3.696-23.228-2.334-28.965-6.533-6.214-6.547-9.284-.052-11.23 6.333-1.897 13.802-8.849 13.802-12.845 0-1.656-.87-4.254-1.933-5.773-1.838-2.623-1.73-2.885 2.187-5.273 2.267-1.382 5.131-2.515 6.366-2.517 4.306-.01 8.38-5.656 8.38-11.615 0-6.941.776-7.648 5.052-4.603 6.143 4.374 10.63 2.967 12.483-3.916.721-2.679 1.712-4.864 2.201-4.855.49.01 3.702 4.345 7.14 9.635 18.157 27.943 25.94 35.349 37.15 35.349 7.468 0 12.817-2.603 15.328-7.46 2.953-5.709 2.316-8.304-3.137-12.782-2.768-2.273-6.515-6.808-8.327-10.077-1.811-3.269-3.485-5.753-3.718-5.52s.08 3.121.696 6.417c.789 4.222 2.144 6.81 4.586 8.758 4.609 3.674 3.467 6.914-2.437 6.914-7.383 0-8.266-.848-8.274-7.946-.004-3.536-.375-11.144-.823-16.908l-.816-10.478-7.521-8.04c-4.137-4.423-9.045-8.828-10.906-9.791s-8.43-2.364-14.597-3.114-14.423-2.11-18.348-3.022c-6.965-1.619-7.228-1.582-10.924 1.528-3.924 3.302-3.981 3.794-1.552 13.471l.876 3.492-3.96-2.82c-4.471-3.183-8.192-9.463-7.176-12.11 1.3-3.387-1.158-1.59-5.796 4.238-2.572 3.231-8.877 11.57-14.011 18.531-7.881 10.686-12.069 14.84-26.895 26.684-19.59 15.649-28.041 24.42-33.586 34.857-5.956 11.211-16.61 38.977-15.862 41.336.375 1.182 1.21 9.11 1.856 17.617 2.212 29.13-2.115 63.035-12.358 96.85-4.303 14.205-42.538 116.264-44.668 119.23-.47.654-7.837-2.45-8.548-3.6-.313-.506 1.07-3.949 3.071-7.65s6.132-13.48 9.179-21.73c3.046-8.25 8.147-21.078 11.336-28.507 3.189-7.428 8.925-23.178 12.748-35s7.758-23.34 8.744-25.598c.987-2.258 1.805-7.883 1.817-12.5.017-6.025 1.205-12.1 4.207-21.52 6.133-19.237 6.529-28.494 2.725-63.75-7.081-65.633-6.978-64.25-5.615-75.222 2.38-19.163 6.944-25.269 29.302-39.204 8.1-5.048 10.702-6 18.916-6.922 5.239-.587 9.633-1.227 9.764-1.422s2.083-3.73 4.336-7.855c10.15-18.58 41.161-54.987 53.678-63.02 7.15-4.587 13.147-6.048 15.798-3.848 1.578 1.31 4.113.099 15.37-7.344C214.834 16.01 222.208 12 223.807 12s6.356 2.07 10.57 4.599c9.396 5.638 72.507 47.001 73.067 47.888.222.35 4.16 11.302 8.75 24.335l8.347 23.697 6.25 2.213c8.26 2.926 10.625 5.98 10.625 13.719 0 7.78-2.191 12.023-9.386 18.173-5.09 4.35-6.232 6.377-10.635 18.878-4.905 13.923-4.932 14.103-4.69 31.188.189 13.326-.198 18.177-1.722 21.604-2.822 6.348-16.622 18.456-36.06 31.64l-16.867 11.441-15.632 29.56c-17.57 33.222-19.468 36.288-28.775 46.471-8.394 9.184-18.891 16.677-32.797 23.41-12.527 6.065-16.53 10.761-21.202 24.881-2.311 6.986-2.745 11.436-2.975 30.519-.247 20.459-1.738 32.351-4.252 33.905-.495.306-1.908-2.38-3.139-5.97m31.62-94.004c8.264-3.847 18.932-12.014 27.355-20.942 4.888-5.18 9.12-12.17 17.319-28.593 5.967-11.955 13.852-26.275 17.522-31.823 9.127-13.795 22.485-26.228 34.43-32.047 10.829-5.276 16.626-11.009 21.775-21.533 3.466-7.085 3.506-7.411 2.139-17.628-1.28-9.564-1.151-11.314 1.581-21.524 5.067-18.933 9.023-27.377 15.258-32.568 7.23-6.02 10.868-11.888 9.86-15.903-1.094-4.36-3.507-3.83-6.318 1.389-4.07 7.558-8.638 10.525-16.201 10.525h-6.602l-.787 7.531c-.928 8.883-3.068 13.484-8.33 17.912-5.248 4.415-11.978 6.06-19.244 4.703-6.89-1.287-7.207-.968-12.6 12.697l-3.34 8.468 4.37 7.95c6.387 11.62 6.668 16.989.89 16.989-3.3 0-4.087-.838-7.5-7.991-2.098-4.395-3.815-8.862-3.815-9.926 0-3.866-2.932-3.528-13.107 1.514-19.052 9.441-22.423 17.155-12.718 29.1 2.984 3.673 6.011 7.803 6.727 9.178 1.62 3.11.094 7.504-3.225 9.28-2.223 1.19-3.664-.48-14.758-17.103-6.761-10.132-14.214-20.562-16.561-23.178-3.71-4.135-19.305-14.624-21.743-14.624-.475 0-.874 1.266-.886 2.813-.011 1.546-1.127 7.03-2.479 12.187-3.292 12.56-3.125 19.883.788 34.55 1.808 6.779 4.65 17.387 6.317 23.575 6.838 25.4 1.228 56.06-14.494 79.213-2.811 4.138-5.11 7.837-5.11 8.218s3.796.688 8.437.682c6.324-.01 10.094-.784 15.05-3.091m52.925-164.364c3.004-1.363 7.179-2.49 9.277-2.506 3.397-.024 4.111-.73 6.528-6.451 2.937-6.951 2.732-8.576-1.082-8.576-8.404 0-17.777-7.509-31.236-25.024-8.512-11.076-11.135-13.699-13.717-13.71-4.283-.021-13.114 5.776-19.62 12.879-4.611 5.033-5.313 6.545-5.313 11.448 0 4.692-.735 6.464-4.338 10.452l-4.338 4.801 1.286 7.983c.707 4.39 1.461 8.159 1.676 8.374s1.873-.285 3.684-1.11c2.963-1.35 3.95-1.046 9.85 3.033 3.605 2.493 10.212 7.87 14.68 11.95l8.125 7.418 9.538-9.241c5.246-5.083 11.996-10.357 15-11.72m-163.913.677c0-.903 3.583-8.886 7.961-17.739l7.96-16.096L109.69 136.4c26.962-22.038 35.888-31.229 44.597-45.926 12.419-20.957 18.414-23.153 45.429-16.643C207.582 75.726 216.518 77 221.954 77c12.46 0 15.666 2.558 31.337 25.012 12.452 17.84 20.108 27.488 21.814 27.488.493 0 .727-6.806.52-15.124-.347-13.937-.688-15.8-4.351-23.747-3.691-8.007-4.656-9.057-13.48-14.669-13.573-8.634-30.496-17.967-50.511-27.856l-17.38-8.587-3.618 2.576c-1.99 1.418-3.619 2.774-3.619 3.013 0 .24 1.105 3.015 2.456 6.165S187.293 57 186.946 57c-1.93 0-8.082-5.86-9.34-8.897-1.207-2.912-1.875-3.324-3.755-2.318-4.019 2.15-23.125 25.552-38.498 47.154-18.177 25.541-23.214 31.444-44.6 52.266-20.405 19.867-22.425 23.428-20.36 35.892.76 4.581 1.863 8.032 2.452 7.668.59-.365 1.071-1.402 1.071-2.305m213.246-30.086c4.216-2.704 5.911-8.22 4.33-14.094-1.47-5.459-3.61-6.946-8.3-5.768-2.4.602-3.026 1.574-3.026 4.694 0 5.905-2.098 12.073-5.282 15.53l-2.843 3.084 6.25-.882c3.438-.486 7.43-1.64 8.871-2.564m-195.14-25.537c8.24-8.298 14.264-15.087 13.388-15.087-2.568 0-11.51 4.873-20.055 10.929-8.713 6.174-15.189 14.979-15.189 20.65v3.591l3.438-2.498c1.89-1.374 10.179-9.287 18.418-17.585m224.082-.42c.86-.673 1.562-2.005 1.562-2.96 0-1.322-1.178-1.548-4.94-.946-9.088 1.453-10.531.38-13.172-9.784-2.926-11.26-2.924-11.276 1.776-21.224l3.849-8.146-2.194-5.97c-2.914-7.93-12.472-16.495-29.877-26.774-7.462-4.406-20.035-12.633-27.942-18.28-7.906-5.65-15.64-10.923-17.187-11.72-3.279-1.691-4.72-1.084-15.64 6.589l-7.201 5.06 28.542 14.432c15.698 7.937 31.485 16.68 35.082 19.427 8.744 6.68 12.875 13.523 18.284 30.293 8.175 25.342 19.745 37.289 29.058 30.002m-29.757-2.48c-.039-.859-1.177-4.093-2.53-7.187l-2.46-5.625.777 6.25c.427 3.438 1.035 6.672 1.353 7.188.931 1.513 2.936 1.075 2.86-.625m26.877-12.608c2.114-1.546 2.15-2.082.474-7.11-.997-2.99-2.404-5.635-3.126-5.875-2.095-.699-4.48 6.58-3.549 10.823.914 4.162 2.642 4.764 6.201 2.162" style="fill:#000"/></svg>