<svg xmlns="http://www.w3.org/2000/svg" width="529.673" height="316.219" viewBox="0 0 529.673 316.219"><path d="M173.163 301.844c-8.194-4.996-15.65-18.75-18.04-33.279-1.202-7.307-1.09-11.13.655-22.5 3.814-24.852 3.817-27.669.047-44.348-4.655-20.591-4.102-31.164 2.457-46.955 8.148-19.617 13.296-33.313 12.734-33.875-.3-.301-3.896.145-7.99.99-6.446 1.332-8.143 1.258-12.657-.548-7.566-3.027-10.118-2.685-25.586 3.427-18.724 7.4-21.694 7.87-28.32 4.49-7.177-3.661-14.268-3.494-21.26.502-13.749 7.859-44.107 1.115-56.048-12.45-6.354-7.218-8.815-16.022-6.002-21.463 2.917-5.64 10.88-10.16 21.466-12.186 5.17-.989 9.88-2.095 10.467-2.458s9.743.163 19.656-2.546c24.446-6.683 19.477-4.45 30.874-7.432 21.488-5.623 61.717-15.885 73.323-19.021l21.464-4.484 24.572-7.832 22.105-6.188 24.884-4.142c29.572-4.923 46.359-11.41 57.9-13.192 13.421-2.074 24.421-3.5 32.694-3.563 12.56-.096 20.967-1.258 33.983.002 26.558 2.57 46.637 10.25 64.812 24.793 18.697 14.96 34.806 35.455 54.356 69.157l11.964 20.625-4.671 2.154c-2.57 1.185-5.234 2.156-5.922 2.156s-7.156-9.965-14.375-22.147c-18.963-32.002-26.06-42.418-34.944-51.292-14.653-14.636-34.173-25.447-55.896-30.958-22.953-5.822-55.836-7.215-79.67-1.925-23.486 5.212-15.153 5.632-36.797 9.785l-40.57 5.836-33.082 9.712c-6.315 1.854-4.25 1.353-37.365 9.57l-41.377 10.266-20.492 5.112C93.28 80.436 99.4 80.252 74.278 85.67c-16.139 3.48-43.129 9.808-47.823 12.232-2.621 1.354-3.05 7.192-.78 10.654 3.741 5.711 19.084 11.217 35.389 12.7 8.235.75 9.45.544 14.597-2.472 3.088-1.81 6.64-3.3 7.892-3.31 1.644-.014 1.834-.3.682-1.031-1.28-.813-1.2-2.715.41-9.658 1.103-4.754 2.624-9.39 3.38-10.303 2.21-2.663 4.585 3.04 4.636 11.133.038 6.064-.33 7.168-2.768 8.283-2.544 1.164-2.108 1.494 4.58 3.464 10.48 3.088 18.563 1.85 33.51-5.129l12.152-5.675 10.051 2.606 10.052 2.605 5.921-2.96c3.257-1.627 8.734-3.279 12.171-3.669 3.438-.39 9.971-1.359 14.52-2.152 8.21-1.432 8.31-1.5 14.153-9.457 5.762-7.847 5.867-8.156 5.039-14.788-.752-6.018-.562-6.925 1.708-8.14 3.008-1.61 2.851-1.83 6.39 8.953l2.77 8.438-2.618 4.234c-1.44 2.329-3.454 4.929-4.477 5.778-3.282 2.724-2.06 3.352 8.038 4.13 12.826.99 21.139 4.004 36.645 13.29 6.95 4.162 13.042 7.567 13.538 7.567 1.184 0 6.645-13.852 8.732-22.152 1.393-5.536 1.923-6.295 3.493-5 3.425 2.827 6.494 11.579 5.636 16.075-.99 5.182-4.589 12.539-9.497 19.412-2.046 2.865-3.32 5.855-2.832 6.646.526.85.2 1.282-.8 1.057-.928-.21-4.44 2.57-7.804 6.175-3.743 4.011-10.534 9.053-17.5 12.994-18.647 10.549-26.627 16.821-35.297 27.746-11.468 14.45-17.962 27.807-17.962 36.947 0 12.223 8.24 25.1 16.06 25.1 3.108 0 3.019-.209-2.525-5.937-3.16-3.266-6.373-7.166-7.14-8.668-3.155-6.177-.767-19.873 4.477-25.667 1.114-1.23 4.186-2.82 6.827-3.531 6.218-1.674 12.256-.053 20.426 5.486l6.25 4.237 6.618-6.043c7.444-6.798 23.94-17.344 41.206-26.344 11.342-5.912 11.8-6.033 22.875-6.033 13.116 0 16.053-1.15 25.956-10.171 6.83-6.222 12.984-8.743 25.43-10.416 9.993-1.344 20.181-10.888 34.89-32.685 4.486-6.648 9.942-12.35 19.032-19.887l12.743-10.568 7.247-.011 7.246-.012-3.868 4.814c-2.127 2.647-7.357 7.704-11.621 11.238-7.79 6.454-19.22 18.66-24.38 26.03-4.086 5.84-4.544 10.207-1.747 16.668 3.336 7.708 13.376 21.02 17.15 22.74 3.748 1.708 3.786 2.263.573 8.56-2.879 5.643-2.677 5.557-7.351 3.14-5.59-2.891-11.437-10.478-16.651-21.606-4.665-9.955-6.204-11.743-7.836-9.103-1.697 2.747-18.115 11.328-27.093 14.162-6.427 2.029-11.982 4.886-16.875 8.682-8.82 6.842-8.422 6.716-28.15 8.889-14.92 1.643-16.5 2.088-26.738 7.535-5.985 3.183-16.616 9.967-23.624 15.074-11.49 8.373-13.458 10.416-20.027 20.778-8.354 13.178-20.167 26.387-25.616 28.644-2.053.85-3.459 1.987-3.125 2.527.732 1.184-3.918 16.65-6.536 21.737-3.105 6.035-13.058 15.803-19.349 18.991-7.368 3.734-16.258 3.98-21.796.602m20.022-14.335c5.219-2.18 8.375-6.599 13.114-18.354l3.744-9.288-2.732-1.817c-5.424-3.61-13.384-12.692-16.756-19.12-2.944-5.612-3.436-8.011-3.391-16.563.055-10.687.942-13.005 11.167-29.199 5.996-9.495 6.991-15.424 4.55-27.106l-1.995-9.55 5.285-4.93c2.906-2.711 5.284-5.352 5.284-5.867 0-1.12-26.17-20.747-26.757-20.068-.223.259-1.326 3.283-2.45 6.72-1.125 3.438-4.854 11.257-8.287 17.376-9.643 17.187-10.673 23.892-6.257 40.75 3.865 14.756 4.2 22.705 1.865 44.358-1.185 10.992-1.893 23.93-1.574 28.75.648 9.798 4.824 20.954 8.915 23.82 3.285 2.3 10.881 2.341 16.275.088m-19.995-13.1c.51-3.842.098-9.141-1.12-14.39-1.692-7.297-1.706-8.727-.112-11.73l1.816-3.422 3.026 6.875c8.409 19.1 8.766 23.457 2.2 26.853-5.999 3.101-6.709 2.59-5.81-4.185m62.058-45.25c1.352-2.65 2.457-5.106 2.457-5.46 0-1.718-8.008-4.457-13.034-4.457-4.699 0-6.015.546-7.765 3.217-1.8 2.747-1.912 4.25-.766 10.312.737 3.903 2.002 8.784 2.81 10.846l1.468 3.75 6.186-6.696c3.403-3.683 7.293-8.863 8.644-11.513m-15.596-67.997c-1.096-5.48-2.558-6.205-5-2.478-1.563 2.384-1.944 4.556-1.353 7.704l.822 4.384 3.137-2.947c2.473-2.323 2.98-3.733 2.394-6.663m22.835-8.047c9.56-5.588 20.646-14.306 23.254-18.286 1.715-2.617 1.4-2.93-8.541-8.465-13.32-7.417-26.07-11.602-40.12-13.17-10.232-1.142-23.279-.464-25.043 1.3-.388.388 3.638 3.088 8.945 6.001 13.31 7.305 21.16 14.948 26.28 25.587 2.306 4.793 4.193 9.434 4.193 10.313 0 2.553 2.147 1.914 11.032-3.28m8.132 42.076c-6.124-6.292-10.414-12.904-10.414-16.049 0-2.753 11.216-.503 14.66 2.941 3.421 3.422 5.064 12.011 3.224 16.858-1.03 2.714-1.322 2.567-7.47-3.75m69.637-35.636c-4.636-12.672-5.17-13.708-8.891-17.275-2.013-1.928-3.66-3.963-3.66-4.521 0-1.788 13.061-1.11 15.818.821 4.855 3.4 10.432 13.598 10.432 19.074 0 4.75-.315 5.193-5.025 7.078-2.764 1.106-5.255 2.01-5.535 2.01s-1.693-3.234-3.14-7.187M127.649 99.598c-1.776-8.556-.883-16.577 2.087-18.75 2.735-1.999 3.207-1.996 5.98.031 1.878 1.374 2.04 2.352 1.01 6.083-.812 2.945-.796 6.626.049 10.9.702 3.548 1.057 6.636.79 6.862s-2.277.75-4.468 1.167c-3.977.756-3.987.745-5.448-6.293" style="fill:#000"/></svg>