<svg xmlns="http://www.w3.org/2000/svg" width="383.603" height="485.709" viewBox="0 0 383.603 485.709"><path d="M21.555 470.689c-9.295-5.887-10.247-8.12-9.234-21.653.474-6.329 4.646-37.944 9.272-70.257 5.747-40.149 8.144-60.333 7.57-63.75-.612-3.637-.325-5.58 1.052-7.131 1.322-1.49 4.356-19.524 10.07-59.856 7.93-55.98 8.126-57.974 6.472-65.993-.939-4.548-1.668-12.895-1.62-18.548.078-9.268.434-10.744 3.623-15 10.447-13.945 40.152-41.439 63.263-58.553a24398 24398 0 0 1 27.923-20.674c7.563-5.593 15.438-11.731 17.5-13.64C168.793 45.13 178 39.603 190.796 35.62c19.786-6.16 33.513-10.47 55.914-17.555 19.598-6.198 20.981-6.459 30.957-5.836 5.743.358 11.137 1.21 11.986 1.894s3.512 1.654 5.918 2.156 5.138 1.53 6.07 2.284c2.134 1.722 6.22 4.106 9.868 5.757 1.546.7 2.812 1.849 2.812 2.554s1.013 1.28 2.25 1.28 2.848.599 3.58 1.33c.73.731 6.545 3.79 12.92 6.795 6.375 3.007 12.19 6.065 12.92 6.796.732.731 2.158 1.33 3.17 1.33 1.01 0 2.726.738 3.812 1.64s4.504 2.694 7.598 3.981c7.857 3.27 11.445 6.725 10.994 10.587-.336 2.887-.811 3.127-5.369 2.725-3.006-.265-6.968-1.885-9.934-4.062-2.713-1.992-5.946-3.622-7.184-3.622-3.977 0-25.083-10.825-39.565-20.293-1.824-1.193-4.442-2.75-5.817-3.459s-4.98-2.686-8.01-4.393c-5.342-3.01-10.115-4.048-10.115-2.199 0 .498 2.066 2.744 4.592 4.991s4.217 4.461 3.758 4.92c-.46.46-1.867-.1-3.128-1.24-1.262-1.142-2.812-2.086-3.445-2.098-.634-.012-2.477-1.418-4.096-3.125s-3.507-3.104-4.196-3.104-.94-.813-.559-1.808c.514-1.338-.678-2.014-4.586-2.6-4.54-.68-11.584 1.256-50.248 13.817l-44.967 14.609-10.625 8.996c-5.844 4.948-24.284 20.38-40.979 34.294-16.694 13.914-30.09 25.723-29.77 26.243s.2 1.494-.271 2.166c-1.103 1.577-10.995 9.283-11.917 9.283-1.32 0-10.182 6.428-14.985 10.868-6.678 6.175-9.57 13.563-9.612 24.549-.045 12.031-2.604 35.61-6.196 57.083-.747 4.47-1.878 11.22-2.513 15-3.86 22.993-9.986 62.198-9.996 63.976-.006 1.228 1.152 2.267 2.789 2.5 3.512.501 4.327 4.234 1.585 7.264-1.505 1.662-1.756 2.94-.904 4.594 1.454 2.822.649 5.416-1.681 5.416-3.885 0-5.564 6.353-9.918 37.533a133162 133162 0 0 1-6.29 44.986c-2.147 15.322-2.327 25.06-.578 31.356 1.07 3.85.723 5.775-2.397 13.343-3.376 8.185-3.493 8.979-1.57 10.652 4.38 3.813 6.96 4.467 10.97 2.781 6.99-2.94 16.083-21.024 20.081-39.944 3.26-15.43 3.58-20.906 1.417-24.369-1.233-1.973-.947-3.194 1.68-7.17 4.156-6.294 5.32-10.083 9.73-31.668 3.648-17.86 3.667-18.15 1.264-19.84-1.605-1.128-2.439-3.17-2.439-5.968 0-3.625.508-4.365 3.438-5.005 5.367-1.173 9.999-7.685 11.496-16.163.718-4.07 1.874-9.93 2.569-13.024a559 559 0 0 0 2.378-11.25c.614-3.093 2.107-10.315 3.318-16.048 2.18-10.323 1.882-16.089-1.42-27.389-.653-2.24-.321-2.813 1.632-2.813 1.348 0 3.47 1.125 4.714 2.5s3.085 2.5 4.09 2.5c1.313 0 1.587.791.976 2.813-1.824 6.028-1.53 6.547 3.93 6.944 4.822.35 5.777-.132 11.842-5.978l6.598-6.36-9.03-8.906-9.031-8.906-.148-8.866c-.187-11.218-.04-12.219 2.121-14.446 2.933-3.021 5.659 1.09 7.574 11.425 1.367 7.375 2.4 9.763 5.31 12.28 18.863 16.319 18.893 16.34 18.893 13.164 0-1.804-1.988-5.724-7.31-14.414-5.383-8.786-2.843-10.03 3.56-1.743 2.406 3.114 5.28 6.164 6.385 6.777 1.744.967 1.898.5 1.157-3.522-.47-2.55-1.515-5.865-2.323-7.367-1.653-3.073-2.016-10.88-.46-9.919.555.343 3.367 4.578 6.25 9.41 4.574 7.67 5.234 9.708 5.187 16.014-.03 3.974-.6 9.757-1.265 12.85-.666 3.094-1.76 8.72-2.431 12.5-1.585 8.931-3.02 15.15-5.629 24.375a1145 1145 0 0 0-4.582 16.875c-1.354 5.157-2.938 11.063-3.52 13.125-5.643 20.004-6.564 23.826-10.094 41.875-2.887 14.767-3.763 29.708-2.42 41.32 1.32 11.43 3.202 18.68 4.846 18.68.438 0 1.829-4.591 3.09-10.203 2.848-12.669 5.289-17.908 9.166-19.675 6.837-3.115 16.893-.577 20.37 5.141l2.242 3.687 2.015-2.878c1.109-1.583 2.016-4.143 2.016-5.69 0-2.795 7.285-31.793 8.232-32.766.273-.281-.13-1.265-.896-2.188-.919-1.107-4.329-1.678-10.03-1.678-8.559 0-17.306-2.463-17.306-4.874 0-.688.958-1.787 2.128-2.442 1.766-.988 1.855-1.522.522-3.128-2.796-3.369-.179-7.939 4.092-7.144.615.115 2.724-.145 4.688-.576 4.397-.966 4.8-4.336.519-4.336-3.736 0-5.393-2.216-2.49-3.33 2.462-.945 9.799 2.579 14.267 6.851 2.87 2.745 2.942 3.083.957 4.534-2.806 2.051-1.507 3.195 3.627 3.195 3.504 0 4.258-.53 4.891-3.437 2.406-11.048 5.968-19.679 17.078-41.377l12.384-24.19-3.327-4.802c-2.197-3.17-4.454-4.931-6.644-5.185-2.195-.254-3.264-1.09-3.16-2.472.095-1.258-.503-1.835-1.502-1.452-.913.35-2.335.22-3.16-.29-1.088-.672-.89-1.372.726-2.553 1.397-1.021 1.976-2.58 1.557-4.184-.368-1.407-.16-2.558.464-2.558.623 0 1.133.497 1.133 1.105 0 .607.984 1.434 2.188 1.838 2.585.869 5.185 2.512 12.644 7.995 7.526 5.531 10.431 5.29 15.049-1.25 2.063-2.922 5.528-7.281 7.701-9.688 8.557-9.475 15.186-21.662 19.719-36.25 2.76-8.885 3.45-11.509 8.373-31.875 3.459-14.306 5.24-20.76 6.902-25 .539-1.375 1.978-5.312 3.198-8.75 2.565-7.225 6.09-13.99 9.04-17.342 3.069-3.487 22.518-2.257 29.605 1.873 2.726 1.588 5.144 3.327 5.373 3.866.229.538 1.073.99 1.875 1.005s4.585 2.967 8.406 6.562 9.951 9.068 13.623 12.161c9.23 7.779 10.032 8.633 14.029 14.933 4.218 6.65 4.261 7.339.915 14.685l-2.61 5.73-2.9-2.986c-1.596-1.643-4.08-5.237-5.523-7.987-3.481-6.638-11.392-16.595-21.418-26.957-6.46-6.677-9.228-8.65-13.125-9.358-2.717-.494-7.026-1.946-9.577-3.229-5.976-3.003-11.601-2.966-14.664.097-3.396 3.395-7.794 18.25-6.866 23.193.578 3.084 7.181 10.408 29.394 32.606 15.757 15.745 28.649 29.27 28.649 30.055 0 1.92-4.917 3.101-7.39 1.777-1.092-.585-6.26-5.76-11.483-11.499-17.39-19.104-29.18-30.52-36.339-35.189-11.056-7.208-10.068-8.359-14.81 17.255-4.432 23.945-4.61 24.419-13.813 36.875-4.827 6.53-10.708 14.406-13.07 17.5-15.919 20.844-27.407 37.241-33.281 47.5-6.547 11.433-14.586 29.628-17.122 38.75-.669 2.406-1.785 6.343-2.48 8.75-.694 2.406-1.66 7.457-2.144 11.224s-1.701 9.111-2.703 11.875c-2.607 7.191-4.766 15.88-7.149 28.776-8.623 46.66-10.028 49.375-25.558 49.375-8.576 0-16.016-3.144-20.286-8.572-10.88-13.83-13.666-44.368-7.852-86.077l.735-5.273-14.659.785c-14.302.767-14.712.715-16.843-2.109-5.023-6.66-6.197-2.848-19.442 63.12-3.175 15.813-6.906 31-8.29 33.75-10.944 21.73-13.754 25.814-19.426 28.245-9.17 3.931-10.53 3.925-16.861-.085m120.891-33.785c.425-.687-.386-1.25-1.801-1.25s-2.574.563-2.574 1.25.81 1.25 1.801 1.25 2.15-.562 2.574-1.25m8.112-8.316c3.624-2.14 4.97-6.314 5-15.496.015-4.97-1.79-7.438-5.44-7.438-1.349 0-4.976-1.478-8.06-3.286l-5.608-3.286-2.037 2.7c-1.12 1.485-2.735 6.381-3.588 10.88-2.18 11.489-.698 14.325 8.5 16.264 3.78.796 7.065 1.511 7.303 1.588s2.006-.79 3.93-1.926m.449-30.127c1.03-1.667-3.872-6.557-6.574-6.557-3.088 0-3.413 2.771-.648 5.536 2.054 2.054 6.22 2.642 7.222 1.02m-38.871-63.29c9.62-5.175 8.333-1.62 18.589-51.392.708-3.437 1.807-7.977 2.442-10.088 1.491-4.96 1.475-10.19-.033-11.123-1.724-1.065-2.879 1.798-8.252 20.448-4.311 14.962-5.226 16.983-8.63 19.058-2.093 1.277-4.228 2.323-4.743 2.326-1.778.009-.925-4.716 3.387-18.758 6.831-22.252 7.09-28.069 1.091-24.599-1.413.818-5.6 3.101-9.305 5.074-3.705 1.974-6.916 3.747-7.136 3.942-.432.382-3.828 14.133-6.475 26.22-.903 4.125-2.96 12.71-4.571 19.079-3.492 13.805-3.569 15.703-.817 20.36 3.657 6.192 12.288 6 24.453-.546m-10.732-22.85c-1.661-1.661-.873-7.917.998-7.917 2.007 0 4.419 3.707 4.419 6.793 0 1.939-3.811 2.73-5.417 1.124m64.167 22.083c0-.687-1.406-1.25-3.125-1.25s-3.125.563-3.125 1.25 1.406 1.25 3.125 1.25 3.125-.562 3.125-1.25m-36.25-83.125c0-1.03-.53-1.875-1.176-1.875-1.576 0-2.705 1.952-1.707 2.951 1.408 1.408 2.883.858 2.883-1.076m111.25-81.102c0-2.406.503-4.686 1.118-5.066s1.401-2.804 1.747-5.386c2.024-15.103 13.652-41.447 22.854-51.775 4.954-5.56 6.288-4.951 2.76 1.262-5.147 9.066-8.316 15.963-10.965 23.861-1.483 4.424-3.797 9.443-5.142 11.153-3.368 4.282-7.372 13.63-7.372 17.212 0 1.632-.562 2.966-1.25 2.966s-1.25 1.936-1.25 4.302-.562 4.649-1.25 5.073c-.742.46-1.25-1.004-1.25-3.602" style="fill:#000"/></svg>