<svg xmlns="http://www.w3.org/2000/svg" width="232.667" height="478.116" viewBox="0 0 232.667 478.116"><path d="M68.467 454.813c-2.432-6.704-6.254-18.094-8.492-25.313-3.057-9.86-5.843-15.78-11.197-23.8-13.76-20.608-23.44-43.32-31.158-73.11-7.713-29.77-7.516-48.003.771-71.196 2.46-6.885 5.572-18.686 6.915-26.223 3.783-21.234 5.548-23.93 18.556-28.339l9.375-3.178-.385-16.834-.386-16.834 12.422-6.496c14.393-7.527 22.635-9.339 26.514-5.828 4.24 3.837 10.872 14.719 12.948 21.244 1.9 5.973 1.96 5.032 1.534-23.781-.47-31.793-.496-31.967-7.902-51.875-3.229-8.68-4.592-14.638-5.067-22.147-.882-13.926.964-20.01 8.253-27.196 5.723-5.642 5.758-5.729 6.575-16.239C109.123 19.931 115.64 12 128.84 12c14.87 0 24.893 9.332 30.75 28.626 2.013 6.633 2.394 37.806.56 45.721-1.405 6.059 2.52 8.185 11.571 29.05 9.466 21.82 9.424 21.146 16.306 41.241 5.88 17.173 9.889 20.533 13.583 32.04 9.295 28.955 13.838 38.54 17.377 56.073 3.923 19.44 1.398 34.838-12.049 72.289-6.75 18.801-8.505 25.35-10 37.319-.998 7.984-3.504 23.447-5.57 34.362-3.185 16.83-3.756 22.867-3.756 39.718l2.664 21.945-5.87-.853c-7.945-1.155-7.245 4.017-6.261-28.156.494-16.156.435-29.369-.13-29.361-.566.007-3.79.85-7.165 1.875-9.542 2.894-10.818 2.61-9.906-2.202 1.147-6.054 2.759-7.495 7.41-6.623 2.571.483 5.595.007 8.368-1.314 3.65-1.741 4.67-3.189 6.405-9.098 3.762-12.807 4.33-19.061 3.083-33.902-.665-7.906-1.64-25.906-2.167-40-1.127-30.133-.816-29.24-15.627-44.912-5.599-5.924-14.605-17.382-20.015-25.462-5.43-8.111-12.709-17.207-16.25-20.308-6.69-5.857-17.054-10.568-23.251-10.568-2.687 0-4.323-1.046-6.358-4.063-1.506-2.234-4.749-5.842-7.204-8.017l-4.465-3.955-8.446 4.253c-11.992 6.04-17.315 11.002-17.315 16.142 0 5.238 8.96 23.232 14.772 29.665 2.438 2.698 6.562 5.993 9.165 7.32 6.026 3.075 18.841 6.113 25.884 6.137 4.727.016 5.316.307 4.458 2.205-2.279 5.042-2.028 14.926.506 19.891 3.172 6.22 10.718 14.011 18.915 19.531l6.394 4.306-5.125.82c-5.896.943-14.094-.941-18.858-4.334l-3.287-2.34-7.703 14.19c-6.91 12.73-8.03 15.844-10.894 30.281-5.313 26.79-2.577 39.97 13.167 63.435 9.633 14.359 9.833 15.536 2.983 17.587-2.198.659-3.135.074-4.684-2.92-1.064-2.06-4.631-7.01-7.926-11.002-9.86-11.946-11.47-14.797-14.05-24.882-3.168-12.39-3.153-26.017.046-42.179 2.107-10.645 4.198-16.131 12.94-33.955l10.428-21.26-2.34-3.133c-1.287-1.723-2.679-5.998-3.093-9.499l-.754-6.365-6.193-1.43c-3.406-.786-6.647-1.429-7.203-1.429-.555 0 .85 3.516 3.123 7.813 5.62 10.623 7.66 24.65 4.806 33.056-2.657 7.828-4.923 11.085-9.817 14.109-5.245 3.242-13.095 3.244-19.442.006-6.224-3.175-8.438-6.572-10.736-16.468-1.605-6.916-2.757-8.826-9.313-15.456l-7.482-7.565-8.367.302-8.368.303-2.36 6.637c-2.178 6.123-2.253 8.093-.974 25.388 2.178 29.467 7.888 51.311 19.237 73.594 6.607 12.972 17.522 28.52 24.997 35.61 5.514 5.229 13.98 6.716 19.107 3.356 4.134-2.709 4.738-2.036 3.699 4.12-1.183 7.001-4.275 9.439-10.94 8.624-2.939-.359-6.215-1.013-7.281-1.454-3.447-1.424-.858 16.689 3.967 27.755 3.929 9.01 3.988 9.391 1.718 11.051-1.292.945-5.688.83-6.512.83s-.823-4.596-3.255-11.299zm134.691-157.74c11.56-35.758-1.36-71.4-6.388-87.957-6.149-20.246-11.401-32.667-13.963-40.576-3.767-11.63-10.696-31.258-19.922-47.785-5.183-9.284-10.755-19.002-12.381-21.595-1.627-2.593-5.707-10.468-9.067-17.5-7.14-14.945-12.799-21.29-20.779-23.3-11.774-2.964-18.046 3.627-18.046 18.962 0 14.41 6.772 29.302 12.995 42.675 2.038 4.38 2.449 6.33 4.695 10.358 1.707 3.06 6.6 16.245 10.743 24.39 3.627 7.13 5.337 15.224 8.607 23.54 4.339 11.033 11.326 35.594 13.69 40.19 2.833 5.51 10.773 15.66 21.823 27.9 18.361 20.338 19.916 24.555 19.996 54.233.056 20.939.09 20.924 7.997-3.536m-37.421-100.12c-4.125-1.24-9.295-2.298-11.49-2.353-3.747-.094-6.448-1.954-4.975-3.428.364-.363 6.023-1.348 12.577-2.187l6.29 1.137 3.728 2.354c1.818 1.148 3.708 3.633 4.047 4.837.744 2.64-.307 2.603-10.177-.36m-25.625-42.193c0-2.04 8.59-11.847 13.2-10.365 13.797 4.434 6.109-1.217 8.477 3.69 2.338 4.844 1.913 2.665-1.566 2.665-2.001 0-7.204 1.118-11.563 2.484-9.259 2.902-8.548 2.776-8.548 1.526m-12.504-35.255c3.372-4.736 9.229-5.58 12.944-5.049 2.818.404 9.642 1.628 7.965 3.305-.877.878-19.23 5.463-21.928 5.48-1.134.005-.817-1.158 1.02-3.736m-40.368 178.5c3.796-3.68 4.122-4.613 4.122-11.801 0-4.294-.575-8.162-1.277-8.595-.702-.434-3.374.236-5.938 1.488-4.393 2.147-6.725 4.377-6.601 9.68.072 3.093.25 7.132.755 8.612.725 2.12 1.218 1.696-.97 2.39-2.17.689-.92.234.428 1.089 3.02 1.912 5.249 1.239 9.48-2.863m-16.102-8.487c-.77-4.232-.69-7.062.25-8.817 1.992-3.722 8.69-7.44 13.411-7.446 2.234-.002 4.063-.59 4.063-1.305 0-2.464-5.322-11.847-11.4-20.1-3.352-4.55-9.976-14.675-14.72-22.5-4.742-7.823-9.565-14.415-10.715-14.646-2.682-.54-11.292 5.41-14.647 10.122-2.34 3.285-2.482 4.502-1.472 12.593 1 8.006.818 9.656-1.714 15.554-1.558 3.63-2.832 6.802-2.832 7.05 0 .25 1.928.679 4.285.954l4.285.5-.682-5.76c-.51-4.311-.052-6.989 1.823-10.643l2.505-4.883 3.37 11.217c2.998 9.982 3.925 11.63 8.413 14.967 7.454 5.542 10.975 10.817 12.991 19.458 1.693 7.255 2.642 9.917 3.538 9.917.209 0-.13-2.805-.752-6.232m65.224-98.525c-2.841-10.915-5.906-19.836-9.859-26.89-1.636-2.918-3.378-7.457-5.767-10.22l-4.659-5.39v19.895c0 14.313-.164 20.958.828 22.05 1.474 1.62 15.151 7.508 17.894 7.702 1.083.076 2.83-2.278 1.563-7.147m-63.1-12.086c4.11-3.076 9.051-5.94 10.978-6.364 3.696-.813 3.929-2.65.601-4.749-5.498-3.468-23.097 7.926-21.46 13.894.425 1.546 1.14 2.812 1.588 2.812.45 0 4.18-2.517 8.292-5.593m75.351-137.485C144.767 31.018 136.033 22 129.802 22c-3.517 0-5.051.763-6.914 3.438-3.265 4.687-5.276 11.01-5.276 16.584 0 4.492.17 4.672 5.091 5.332 7.19.964 14.358 6.415 21.035 15.997l5.749 8.249.94-11.363c.833-10.051.624-12.222-1.814-18.815m-26.502 190.103c1.075-3.599 8.796-9.78 4.171-8.97-4.225.742 6.244-3.557 7.241-2.56.868.867-3.42 9.545-7.177 14.526-2.037 2.7-5.974 2.822-4.235-2.996m-45.266-13.158c-5.012-3.055-13.488-16.96-10.014-16.96.547 0 5.84 2.547 9.589 4.936s8.582 7.91 9.653 7.927c1.072.018 7.336-2.852 11.387-5.291 5.478-3.299 6.726-4.636 10.025-4.359 3.918.33 3.295-1.556 3.621 1.769.33 3.358-.345 4.19-6.25 7.715-11.485 6.856-21.308 8.35-28.011 4.263" style="fill:#000"/></svg>