<svg xmlns="http://www.w3.org/2000/svg" width="335.812" height="438.087" viewBox="0 0 335.812 438.087"><path d="M61.26 424.014c-1.158-1.768-3.457-4.565-5.108-6.216-4.742-4.743-6.002-13.928-6.9-50.286l-.833-33.75-4.057-7.828c-3.144-6.064-5.16-13.388-8.95-32.5-2.69-13.57-7.776-36.766-11.303-51.547-13.575-56.896-12.88-52.77-11.254-66.829 3.554-30.727 18.147-56.224 42.534-74.316 9.981-7.404 18.028-11.429 27.88-13.945 8.638-2.205 9.586-3.588 9.586-13.979v-8.89l6.091-5.871c6.869-6.62 15.408-10.36 30.604-13.401 9.553-1.912 13.687-1.619 20.892 1.481 1.555.67 2.278-.527 3.485-5.765 1.618-7.022 9.412-21.272 13.814-25.256 5.474-4.954 46.967-3.742 61.794 1.805 6.799 2.544 13.32 8.352 13.32 11.863 0 3.015 2.83 3.713 18.126 4.477 22.95 1.145 40.668 8.361 45.935 18.708 3.25 6.383 2.756 18.996-1.56 39.918-2.057 9.969-3.743 19.339-3.745 20.822-.005 2.727 11.91 45.062 15.595 55.411 4.476 12.568 7.146 25.677 6.513 31.976-1.239 12.34-5.188 17.951-50.636 71.937-11.218 13.326-24.229 29.854-28.912 36.73-21.296 31.26-32.915 61.638-35.749 93.457-.776 8.72-1.219 9.961-4.346 12.188-6.35 4.522-6.6 3.93-5.663-13.458 1.098-20.408 3.69-38.305 6.69-46.203 2.024-5.326 10.712-20.851 23.983-42.86a579 579 0 0 0 6.612-11.314c3.629-6.408 7.148-10.72 26.058-31.924 28.219-31.644 42.324-50.014 48.666-63.38 4.887-10.3 3.998-18.342-4.019-36.335-7.839-17.594-14.63-39.478-15.976-51.475-1.311-11.692-3.372-14.272-16.06-20.111-5.808-2.673-11.403-6.483-15.422-10.502l-6.308-6.308-12.147.836-12.148.837-2.856 7.963-2.856 7.963h-5.95c-4.65 0-7.15-.85-11.45-3.897-7.187-5.092-21.125-18.732-21.125-20.673 0-.908 4.63 1.634 10.595 5.76 10.282 7.113 23.172 13.193 28.579 5.956l3.548-4.75-4.97-4.01c-2.733-2.206-7.83-7.484-11.328-11.73-3.498-4.245-7.624-8.605-9.17-9.687-6.555-4.592-17.647-.782-22.647 7.78-3.758 6.434-4.246 18.506-1.04 25.75 3.104 7.02 16.267 21.036 27.753 29.552 8.926 6.618 21.944 13.255 28.368 14.463 4.05.762 5.158 2.162 2.843 3.592-.67.415-3.204 4.302-5.629 8.638-6.108 10.922-9.462 24.872-9.5 39.506-.035 13.22 1.263 19.042 5.172 23.203 3.646 3.881 2.89 8.795-1.282 8.327-6.446-.723-11.883-8.469-13.267-18.898-1.296-9.77 1.816-41 4.648-46.645 2.726-5.43 2.917-7.241.765-7.225-2.674.02-7.188 17.559-7.188 27.93v9.39l-5.561 4.558c-5.592 4.583-19.973 10.535-25.57 10.584-1.654.014-4.851-1.38-7.105-3.099-2.253-1.719-4.415-3.125-4.805-3.125s-.709 2.162-.709 4.804c0 12.238-9.652 20.807-25.059 22.246-7.616.711-8.719.467-17.21-3.809-6.513-3.28-9.441-5.527-10.382-7.967l-1.31-3.399-2.325 4.494c-1.807 3.494-4.027 5.232-9.976 7.813-4.209 1.825-8.88 3.313-10.382 3.306-6.433-.027-24.606-13.938-24.606-18.834 0-1.271 1.125-5.166 2.5-8.654 2.734-6.934 3.133-11.923 1.334-16.655-1.88-4.945-8.627-11.835-15.213-15.534l-6.118-3.436-.001-14.042-.002-14.042 4.363 2.08c4.814 2.296 5.073 2.841 6.25 13.19.698 6.137 1.682 8.234 6.746 14.375C75.932 168.319 77.079 171 77.634 184.34c.53 12.75 1.485 14.946 7.969 18.3 4.79 2.477 10.134 2.164 13.92-.814 3.767-2.963 11.845-18.826 12.358-24.267.323-3.424-.026-3.767-4.65-4.568-4.69-.813-12.075-2.31-16.903-.344-9.02 3.673-19.324 7.06-14.773 1.146 1.664-2.162 3.85-4.771 7.503-7.526.358-.358 7.763-4.257 13.55-4.13 8.554.188 5.152-1.509 8.554.188 4.438 2.214 7.161 2.078 3.948-6.375-3.613-9.507-4.969-16.489-6.23-32.088-1.324-16.376-2.926-22.49-6.946-26.51-3.636-3.637-10.226-3.941-14.472-.668-1.64 1.263-6.638 4.189-11.107 6.501-5.392 2.79-11.716 7.798-18.804 14.89-9.056 9.06-11.742 12.778-17.66 24.436-5.045 9.939-7.147 15.598-7.584 20.418-.391 4.316-1.014 9.788-.115 10.014.764.192 5.564 3.235 10.795 3.105l9.705-.24 6.373-4.578 6.374-4.579c13.821-2.494 5.796 1.253 8.664 1.889 2.528.56 2.07 3.616 1.334 3.896s-9.16 3.96-12.864 6.346c-3.703 2.386-8.64 4.695-10.973 5.133-4.583.86-15.652.004-19.496-1.507-2.263-.89-2.334-.417-1.49 9.976.507 6.253 2.49 16.079 4.647 23.019 4.5 14.483 11.625 44.796 17.978 76.483 2.55 12.719 5.726 25.264 7.06 27.877 3.494 6.851 11.378 11.348 24.447 13.944 6.03 1.197 12.498 2.97 14.374 3.941 3.414 1.765 6.766 6.374 5.533 7.607-.36.36-8.395-.23-17.854-1.312-9.46-1.083-17.393-1.774-17.631-1.536-3.191 3.191-3.364 49.516-.267 71.627 1.678 11.983 1.276 14.43-1.64 9.979m89.971-221.19c6.285-6.899 6.568-10.7 2.955-39.687-4.266-34.232-4.244-33.54-1.418-43.736 3.547-12.8 3.385-27.022-.498-43.695-1.672-7.181-4.127-14.494-5.456-16.25-2.212-2.925-3.153-3.18-11.161-3.032q-41.395.763-26.038 43.182c3.098 8.559 4.642 15.593 5.663 25.802.777 7.772 2.846 18.623 4.636 24.32 1.779 5.656 3.454 11.046 3.723 11.976.279.963 1.338 1.367 2.459.937 1.083-.416 5.719-1.066 10.302-1.445 12.148-1.004 17.733-1.1 19.964 10.034 1.63 8.136 5.196 8.3 3.254 11.263-1.615 2.466 3.418 6.543.118 6.543-4.717 0-5.616-5.368-6.924-11.193-1.26-5.604-9.569-8.311-13.055-9.187-7.668-1.924-14.414 6.822-16.75 21.718-1.065 6.794-.977 7.154 2.544 10.444 4.082 3.813 6.136 4.404 16.151 4.649 5.764.14 7.413-.316 9.531-2.642m41.884-22.687c4.203-2.755 6.532-8.545 6.578-16.36l.037-6.265-5.768-2.613c-6.48-2.936-15.418 2.212-17.75 3.79-2.996 2.028-3.096 8.877-2.365 12.703 1.511 7.903.612 10.3.612 10.3-6.25-.334-9.318-2.014-8.204-13.273.378-3.82.534-9.366.534-9.366l7.711-8.314c3.932-4.238 5.649-3.922 8.398-4.643 4.245-1.115 13.863.343 17.554 1.827 1.461.588 3.5-3.649 4.716-8.192 1.526-5.701 1.469-6.053-1.264-7.844-9.972-6.536-24.791-21.325-34.446-34.377l-2.773-3.748-.04 4.589c-.022 2.524-1.213 9.53-2.647 15.568-2.065 8.696-2.438 13.07-1.794 21.036 2.44 30.182 8.387 46.618 17.527 48.436 3.537.705 9.587-.767 13.384-3.254m102.86-98.954c1.01-4.769 1.847-11.514 1.859-14.988.019-5.512-.497-6.813-4.041-10.2-5.088-4.86-9.994-6.882-25.269-10.412-10.831-2.503-12.814-2.63-18.752-1.206l-6.64 1.593-2.014 10.146c-1.108 5.58-2.014 10.755-2.013 11.499 0 .874 2.413 1.153 6.818.787 9.837-.815 12.002.082 21.73 9.01 4.811 4.415 9.983 8.689 11.494 9.497 4.419 2.365 13.001 4.672 14.037 3.773.525-.455 1.78-4.73 2.791-9.499M172.24 53.124c5.302-7.222 14.8-12.487 22.529-12.487 5.725 0 14.899 5.6 25.845 15.78 3.237 3.008 6.37 5.47 6.963 5.47 1.019 0 4.05-21.767 4.036-28.974-.008-3.79-1.806-4.344-25.633-7.897-24.262-3.618-31.862-1.951-37.025 8.121-3.354 6.545-6.1 18.383-6.1 26.304 0 8.654 1.288 10.29 3.37 4.28.865-2.5 3.572-7.269 6.015-10.597m1.865 279.745c-15.099-5.794-35.356-32.245-42.278-55.204-4.214-13.976-4.5-32.588-.629-40.778 6.003-12.7 6.574-12.259 6.618 5.113.07 27.864 7.479 47.766 25.333 68.049 11.394 12.944 18.639 15.597 28.648 10.49l5.092-2.598 3.659 3.505c4.884 4.68 4.19 7.715-2.577 11.285-6.9 3.64-14.622 3.685-23.865.138m83.75-201.71c0-3.244 7.72-16.16 12.826-21.46 3.366-3.492 4.77-4.062 10.011-4.062 5.129 0 6.032.348 5.689 2.188-.224 1.203-2.346 3.155-4.716 4.34-2.37 1.183-8.696 6.513-14.059 11.845-7.465 7.422-9.75 9.097-9.75 7.15" style="fill:#000"/></svg>