<svg xmlns="http://www.w3.org/2000/svg" width="341.451" height="450.062" viewBox="0 0 341.451 450.062"><path d="M65.231 420.4c-.982-22.02-2.603-29.067-6.058-38.96-2.062-5.903-3.296-10.296-14.16-20.856-7.073-6.875-9.167-17.153-9.95-19.215-1.973-5.193-9.059-47.752-10.669-64.435-.73-7.562-3.011-21.062-5.07-30-6.747-29.296-7.302-32.407-7.324-41.04-.035-13.991 10.612-40.543 27.853-69.457 12.69-21.282 25-32.766 45.056-42.032 10.789-4.985 11.65-5.113 14.86-2.208 2.253 2.04 2.51 1.94 5.636-2.188 1.802-2.378 7.252-8.329 12.112-13.222 6.798-6.845 10.506-9.513 16.07-11.563 3.98-1.465 8.528-2.665 10.108-2.665 2.437 0 3.18-1.104 4.895-7.27 2.608-9.38 6.382-13.025 18.205-17.58 20.557-7.92 33.446-7.728 42.308.63 2.48 2.34 4.564 4.105 4.63 3.924.066-.18 1.45-2.974 3.076-6.208 4.52-8.99 10.441-15.12 19.137-19.81 7.241-3.904 8.802-4.262 18.532-4.244 7.77.014 12.899.793 19.082 2.897 11.718 3.988 12.396 4.866 11.385 14.734l-.83 8.098 4.87-3.333c4.175-2.858 5.78-3.242 11.271-2.692 7.182.719 14.247 3.958 23.182 10.629 7.127 5.32 7.11 5.194 4.112 31.475-2.469 21.645-5.045 36.681-6.87 40.09-.792 1.481-5.184 6.746-9.759 11.7s-11.533 13.226-15.464 18.382l-7.146 9.375 4.4 15.54c2.419 8.546 6.684 23.132 9.477 32.413 6.448 21.43 7.335 32.086 3.755 45.134-4.832 17.613-18.487 43.522-37.48 71.116-15.83 22.996-31.232 39.667-45.86 49.637-16.941 11.547-20.785 20.254-21.394 48.468-.321 14.857-.703 17.716-2.543 19.062-5.507 4.027-5.684 3.16-5.115-24.979.317-15.63 1.153-28.479 2.033-31.218 2.705-8.426 8.808-14.833 19.54-20.514 11.963-6.332 20.374-14.866 35.337-35.851 20.425-28.647 40.806-66.134 44.732-82.28 1.905-7.835 1.879-8.156-1.863-22.325-9.644-36.517-14.833-55.933-15.557-58.213-.623-1.964-2.601-2.768-9.47-3.85-17.03-2.68-26.431-11.653-27.351-26.104-.612-9.609 1.8-15.48 14.026-34.14 13.47-20.56 13.918-23.587 4.188-28.294-12.54-6.066-12.361-4.534-2.68-22.948l7.416-18.788 10.017 1.979c2.415.476-12.689.207-12.442.413.246.207 10.534-3.624 8.09.4-4.293 7.067-9.262 28.374-8.558 28.912 1.71 1.305 8.559 2.75 9.075 1.915.363-.588 1.023-4.632 1.467-8.988.443-4.355 1.565-10.099 2.492-12.763 2.957-8.5 2.387-10.171-4.484-13.127-9.387-4.038-20.477-3.677-27.696.901-7.377 4.679-14.221 12.813-18.569 22.07-6.02 12.818-6.951 19.046-6.825 45.625l.115 24.375 6.76 25.522 6.76 25.522 6.874 3.689c14.624 7.844 23.408 18.146 26.834 31.468 2.965 11.528 2.323 18.895-2.782 31.924-.839 2.142-2.529-7.942-2.692-16.065-.136-6.729-7.9-23.83-13.944-30.714-8.825-10.052-15.951-10.732-32.416-3.092-6.751 3.133-10.955 6.663-24.873 20.883-33.795 34.532-42.726 51.693-49.715 95.531-1.889 11.844-2.582 13.865-5.796 16.893l-3.651 3.44.858-12.5c1.741-25.342 8.903-50.455 19.49-68.344 2.715-4.589 4.937-8.602 4.937-8.919 0-.316-3.233-.978-7.186-1.472-9.063-1.133-13.493-3.412-15.98-8.22-2.202-4.26-.896-4.724-12.506 4.447-3.788 2.992-5.834 3.7-10.194 3.532-11.138-.431-16.986-18.85-28.01-32.699-7.16-8.993 1.268 4.803-11.036-17.125-3.438-6.127-4.364-14.519-5.45-16.808-4.157-8.758-8.012-16.834.101-21.567 3.226-1.882 3.928-1.932 5.222-.372 1.161 1.398 1.152 3.334-.04 8.662-1.958 8.749 2.333 12.826 8.783 25.788 3.217 6.464 10.696 18.383 10.696 18.383s11.511 22.288 16.317 24.89c7.653 4.142 15.174-2.002 20.376-16.16 3.102-8.444 3.366-10.535 1.091-8.648-1.1.914-2.493.787-4.687-.427-4.74-2.624-11.278-2.104-16.872 1.341-2.75 1.694-5.58 3.083-6.288 3.086-1.665.01-4.606-7.731-3.389-8.917 1.265-1.232 17.162-4.828 21.317-4.822 1.848.002 5.202 1.128 7.453 2.5s4.36 2.495 4.688 2.495.594-2.154.594-4.786c0-3.388-2.415-18.906-6.947-25.588-4.163-6.138-4.309-11.54-9.558-24.702-4.59-11.511-2.743-12.847-7.122-17.908-2.474-2.86-5.723-6.756-7.22-8.66l-2.722-3.462-8.22 3.727c-10.51 4.765-21.9 12.755-26.581 18.646-4.338 5.457-17.331 26.753-22.243 36.455-3.186 6.293-8.137 19.24-8.137 21.28 0 .474 3.173-.739 7.052-2.695 4.206-2.121 9.046-3.557 11.997-3.557 4.358 0 5.672.78 11.052 6.563 3.358 3.61 6.115 7.056 6.127 7.66.035 1.73-9.408-.228-15.594-3.234-5.59-2.715-5.645-2.717-8.612-.298a2743 2743 0 0 1-10.512 8.482c-4.139 3.326-7.837 7.239-8.218 8.695-.38 1.457.918 8.86 2.887 16.453 5.12 19.752 4.997 36.887 11.53 77.158l5.15 31.747 9.944 22.048c13.415 20.499 21.683 16.742 26.217 18.1 4.199 1.258 9.406 2.033 13.64-.094 6.366-3.2 14.284-5.238 14.284-5.238 1.099 1.291-11.996 10.858-16.449 12.718-3.32 1.388-5.457 1.523-8.922.566-2.507-.692-8.882-.354-9.15-.086s-.86 5.678-.504 12.103c.474 8.546 1.41 16.233 2.16 26.229 1.795 23.973 1.076 17.85-2.305 19.39-1.672.762-2.982-.211.231-.211.208 0-5.78-6.593-6.252-17.16m97.745-203.404c6.027-4.33 6.178-4.593 5.599-9.755-.392-3.498.288-7.815 1.995-12.666 1.425-4.048 3.538-14.204 4.695-22.569 2.083-15.051 2.077-15.3-.603-24.126-1.49-4.905-3.539-9.747-4.553-10.761-2.288-2.288-13.507-4.801-16.525-3.702-1.227.447-4.762 2.886-7.856 5.42-6.651 5.448-10.622 7.684-11.71 6.595-2.919-2.918 1.703-13.178 7.804-17.324 3.753-2.55 5.993-3.049 13.705-3.049 8.292 0 9.128-.22 8.31-2.187-.498-1.203-3.562-9.5-6.806-18.438-6.736-18.553-9.93-25.249-13.652-28.615-2.575-2.328-2.688-2.317-7.32.77-6.664 4.441-21.017 18.754-23.37 23.306-1.914 3.7-1.842 4.105 2.031 11.493 3.536 6.745 4.78 14.809 8.006 26.107l4.34 15.2c2.427 8.502 9.214 17.062 10.413 25.49.313 2.2 1.636 2.598 11.048 3.323 5.88.454 11.902 1.472 13.381 2.264 4.54 2.43 13.19 7.898 11.257 17.558-.611 3.06-.369 4.54-2.694 4.54-2.788 0-1.564-.666-1.913-7.558-.422-8.333-10.294-8.288-19.97-9.054-10.019-.793-13.264 1.108-14.235 8.337-.95 7.071.418 12.017 5.114 18.501 4 5.521 9.861 8.066 14.601 6.339 1.493-.544 5.502-2.992 8.908-5.439m39.369-38.236c4.326-3.034 5.89-4.914 5.625-6.764-.524-3.661-5.007-3.877-13.018-.625-7.273 2.952-9.197 5.193-9.268 10.794-.024 1.936-.848 4.926-1.83 6.644-3.55 6.208-1.74 6.306 5.312.288 3.953-3.374 9.884-8.026 13.179-10.337m10.958-33.841c-9.782-39.897-10.5-45.384-9.487-72.569.84-22.572.784-23.42-1.734-25.937-7.222-7.222-39.06 1.602-43.419 12.033-2.222 5.32-2.143 14.601.163 19.06 1.016 1.965 4.135 10.515 6.931 19 2.796 8.486 8.785 23.225 13.308 32.753 6.7 14.115 8.343 18.818 8.87 25.379.542 6.758.97 7.925 2.657 7.254 1.106-.44 5.253-1.414 9.215-2.165 6.083-1.152 7.882-1.041 11.563.714 2.397 1.143 4.358 2.613 4.358 3.267 0 2.122 2.552 7.966 3.197 7.321.345-.344-2.185-12.094-5.622-26.11m64.038-2.497c5.53-2.772 12.137-8.313 12.137-10.18 0-2.211-.386-8.953-4.68-11.644l-8.482-5.317-6.424-.036c-1.78-.01-6.074 5.179-7.45 7.047-2.145 2.917-16.013 10.608-13.26 7.041l2.876-3.729 4.415-7.787c2.165-3.819 15.792-11.77 18.598-11.129 5.669 1.294 9.95 4.345 15.812 10.182l5.78 5.756 6.927-9.096c7.819-10.266 9.03-13.869 11.581-34.434 2.887-23.267 2.753-24.375-3.493-28.968-17.148-12.611-28.314-4.734-33.567 23.681-2.172 11.748-5.157 17.244-23.57 43.395-1.753 2.49-4.537 7.588-4.537 9.95 0 7.976 11.899 17.889 19.212 17.9 1.574.004 5.23-1.181 8.125-2.632" style="fill:#000"/></svg>