<svg xmlns="http://www.w3.org/2000/svg" width="245.914" height="533.672" viewBox="0 0 245.914 533.672"><path d="m78.43 519.893-4.422-1.778 2.902-14.035c1.986-9.607 2.79-17.22 2.547-24.133-.434-12.383-1.818-14.481-19.736-29.908-20.235-17.421-20.956-19.49-27.418-78.743l-2.318-21.25-9.124-18.501c-9.768-19.807-10.567-23.506-6.696-30.993 2.91-5.628 15.076-17.585 27.438-26.97 14.39-10.922 14.27-10.729 16.264-25.927 2.919-22.234 10.85-48.586 16.246-53.982 1.529-1.53 5.582-3.775 9.008-4.992l6.228-2.212 1.863-29.196c2.047-32.074 2.494-40.635 3.353-52.038l1.313-17.421.792-10.392c.713-9.345 1.495-16.123-.961-27.735l.402-13.032 2.75-9.931c3.324-12.013 10.35-13.165 20.764-14.399 8.01-.948 11.611.051 16.894 4.69 3.812 3.347 5.723 7.06 10.105 19.637.442 1.27 1.337 1.204 4.27-.312 9.772-5.053 26.756.02 30.198 9.02.592 1.549 3.444 18.515 5.59 34.392 3.558 26.309 3.396 22.145 5.49 37.934l3.13 23.61.856 49.11-.583 48.39 3.183 8.75c6.03 16.573 8.64 22.574 20.4 46.903 18.597 38.47 16.395 65.307 10.724 82.66-3.2 9.794-4.866 12.236-8.068 19.629-7.106 16.4-9.217 17.512-12.316 23.982-2.655 5.542-2.378 5.072-5.208 16.941-4.953 20.771-7.054 32.88-7.136 41.135-.161 16.191-3.801 25.687-9.071 23.665-1.707-.655-2.105-2.533-2.105-9.934 0-16.733 7.76-56.406 11.34-62.984.813-1.493 3.247-11.403 6.561-16.263 3.09-10.796 6.83-11.525 11.435-24.013 3.281-9.123 7.414-17.809 8.607-28.775 2.816-25.895 1.464-29.629-18.645-69.347-6.307-12.458-12.432-25.178-13.612-28.266-1.55-4.061-3.412-6.315-6.727-8.143-8.758-4.83-9.806-4.755-12.704.926-3.309 6.486-10.895 14.934-14.714 16.386-3.686 1.401-8.16-.786-18.728-9.155-7.444-5.895-7.813-6.445-7.813-11.64v-5.452l3.848 1.341c2.116.738 7.15 4.4 11.188 8.137 8.277 7.663 9.124 7.651 16.043-.229 5.634-6.416 5.137-8.262-3.3-12.27-3.972-1.886-9.737-5.678-12.812-8.426-9.921-8.868-13.96-7.814-18.868 4.924-8.054 20.906.592 40.034 23.918 52.918 4.46 2.463 9.938 4.86 12.175 5.327 4.327.903 6.78 3.72 23.286 26.73 4.62 6.44 8.182 11.925 7.918 12.189s-5.003-2.755-10.53-6.708c-6.741-4.82-11.433-9.326-14.244-13.68-5.116-7.922-11.113-10.279-11.126-4.372-.007 3.54-4.778 10.195-9.162 12.781-3.443 2.032-4.94 4.505-8.861 14.639-6.001 15.507-7.576 25.198-5.873 36.135 2.715 17.443 13.117 30.708 30.785 39.26 5.545 2.684 11.89 5.241 14.098 5.683 4.38.876 4.904 2.34 2.144 5.986-1.748 2.309-2.038 2.281-11.216-1.066-11.556-4.215-22.096-10.925-28.992-18.457-9.467-10.34-12.885-19.438-13.983-37.222l-.81-13.125-9.492-.772c-22.907-1.863-31.55-8.822-40.46-32.575-2.066-5.506-2.798-6.136-12.61-10.844-9.64-4.626-10.478-5.33-11.254-9.466-1.679-8.952 2.737-22.273 8.345-25.173 4.363-2.256 4.416-1.759 1.007 9.464-2.392 7.875-2.441 8.808-.643 12.285 1.42 2.748 3.819 4.464 8.886 6.36 3.816 1.428 8.021 2.596 9.344 2.596 1.781 0 2.76 1.377 3.774 5.312 3.78 14.675 6.77 21.173 12.05 26.184 7.488 7.107 17.484 8.957 28.365 5.25 5.958-2.03 8.303-4.822 9.996-11.899.718-3.002.245-3.501-5.617-5.937-7.296-3.033-13.864-3.439-15.902-.983-.765.922-1.296 5.134-1.18 9.36s-.152 8.047-.597 8.492-2.155-.072-3.8-1.15c-6.046-3.961-4.956-15.772 2.104-22.806 3.53-3.517 3.777-4.228 2.404-6.934-.963-1.897-1.252-5.403-.78-9.46.735-6.31.632-6.576-4.881-12.5-3.098-3.33-7.92-10.621-10.715-16.203-3.618-7.223-5.913-10.371-7.964-10.92-9.32-2.497-18.011 1.003-34.629 13.944-17.86 13.909-28.877 26.556-28.877 33.151 0 .963 2.76 7.646 6.134 14.852 9.443 20.171 10.315 23.48 11.471 43.497 1.598 27.672 8.255 58.601 13.926 64.71 1.565 1.684 7.854 6.658 13.976 11.051 10.214 7.33 11.66 7.989 17.536 7.989 4.746 0 8.766-1.132 15.532-4.375 5.021-2.406 9.673-4.375 10.338-4.375 1.444 0 4.867 7.691 4.027 9.05-.323.522-1.45.95-2.506.95s-6.926 2.39-13.046 5.312l-11.126 5.313-.006 7.359c-.005 6.563-3.786 34.997-6.027 45.329l-.854 3.938zm56.78-206.341c-4.848-5.293-4.865-5.393-2.371-13.62l1.86-6.136-4.924-4.115c-8.23-6.878-16.297-24.07-16.297-34.729 0-2.208 1.686-10.684 3.747-18.835s3.748-16.167 3.75-17.811c.005-4.066-10.591-16.239-16.16-18.566-4.935-2.062-14.714-1.585-20.358.994-5.443 2.486-10.852 17.09-13.785 37.216-1.334 9.16-2.228 16.853-1.986 17.095.243.243 3.621-.633 7.508-1.945l7.067-2.386 4.03 3.765c2.217 2.071 4.276 3.52 4.576 3.22 1.034-1.034-3.613-8.578-8.655-14.047l-5.054-5.483 5.437 1.918c9.587 3.383 12.364 7.716 18.538 28.929 2.26 7.764 3.537 9.853 9.497 15.541 8.13 7.76 10.603 13.817 8.105 19.848-1.457 3.517-1.333 4.154 1.384 7.1 3.691 4 9.245 6.553 14.403 6.617l3.919.049zm13.76-1.87c1.62-4.58.06-9.109-3.732-10.836-2.813-1.282-3.551-1.175-4.99.723-2.306 3.04-2.237 3.45 1.548 9.169 3.644 5.506 5.476 5.747 7.175.944m37.558-154.855c-.757-10.312-1.636-25.597-3.271-33.526s-3.956-21.43-4.717-30c-3.303-37.167-7.11-42.226-12.597-46.843-3.23-2.718-4.15-2.91-8.55-1.794-2.712.689-6.471 2.86-8.353 4.823-3.045 3.179-3.538 4.92-4.476 15.815a2250 2250 0 0 1-2.074 22.596c-.898 9.116-.788 10.256.922 9.552 8.684-3.578 17.48-2.936 22.024 1.607 1.926 1.926 1.914 2.184-.183 3.717-2.77 2.026-4.491 2.064-8.603.19-2.742-1.249-3.605-1.071-6.077 1.25-1.584 1.49-4.11 2.707-5.613 2.707-2.33 0-2.726.689-2.692 4.687.021 2.579-.033-9.1 2.01 21.766 1.086 16.391.75 29.312 1.296 48.311.122 4.231 1.682 8.11 1.45 10.86l-.42 5 8.437.37 6.64 4.324 1.797.364c4.991 1.012-4.064 9.948-7.284 8.702-6.346-2.456-8.331-2.106-11.37 2.004l-3.016 4.08 5.523 4.911c9.336 8.305 16.325 12.51 27.396 16.482l10.626 3.814 1.097-33.51c.596-18.223.836-41.946.078-52.259m-50.2 44.781c.324-6.359.627-12.485.787-18.235.239-8.541-1.064-13.446-.79-26.347.23-10.891-1.411-17.252-1.048-19.124s.941-7.512-.472-14.731c-3.051-15.588-3.152-21.167-.716-39.375 3.807-28.445 1.783-51.329-5.207-58.871-2.593-2.798-3.672-3.138-7.607-2.4-11.241 2.109-15.993 8.525-17.348 23.426-.632 6.953 2.496 36.831 4.015 38.35.3.3 1.81-.637 3.354-2.084 5.232-4.9 12.62-6.494 18.952-4.086 2.039.775 2.932 1.864 2.485 3.028-1.106 2.881-4.115 3.399-8.02 1.379-3.525-1.823-3.687-1.763-7.027 2.617-2.779 3.642-4.074 4.386-6.914 3.969-2.996-.44-3.679.045-4.785 3.395-4.905 14.864-8.425 71.952-6.76 85.994l.926 7.81 7.733 2.327c8.452 2.544 17.127 11.804 21.425 19.137 4.927 8.407 6.335 7.167 7.016-6.179m-107.6 118.813c-3.256-3.256-.35-8.383 6.856-12.094 3.437-1.77 14.977-1.843 16.053-.101 1.402 2.268-2.055 4.945-6.387 4.945-2.295 0-4.898.884-5.785 1.965-5.908 7.2-7.86 8.162-10.737 5.285" style="fill:#000"/></svg>