<svg xmlns="http://www.w3.org/2000/svg" width="248.882" height="515.972" viewBox="0 0 248.882 515.972"><path d="M78.643 502.556c-1.547-.746-2.813-1.85-2.813-2.455 0-2.452 3.663-9.432 7.362-14.03 2.75-3.42 3.7-5.67 3.163-7.5-1.608-5.475-7.133-12.266-14.611-17.958-13.42-10.214-21.755-18.798-24.542-25.275-3.66-8.51-5.752-19.35-9.487-49.188l-3.235-25.832-11.2-20.566c-11.538-21.19-13.015-26.061-9.793-32.315 3.73-7.24 12.776-17.061 25.136-27.291 7.479-6.19 14.084-12.478 14.679-13.972.594-1.494 1.732-8.623 2.53-15.842 1.69-15.309 3.77-24.885 8.849-40.74l3.677-11.48 6.827-3.233c3.755-1.778 8.225-3.583 9.935-4.012 5.515-1.384 6.083-3.267 5.353-17.731-.517-10.224-2.415-16.73-3.615-29.042-2.058-21.099-2.977-27.586-2.865-46.374.086-14.427.103-14.848-2.323-35.98-2.085-18.153-.665-22.56.632-28.354 1.714-7.66 7.615-13.993 14.08-18.35 4.916-3.312 11.642-4.117 17.925-1.4 5.85 2.528 17.824 16.315 21.154 23.573 2.635 5.743 3.968 12.903 4.21 21.248.696 24.006.23 29.448 3.068 54.05 1.586 13.751 5.728 39.378 6.155 47.825.4 7.906 1.065 19.016 1.48 24.688.827 11.342.9 11.41 10.138 9.563l3.744-.749 2.418-20.824c2.944-25.357 6.341-31.323 8.504-44.552 2.756-16.859 4.207-13.852 2.815-47.397-1.071-25.803 2.138-35.715 7.294-45.89 5.27-10.401 15.568-9.286 22.056-8.673 7.602.718 18.657 14.599 21.527 21.685.98 2.418 1.942 12.504 2.411 25.274.483 13.135 2.78 20.825 3.104 29.634l.759 20.586-2.346 23.1c-3.447 33.94-7.166 42.928-7.52 84.18-.289 33.592-.505 36.724-2.949 42.717l-2.637 6.467 8.257 28.533c10.254 35.433 10.858 46.436 5.954 64.814-3.055 11.447-1.054 9.2-4.385 18.082-5.133 13.689-7.234 23.199-8.516 26.746-3.085 8.542-6.604 14.057-9.313 21.806-5.466 15.637-6.327 32.042-6.327 41.13 0 6.333 2.757 15.417.61 17.703-2.086 2.22-9.747-3.993-11.564-4.965-2.94-1.574-2.664-9.827 1.568-32.623 4.376-23.572 8.098-29.014 13.488-41.382l5.898-13.532c.958-4.774 3.556-9.425 4.513-15.552 1.873-11.986 2.313-11.514 4.197-24.857 1.725-12.217 4.937-29.038-4.106-50.204-2.813-6.583-9.052-17.154-10.356-23.49-5.059-24.586-8.332-29.305-25.065-36.137-6.351-2.593-11.668-4.555-11.815-4.36-.146.195-1.865 3.337-3.818 6.983-3.974 7.417-11.881 15.246-15.4 15.246-3.748 0-23.568-13.484-24.404-16.603-1.427-5.323-.886-8.397 1.478-8.397 2.839 0 12.4 6.092 16.4 10.449 1.667 1.815 3.952 3.301 5.078 3.301 2.506 0 7.766-5.458 10.518-10.912l2.036-4.037-8.456-4.272c-4.651-2.35-10.66-6.03-13.351-8.179-9.12-7.278-13.299-6.777-17.298 2.073-2.09 4.627-2.703 8.456-2.748 17.202-.066 12.562 1.385 16.751 8.806 25.422 5.558 6.492 21.439 16.143 29.362 17.842 5.882 1.261 6.618 1.922 17.023 15.277 5.982 7.678 12.872 16.459 15.313 19.514 2.44 3.055 3.593 5.06 2.561 4.456-14.757-8.643-22.383-14.61-26.127-20.445-2.273-3.542-4.496-6.449-4.94-6.458s-2.073-.356-3.62-.77c-2.297-.616-2.813-.247-2.813 2.015 0 4.852-3.987 11.394-8.945 14.675-2.642 1.748-4.812 4.089-4.82 5.2-.01 1.112-1.135 5.588-2.5 9.946-3.055 9.744-3.271 24.56-.497 34.037 3.192 10.9 13.03 28.32 20.753 36.75 6.4 6.984 15.068 12.713 22.651 14.971 3.475 1.035 1.214 3.193-3.345 3.193-18.84 0-50.136-37.608-52.843-63.5l-.776-7.431-12.026-.583c-20.186-.979-26.457-5.266-36.322-24.835-5.657-11.222-5.85-11.436-13.11-14.498-10.31-4.347-13.306-6.554-15.265-11.243-2.395-5.733-2.257-20.929.213-23.399 1.655-1.655 9.292-4.483 12.163-4.504.525-.004-.74 3.352-2.813 7.457-2.072 4.106-3.768 8.606-3.768 10 0 4.542 9.184 12.264 17.482 14.7 6.775 1.99 7.666 2.648 8.924 6.586.769 2.406 3.33 8.1 5.691 12.65 8.545 16.473 27.763 24.345 38.607 15.815 3.292-2.59 8.046-10.843 8.046-13.968 0-2.696-16.882-7.995-19.75-6.2-2.595 1.624-3.386 6.929-1.546 10.366 1.414 2.643.535 8.837-1.254 8.837-2.722 0-6.725-8.334-7.208-15.007-.475-6.566-.257-7.258 3.207-10.173 3.368-2.834 3.549-3.353 1.925-5.536-1.307-1.756-1.574-4.203-.986-9.033l.808-6.623-6.28-6.084c-3.772-3.655-8.106-9.744-10.858-15.252-9.591-19.201-15.34-19.295-37.701-.61-16.451 13.744-29.9 28.378-31.748 34.546-1.541 5.145-1.502 5.262 7.947 23.534 11.382 22.01 12.902 27.082 14.686 48.988 3.2 39.306 6.437 48.69 20.38 59.071 17.507 13.035 16.378 12.51 25.639 11.921 6.933-.44 9.648-1.323 15.864-5.16l7.5-4.627 2.813 3.217c3.329 3.808 3.645 6.828.713 6.828-1.154 0-7.342 2.655-13.75 5.9l-11.65 5.902v6.01c0 4.156-1.126 8.239-3.65 13.238-2.007 3.976-4.038 9.304-4.514 11.84-.921 4.912-2.602 5.579-7.774 3.084m62.041-184.237c.264-.221-1.283-2.41-3.437-4.863-4.344-4.948-4.55-5.932-2.488-11.85 1.235-3.541 1.127-4.269-.796-5.345-5.802-3.246-12.02-10.56-16.24-19.099-6.463-13.082-6.865-19.696-2.49-41.007l3.477-16.935-4.17-4.757c-6.288-7.172-12.23-11.475-17.112-12.39-6.365-1.194-17.531 1.6-19.656 4.919-2.052 3.205-9.125 34.926-10.29 46.147-.69 6.646-.547 7.603.956 6.385.972-.789 4.174-2.148 7.114-3.021l5.347-1.587-3.271-3.415c-3.164-3.303-3.202-3.52-1.162-6.635 2.055-3.136 2.214-3.169 6.05-1.235 7.035 3.547 10.726 8.193 14.696 18.496 5.497 14.264 6.704 16.304 14.811 25.018 7.847 8.435 10.727 14.792 9.413 20.775-.981 4.467 1.566 8.061 7.52 10.608 3.15 1.348 10.026 1.226 11.728-.209m8.896-9.188c0-2.748-4.798-7.82-6.439-6.807-1.777 1.099-1.197 3.326 1.657 6.365 3.324 3.538 4.782 3.672 4.782.442m66.346-79.616c.477-31.533 4.938-52.645 7.828-81.672.914-9.174 3.62-30.692-1.16-52.785-1.084-5.005.131-16.069-.36-25.35-.804-15.192-1.841-19.564-4.748-24.065-7.225-11.188-18.687-12.616-24.03-6.403-5 5.81-7.802 29.481-6.464 42.543.72 7.022-.688 8.815 5.05 6.394 2.19-.924 7.201-2.842 12.603-2.842 10.217 0 20.248 1.127 14.034 3.959-2.305 1.05-7.451 2.238-10.46.992-3.404-1.41-4.174-1.375-5.369.246-10.08 3.809-17.495 2.39-17.512 13.031-1.319 8.618-1.57 16.33-4.243 28.647-4.921 22.682-7.617 34.454-8.83 51.716-.914 13.006.596 9.424 8.269 13.971 3.635 2.155 3.908 2.69 2.512 4.926-1.85 2.961-4.844 3.08-15.966.634-12.99-2.857-24.426-2.409-32.324 1.268l-6.7 3.119.847-3.444c1.294-5.26 4.063-8.84 7.21-9.32 1.773-.27 1.426-1.546 2.364-2.278 0 0 1.202-9.892.753-25.284-.453-15.548-4.092-31.103-4.64-48.125-.665-20.625-1.463-29.987-2.106-40.625-2.107-34.814-4.232-42.167-21.969-55.272-4.316-3.189-2.498-2.398-6.393-2.478-5.576-.115-12.771 6.342-14.585 19.169-1.295 9.15-2.623 28.305 2.876 36.01l2.179 3.052 7.937-1.603c8.1-1.637 3.574-1.998 6.865-1.397 5.087.929 11.436 1.913 11.436 3.84 0 2.218-1.585 3.968-5.875 2.651-3.587-1.101-8.291-1.202-10.942 1.288-2.108 1.98-3.73-.135-5.93-.556-2.694-.515-5.38-.462-5.38 2.043 0 1.63.737 11.214-.657 17.473l.594 10.754 2.634 30.7c2.99 34.829 9.922 47.385 6.889 50.418-1.975 1.976-4.48-5.192 2.185-2.024 8.4 3.992 18.752 12.978 22.088 19.173 2.013 3.737 2.884 4.313 5.681 3.753 2.697-.54 4.891.694 11.946 6.716 12.916 11.025 15.717 12.683 28.32 16.768 13.78 4.467 28.007 12.066 34.42 18.384 2.558 2.523 5.132 4.217 5.72 3.765.586-.452 3.15-15.142 3.403-31.88M27.508 323.393c-.862-2.245 3.583-7.459 8.573-10.055 3.961-2.06 14.237-2.346 15.423-.427 1.486 2.404-3.32 6.171-7.875 6.171-3.113 0-4.998.87-6.772 3.125-2.765 3.516-8.19 4.204-9.349 1.186" style="fill:#000"/></svg>