<svg xmlns="http://www.w3.org/2000/svg" width="280.425" height="550.257" viewBox="0 0 280.425 550.257"><path d="M56.395 535.635c-18.311 5.752-13.458 2.141-15.554-11.842l-4.603-17.794c-2.755-10.65-15.707-79.168-20.197-98.657-6.035-26.193-5.297-63.889 2.126-108.68 3.253-19.625 3.025-18.97 9.441-27.069 9.552-12.056 9.672-12.378 10.126-27.237.522-17.06 2.339-21.776 10.604-27.52a2297 2297 0 0 0 6.534-4.551c.186-.135-1.337-7.28-3.384-15.877-2.048-8.598-6.556-21.719-8.295-29.594-3.6-16.289-6.23-26.103-9.874-40.889-2.232-9.057-2.919-13.117-3.42-26.724-.65-17.588 2.437-28.243 8.606-36.999 9.36-13.282 26.12-14.015 38.131-1.666 8.75 8.995 9.197 20.071 19.303 52.046 3.11 9.841 5.333 27.218 7.055 40.612 3.17 24.653 13.432 61.798 13.514 74.087.11 16.283-3.812-5.883-.193-5.353 2.374.348 2.835-.05 2.277-1.97-.385-1.324.933-10.393-.291-18.68l-.854-13.68-1.579-29.884c-.56-10.59.63-15.504.205-30.813-.38-13.666-5.364-76.011-5.364-87.846 0-5.301 3.62-8.075 8.057-14.577 0 0 15.565-12.478 21.807-12.478 7.18 0 15.322 4.825 19.46 11.532 4.79 7.764 7.178 20.028 8.854 45.462.757 11.48 1.926 21.932 2.6 23.224.672 1.293 3.338 25.922 3.77 32.085 1.01 14.394 1.306 20.294 1.806 31.669.813 18.504-1.168 33.137 3.579 51.546 2.443 9.473 2.833 5.622 4.463 3.34 1.44-2.015 6.204-3.79 4.7-19.631l1.651-15.186 1.316-14.407c.705-7.732 4.17-16.778 4.576-20.468s5.705-29.757 9.68-35.48c4.292-6.181 0 0 3.355-22.153 4.016-26.522 7.378-40.274 17.668-44.954 5.294-2.407 6.18-4.483 14.154-3.214 25.164 4.004 30.994 22.653 22.67 72.515-2.11 12.642-5.934 38.648-8.498 57.791-2.564 19.144-6.596 44.854-8.96 57.134s-6.325 36.514-8.803 53.851c-4.144 28.992-4.489 33.736-4.298 59.104l.208 27.582-5.828 21.672c-3.206 11.92-9.406 33.493-13.778 47.94-19.18 63.389-17.916 63.379-17.932 76.508-.017 13.568-1.53 13.862-9.692 9.86l-4.668-2.289.676-13.144c.578-11.233 1.697-16.39 7.698-35.472 7-22.263 15.497-50.896 20.252-68.256 2.994-10.93 3.305-9.28-9.41-49.953l-9.032-28.895-6.7-6.567a3858 3858 0 0 0-15.53-15.105c-8.374-8.096-9.185-9.42-15.68-25.612-8.88-22.14-11.662-25.027-33.867-35.152l-16.466-7.507-4.227 3.314c-5.19 4.07-10.005 12.335-12.017 20.629-.832 3.431-1.75 6.239-2.037 6.239-.288 0-4.1-1.858-8.472-4.128-11.629-6.04-28.023-13.105-28.727-12.382-1.245 1.28 1.176 12.427 3.904 17.98 4.012 8.164 12.621 13.735 36.246 23.456 21.997 9.05 33.107 15.456 34.799 20.065.596 1.622 1.73 7.915 2.52 13.985 1.108 8.505 2.51 13.005 6.11 19.625 8.271 15.204 14.384 20.443 33.658 28.844 2.572 1.12.86 1.409-8.792 1.48-14.118.105-16.988-1.243-26.833-12.598-6.961-8.03-7.077-8.035-16.404-.769-8.131 6.334-16.684 23.927-16.726 43.369-1.016 30.346 17.134 63.52 17.134 63.52-4.323-1.894-7.32-12.722-4.323-1.894-2.997-10.828-31.323-55.993-12.518-100.879.713-1.701-.164-2.26-4.479-2.856-7.422-1.023-21.029-8.393-25.179-13.637l-7.124-9.006c-2.021-2.556-6.257-6.203-9.414-8.105-5.189-3.126-5.853-3.248-6.929-1.271-.794 1.46-2.855 2.186-6.204 2.186-4.26 0-5.307.582-6.963 3.875-1.072 2.13-2.906 4.425-4.075 5.098-2.81 1.617-4.052 11.131-4.169 31.94-.116 20.64 3.35 42.664 9.578 60.862 2.475 7.232 6.857 24.653 9.53 40.963 2.67 16.303 7.421 35.933 8.805 38.721 4.12 8.303 9.485 25.92 9.485 25.92s-1.694-1.11-4.329-.282zM221.57 321.64c.484-31.99.666-33.978 5.128-56.149 2.544-12.642 6.693-31.85 9.22-42.686 3.273-14.034 5.494-28.581 7.721-50.568 1.72-16.976 8.92-43.255 11.376-59.984 4.108-27.992 4.355-33.288 3.103-43.976-1.57-13.395-5.93-18.878-14.855-22.005-11.962-4.19-17.61 5.64-20.264 31.772-.956 9.425-1.573 17.308-1.369 17.517.204.21 2.878-.507 5.942-1.592 5.868-2.078 15.283.345 21.423 3.57 4.33 2.276 3.193 2.724-.843 4.614-2.219 1.04-4.834-.894-7.644-1.9-3.435-1.232-6.92.305-10.312 3.239-2.602 2.25-4.803 3.114-6.72 2.635-2.435-.608-3.3.286-5.906 6.102-1.68 3.748-5.256 1.346-7.177 8.93-1.921 7.586-3.181 14.668-3.784 17.748-4.654 23.768-9.745 33.972-7.825 58.444.952 12.127 2.447 20.293 2.447 20.293 5.53-.19-.336 5.934-6.298 5.781-3.056-.078-4.202-1.028-7.945-.525-4.408.593-8.551.323-11.76-.766-4.279-1.452-5.39-1.386-8.16.48-6.874 4.63-8.015.843-1.904-6.312l3.949-4.624-1.627-21.574c-1.518-20.132-.92-20.65-1.828-43.845-1.036-26.437-1.723-31.874-3.553-45.26-.992-7.256-3.365-12.138-4.508-31.21-1.372-22.893-3.023-31.103-8.412-41.815-1.82-3.62-2.752-4.154-7.23-4.154-8.161 0-17.243 5.765-21.106 13.397-2.483 4.905-2.247 12.972.822 28.16 1.439 7.122 2.084 24.886 2.976 37.89 1.372 19.994 1.095 23.924 1.384 29.428.553 10.557.711 11.877 1.053 35.36.438 30.072-.013 38.428 2.298 46.86l4.195 15.314 6.101 3.178c9.78 5.095 15.634 12.474 22.24 28.032 8.515 20.054 12.062 25.328 26.695 39.69 12.165 11.94 13.604 13.908 20.255 27.682 3.938 8.156 7.854 17.341 8.702 20.411s1.982 5.582 2.52 5.582 1.204-14.924 1.48-33.164M127.242 86.9c-3.365-9.013 16.872-18.106 26.959-11.312 2.814 1.896 3.09 2.582 1.725 4.274-1.247 1.545-3.069 1.819-7.804 1.173-5.083-.693-9.288-3.61-12.014-1.406-3.868 3.127-7.86 9.967-8.866 7.272M109.208 346.05c6.425-3.381 8.807-9.045 8.162-19.409-.458-7.376-1.102-9.566-3.366-11.45-4.123-3.432-14.488-3.875-16.87-1.427-1.713 1.762.584 7.882 1.618 11.49 0 0-.066 3.602-.608 6.399l2.17 12.22-5.004-2.389c-5.885-2.809-11.152-25.16-10.089-30.137.96-4.489 3.227-6.515 8.607-7.694l4.144-.908-5.11-2.717c-2.81-1.495-10.175-4.553-16.365-6.796-12.087-4.38-20.184-9.347-28.41-17.428l-5.17-5.078-3.983 4.279c-3.275 3.519-4.343 6.28-6.01 15.545-2.53 14.071-2.623 13.201 1.251 11.686 4.642-1.814 4.855-1.734 7.449 2.78 1.59 2.766 4.921 5.254 10.456 7.807 6.925 3.195 8.931 4.952 13.593 11.915 14.496 21.647 29.21 28.85 43.535 21.312m-74.02-26.732c.602-.575-.117-1.711-1.597-2.526-1.815-.998-2.742-2.858-2.844-5.704l-.151-4.222-.975 3.94c-.537 2.167-1.044 5.606-1.127 7.641-.133 3.251.198 3.592 2.724 2.808 1.58-.491 3.367-1.363 3.97-1.937m51.088-76.169c2.164-3.941 8.248-11.695 2.094-14.42-4.333-1.92 1.82-7.314-7.346-10.288-12.986-4.213-22.863.436-29.317 6.652-4.93 4.747 2.044 14.287 15.29 20.815 6.835 3.368 10.731 3.644 10.731 3.644s6.384-2.461 8.548-6.403m13.613-39.842c0-11.594-1.209-14.279-6.304-41.685-3.75-20.17-2.031-27.678-7.605-45.708-3.288-10.635-9.042-22.958-9.042-22.958-1.111-.039-4.711-1.77-8.723-2.138-4.011-.367-7.293-1.259-7.293-1.981s2.875-2.303 6.388-3.513c7.073-2.435 7.227-3.019 3.26-12.343-2.88-6.768-9.821-10.65-15.858-8.87-8.02 2.364-14.208 16.065-14.208 35.654 0 12.964 2.128 20.24 5.302 38.492 2.204 12.673 4.17 15.726 7.566 26.674 5.042 16.257 3.078 8.296 8.363 22.406l7.382 19.708 6.915.917c3.803.504 10.295 2.373 14.428 4.154 4.132 1.78 7.944 3.29 8.47 3.352.528.063.959-5.41.959-12.16" style="fill:#000"/></svg>