<svg xmlns="http://www.w3.org/2000/svg" width="362.125" height="521.563" viewBox="0 0 362.125 521.563"><path d="M176.157 509.506c-4.745-.676-6.526-5.487-8.503-22.98-2.49-22.027-7.697-49.5-10.07-53.12-1.047-1.598-5.941-5.573-10.877-8.834-16.783-11.088-34.821-37.602-47.124-69.267l-4.21-10.838-26.374-17.139c-27.43-17.825-27.31-17.716-37.71-34.227-2.11-3.35-4.57-9.38-5.466-13.4s-4.372-15.72-7.726-26.001S12 233.968 12 232.7c0-4.254 3.938-10.251 11.692-17.807 4.233-4.125 10.506-11.114 13.94-15.53 5.173-6.654 7.957-8.905 16.243-13.128 5.5-2.803 13.938-6.627 18.75-8.498l23.7-9.207c8.224-3.194 18.067-7.42 21.876-9.39 3.808-1.972 16.205-6.155 27.549-9.296 19.672-5.448 47.569-13.61 60.313-17.646 7.021-2.224 7.348-3.76 3.355-15.782-2.509-7.553-9.668-20.898-11.212-20.898-.42 0-5.505 1.48-11.298 3.287-14.273 4.455-40.606 5.621-47.383 2.099-5.892-3.062-9.56-8.968-10.565-17.012-.781-6.256-.485-7.35 4.501-16.593 2.936-5.443 8.636-14.68 12.667-20.526 4.03-5.846 9.11-13.3 11.288-16.563 5.07-7.597 11.469-10.136 32.3-12.816 8.475-1.09 18.57-2.856 22.434-3.923 10.094-2.789 19.438-1.712 35.475 4.089 13.076 4.73 14.026 5.317 19.375 11.977 3.174 3.953 6.893 10.574 8.534 15.199 1.6 4.507 5.013 11.449 7.583 15.426s7.552 15.106 11.07 24.731c12.502 34.203 29.433 80.22 34.954 95 3.082 8.25 6.467 17.813 7.523 21.25s4.516 13.563 7.69 22.5l5.771 16.25-.055 23.125c-.058 24.524-1.554 35.54-10.526 77.5-1.984 9.282-5.069 25.963-6.854 37.07l-3.247 20.194 8.034 23.833c11.664 34.602 13.45 47.653 6.526 47.653-2.056 0-3.36-1.041-4.304-3.437-6.726-17.072-20.199-53.167-20.199-54.115 0-.659-1.185-1.198-2.634-1.198-1.814 0-2.412-.577-1.922-1.853 2.69-7.012 16.27-78.779 22.017-116.351l3.644-23.83-2.919-18.045c-4.979-30.787-25.839-95.825-35.12-109.503-4.152-6.116-10.918-26.27-16.926-50.418l-5.444-21.875-11.74-17.5c-6.456-9.625-12.797-18.43-14.09-19.568-4.455-3.923-27.202-8.858-36.947-8.016-1.95.168-10.013.98-17.919 1.803-7.906.824-17.353 1.802-20.992 2.174l-6.618.676-7.757 10.614c-9.481 12.972-9.691 13.484-5.17 12.62 2.833-.542 4.36.145 7.662 3.448 4.393 4.392 5.014 7.305 2.66 12.471-2.102 4.615-7.82 7.697-20.524 11.06-10.153 2.689-11.17 3.235-11.524 6.197-.36 3.004.24 3.443 7.944 5.823 11.38 3.515 20.294 3.236 37.672-1.181l14.772-3.754 8.92-9.197c4.905-5.057 11.514-13.065 14.687-17.794 5.87-8.752 7.71-9.167 3.376-.763-1.316 2.55-5.787 9.377-9.937 15.17-4.15 5.794-7.3 10.931-7 11.417 1.12 1.812 13.924 2.487 20.588 1.084 11.075-2.331 19.779-7.15 28.295-15.667 8.909-8.908 11.637-8.527 4.878.681-10.793 14.703-28.9 25.077-43.768 25.077-4.321 0-5.664.467-5.664 1.97 0 1.082 3.396 10.137 7.548 20.122 4.151 9.984 8.335 21.176 9.297 24.87 1.734 6.658 7.418 14.029 12.245 15.881 1.188.456 2.16 1.409 2.16 2.118 0 1.887-7.618 1.49-11.25-.586-3.993-2.282-4.42-2.277-6.786.09-1.603 1.603-1.964 1.639-1.964.193 0-2.589-4.813-6.595-6.226-5.182-.642.642-2.828 9.038-4.859 18.658-2.03 9.62-5.194 24.497-7.029 33.06-3.172 14.8-3.227 15.648-1.122 17.187 3.98 2.91 6.864 1.735 15.609-6.362 8.194-7.586 16.788-13.024 18.259-11.554.373.373-2.749 4.247-6.937 8.61-4.189 4.361-8.534 10.128-9.656 12.814-1.983 4.745-1.962 4.948.723 7.123 4.94 4 9.173 2.752 30.664-9.04 11.305-6.202 25.146-12.97 30.758-15.04 11.613-4.281 30.812-8.853 31.63-7.531.3.485-8.564 4.75-19.697 9.475-30.145 12.796-44.332 20.18-55.175 28.718-2.993 2.357-2.865 2.485 10.845 10.863 12.326 7.532 52.213 34.837 52.213 35.743 0 .98-3.869-.438-14.063-5.154-5.328-2.466-9.687-4.248-9.687-3.962s6.557 4.913 14.572 10.28c13.183 8.831 14.859 10.384 17.578 16.293 1.919 4.171 2.864 8.217 2.615 11.199l-.39 4.667-8.651-10.574c-11.256-13.756-22.797-25.68-27.988-28.917-2.359-1.47-3.867-3.288-3.507-4.226.64-1.668-4.406-4.896-22.822-14.6-5.07-2.671-12.173-7.04-15.783-9.707-19.518-14.418-31.233-20.019-41.784-19.975-5.607.023-5.827.18-11.653 8.313-5.91 8.252-7.803 15.363-4.613 17.334.728.45 4.384-2.393 8.125-6.317S192 245.6 192 246.044c0 2.696-7.12 14.072-11.42 18.244-5.36 5.202-7.815 11.835-6.47 17.48 1.175 4.933 4.818 11.569 13.989 25.484 4.685 7.108 9.168 15.391 9.962 18.407 1.272 4.833 2.816 6.543 13.004 14.403 14.5 11.187 25.291 17.724 30.935 18.74 2.406.433 5.202 1.228 6.213 1.768 3.477 1.856-6.732 2.69-14.865 1.216-4.322-.784-8.125-1.157-8.453-.83s.407 2.124 1.631 3.993l2.226 3.397-3.063-.956c-3.184-.993-10.868-6.598-13.663-9.965-1.29-1.555-1.973-1.634-3.46-.4-1.887 1.566-3.356.355-8.557-7.056-.936-1.334-1.878-2.178-2.093-1.875s-2.563 4.206-5.217 8.674c-6.1 10.275-8.911 13.397-14.762 16.397-2.697 1.384-4.682 3.322-4.676 4.566.006 1.19 1.89 7.611 4.186 14.271 4.652 13.493 11.713 26.203 19.41 34.938l5.108 5.797-6.91-2.138c-6.334-1.96-7.383-2.844-12.602-10.624-3.132-4.668-7.329-11.94-9.327-16.16l-3.634-7.672.755 8.683.755 8.683-3.09-3.683c-3.727-4.444-4.825-8.927-5.796-23.67-.72-10.911-.848-11.29-4.42-12.997-2.024-.968-7.542-2.035-12.263-2.373l-8.582-.614-5.863-6.946c-10.083-11.946-14.798-16.11-18.929-16.716-2.155-.316-4.14-.218-4.409.217-.269.436 7.8 15.389 17.932 33.23l18.421 32.436 10.819 7.198c9.707 6.459 10.9 7.679 11.613 11.875.436 2.573 2.94 15.646 5.563 29.052 8.675 44.34 9.13 49.696 4.16 48.988M170.2 361.214c2.4-1.785 2.398-1.857-.074-6.462-1.375-2.56-3.987-5.751-5.804-7.09-3.194-2.351-3.522-2.361-9.777-.283-3.56 1.182-6.776 2.94-7.147 3.907-1.052 2.743 5.379 10.244 9.29 10.837 7.238 1.096 11.17.832 13.512-.91m16.952-9.87c1.42-2.711 2.822-8.485 3.224-13.28.69-8.22.507-8.937-5.945-23.326-7.647-17.057-13.703-24.37-22.04-26.615l-5.192-1.398 4.256-6.324c6.629-9.85 8.323-16.928 8.952-37.383.451-14.712.1-20.301-1.87-29.683-1.896-9.034-2.092-11.836-.899-12.827 1.14-.946 2.894 1.584 6.925 9.997 4.563 9.522 5.858 11.263 8.375 11.263 4.607 0 7.465-2.078 10.778-7.835 4.188-7.28 12.814-34.536 15.126-47.796 1.896-10.872 2.59-26.869 1.165-26.869-2.711 0-77.868 25.462-77.399 26.222.323.522 2.848 1.311 5.611 1.753 8.515 1.362 16.513 10.88 9.02 10.735-1.162-.023-5.207-1.13-8.988-2.46-9.132-3.212-25.124-3.37-31.25-.31l-4.375 2.185-.705 18.125c-.659 16.942.185 52.178 2.027 84.666.763 13.44.992 14.339 5.362 21.044l4.566 7.005 9.375-.714c5.156-.393 11.484-1.077 14.063-1.521 5.487-.944 5.928.316 1.706 4.871-2.078 2.243-5.295 3.672-10.625 4.72-4.204.828-7.644 1.737-7.644 2.02 0 .876 10.18 14.591 13.477 18.159l3.12 3.374 4.777-2.437c12.023-6.134 19.921-1.622 31.316 17.889l5.185 8.877 3.006-3.664c1.653-2.015 4.137-5.823 5.52-8.462M142 359.85c0-1.42-4.337-7.559-6.794-9.615-2.62-2.192-6.96-2.99-6.951-1.278.011 2.327 5.283 9.258 7.815 10.276 3.241 1.303 5.93 1.583 5.93.617m7.348-16.71c2.426-1.537.589-3.87-3.047-3.87-2.218 0-3.051.682-3.051 2.5 0 2.646 3.014 3.323 6.098 1.37m-26.098-6.808c0-4.623-14.352-19.563-18.793-19.563-1.352 0-3.642 1.186-5.09 2.634-3.292 3.292-2.88 3.736 11.383 12.261 11.46 6.85 12.5 7.238 12.5 4.668m-40-14.563c-3.568-3.124-6.882-4.939-9.062-4.962-1.891-.02-3.438.437-3.438 1.017 0 .918 15.83 8.966 17.5 8.897.344-.015-1.906-2.243-5-4.952m-16.164-12.5c.623 0-.347-3.234-2.154-7.187-7.279-15.916-12.965-33.512-19.21-59.44-7.684-31.895-7.19-31.43-19.132-18.014l-7.552 8.484 8.622 21.516c14.227 35.504 17.956 43.736 21.543 47.56 3.894 4.15 12.6 8.584 15.087 7.684.915-.332 2.174-.603 2.796-.603m32.857-4.687c-3.775-11.573-6.704-43.42-7.697-83.692-.53-21.452-1.355-39.397-1.836-39.877-.926-.927-31.44 11.7-38.18 15.799-3.797 2.31-3.979 2.78-3.957 10.251.05 17.014 5.65 45.493 13.953 70.956 6.915 21.205 12.407 29.29 20.852 30.697 2.5.417 5.11.949 5.797 1.182.688.233 3.895.468 7.128.523l5.877.098zM159.108 71c5.395-4.029 6.294-6.258 4.102-10.18-1.524-2.728-2.957-3.503-7.026-3.803-4.98-.367-5.257-.174-10.764 7.5-3.11 4.332-5.36 8.36-5.002 8.953 1.208 1.996 15.18.15 18.69-2.47m115.97 284.442c-.451-.73 2.606-5.09 6.793-9.688s9.671-11.604 12.186-15.567c2.514-3.964 4.787-6.991 5.05-6.729.263.263-.134 3.225-.882 6.582-3.02 13.557-19.376 31.505-23.147 25.402" style="fill:#000"/></svg>