<svg xmlns="http://www.w3.org/2000/svg" width="516.979" height="431.842" viewBox="0 0 516.979 431.842"><path d="M164.225 389.116c-8.744-15.64-11.948-40.354-17.844-50.323-13.438-22.718-30.955-57.214-33.603-66.172-3.031-10.255-3.805-15.053-11.39-45.93-5.205-21.188-9.282-42.076-22.47-61.87-8.242-12.37-16.036-26.79-29.682-43.52 0 0-7.976-11.144-14.67-25.056-8.023-16.68-3.869-6.15-13.879-22.121-8.308-13.256-8.806-26.088-8.67-38.637.143-13.256 10.515-20.261 15.774-22.459 3.886-1.623 5.051-1.493 14.462 1.617 5.63 1.86 11.998 4.93 14.152 6.821S66.13 30.12 70.577 37.36c4.897 7.972 7.339 10.849 14.055 16.967 4.314 9.658 6.886 8.821 12.152 14.612 10.41 11.447 8.339 13.82 16.67 22.035l10.195 10.055 9.332-10.776c4.996-5.77 24.341-12.709 27.812-12.709 1.802 0 6.218.874 9.812 1.94 7.902 2.347 10.528 1.667 13.774-3.567 1.364-2.199 4.345-5.778 6.625-7.955 5.007-4.78 29.855-17.918 33.888-17.918 1.583 0 5.367 1.573 8.407 3.494l5.528 3.495 11.472-7.21c15.698-9.867 27.753-15.993 32.975-16.758 6.9-1.01 14.431 2.306 26.096 17.389 20.755 26.835 14.045 16.879 18.771 25.102 7.835 13.633 11.236 24.366 19.732 51.132 1.014 3.195 2.136 5.427 4.576 6.875 4.208 2.497 3.622 3.089 13.69-13.843 12.068-20.297 22.678-33.968 39.635-51.07 24.564-24.772 36.917-31.91 57.541-33.249 18.55-1.203 31.138 4.708 37.344 17.535 2.925 6.046 5.476 25.347 3.771 28.533-.652 1.218-6.847 4.015-14.657 6.617-11.463 3.82-14.3 5.315-18.595 9.795-15.128 15.785-35.799 58.1-43.495 89.038-2.396 9.631-3.949 12.879-10.792 22.567-4.396 6.225-11.02 17.756-14.719 25.625-23.787 50.596-22.372 48.265-41.17 67.823-32.577 33.895-31.496 31.588-32.219 68.769-.51 26.28 12.488 46.006 10 48.08-1.443 1.203-16.808-15.989-16.808-15.989-3.905 1.587-2.32 5.54-3.905 1.587-2.555-6.367-2.88-18.03-2.857-34.087.053-35.058 3.47-42.182 38.087-79.375 18.23-19.588 21.8-24.715 26.78-38.474 5.55-15.332 9.732-23.56 19.515-38.4 14.995-22.747 13.894-20.222 24.394-55.938 1.769-6.016 8.47-21.69 14.892-34.833 13.465-27.554 16.33-31.043 37.345-45.478 13.93-9.569 15.294-11.569 13.162-19.29-1.53-5.544-6.94-10.284-13.831-12.121-11.027-2.94-28.792 2.463-43.435 13.212-7.845 5.76-26.954 25.729-34.158 35.697-3.23 4.469-10.738 14.875-16.687 23.125-17.495 24.265-30.615 40.726-38.628 48.466-6.84 6.607-19.95 14.66-23.866 14.66-.875 0-1.933 1.078-2.352 2.396-1.637 5.16-6.461 9.166-25.989 21.583-39.192 24.92-51.25 41.169-51.315 69.145-.023 9.965.53 13.932 2.725 19.559 3.675 9.416 11.206 17.8 18.488 20.58 5.19 1.983 7.107 2.054 19.04.703 15.413-.037 28.158 5.136 17.644 6.693-13.39.857-29.71 7.297-41.814 3.006-20.16-7.543-31.806-34.73-26.483-61.825 1.173-5.97 4.06-15.708 6.416-21.642l4.284-10.788-3.39-3.57c-1.863-1.963-4.952-4.693-6.863-6.067l-3.475-2.497-5.122 4.627c-11.035 9.97-24.98 12.31-37.954 6.37-7.868-3.602-10.295-6.92-15.651-21.399-4.45-12.03-7.567-12.234-18.626-34.366-11.06-22.13-14.555-18.911-26.06-51.445-3.493-9.878-9.588-17.631-18.23-24.713-6.14-5.03-22.572-30.267-27.849-26.379-.634.468-4.996 1.863-9.808 2.961-4.813 1.098-10.12 2.386-11.795 2.863l-3.045.867 2.947-4.138c1.62-2.276 5.363-5.603 8.318-7.394 2.954-1.79 10.424-6.299 10.424-6.299S67.372 50.484 58.431 36.95c-5.853-8.858-17.329-10.792-25.74-10.355-5.46.284-6.54.818-8.968 4.43-3.495 5.201-.508 13.637 1.414 22.133 2.274 10.045 5.866 15.38 18.154 40.019 9.512 19.073 9.31 14.393 20.324 26.238 12.079 12.99 12.657 21.51 20.62 33.109 7.507 10.936 9.176 11.292 12.235 21.277 4.24 13.839 9.94 19.735 12.374 36.458 2.435 16.726 11.734 33.535 13.05 40.412 5.316 27.773 20.29 64.602 31.394 77.216 4.434 5.038 6.565 6.296 15.379 9.081 12.437 3.93 17.964 4.218 27.703 1.443 7.51-2.14 19.404-1.807 19.404.543 0 .6-.423 1.09-.94 1.09-.518 0-5.72 2.812-11.56 6.25-12 7.062-14.739 7.453-30.74 4.391-5.342-1.022-9.916-1.653-10.167-1.402-1.114 1.114 18.542 46.916 25.57 54.806 4.296 4.825 3.425 10.95 3.425 10.95-5.739 4.433-17.352 5.184-21.76 3.768 0 0 5.094-10.963-5.377-29.69m43.938-168.546c2.107-1.773 5.037-4.918 6.51-6.988l2.681-3.764 1.284-4.101c-6.06-2.463-.344-3.906-10.964-8.985l-5.753-3.977c-2.77-1.916-14.337 2.811-14.337 2.811s-4.468 6.132-3.185 10.372c1.284 4.24-1.74 7.395-2.123 7.778s7.617 2.577 5.521 2.577c-3.525 0-3.657.153-1.766 2.043 6.947 4.163 15.862 7.418 22.132 2.234m47.707-4.18c4.844-4.845 4.645-8.642-.892-16.98-3.956-5.96-5.417-7.121-11.28-8.97-5.943-1.873-6.952-1.905-8.583-.274-1.63 1.63-8.42 6.786-6.562 11.518 3.147 14.344-3.817-3.116 4.408 8.812 6.923 9.994 16.376 12.426 22.909 5.893m-72.596-2.358c0-.556-.853-2.103-1.896-3.437-1.757-2.25-1.788-2.177-.424 1.01 1.472 3.44 2.32 4.327 2.32 2.427m-2.547-20.816c6.286-6.485 11.088-8.37 18.026-7.074 3.174.593 5.77.62 5.77.06s-1.253 2.507-5.65-12.028c-5.878-19.435-11.304-30.613-6.355-24.65 6.821 8.22-13.432-2.87-17.986-2.234-2.506.35-8.647 5.052-12.33 6.063s-6.902 1.633-7.153 1.382c-1.33-1.33 7.926-9.973 13.711-12.804l13.58-2.017 2.156-20.607c2.323-22.207-2.266-25.31-8.868-28.725-5.385-2.785-13.29-.955-26.995 5.636-14.988 7.208-23.522 4.586-17.004 23.04 5.735 16.237 12.29 28.566 26.091 56.687 5.952 12.126 15.83 24.133 16.54 25.68 1.693 3.686 1.52-3.305 6.467-8.409m111.122-.72c3.877-2.088 8.922-5.495 11.21-7.57 4.78-4.335 4.78-4.372-.528-27.181-3.622-15.567-3.684-18.365-.656-29.602 4.227-15.683 4.219-15.6 1.534-15.6-1.327 0-5.954 1.102-10.283 2.45-4.328 1.347-8.139 2.18-8.467 1.852-1.472-1.472 9.973-11.212 16.96-14.433 14.494-14.096 18.999 17.55 13.53 31.381-3.887 9.234-3.885 9.49.173 22.788l3.33 10.912 6.357-3.412c3.496-1.877 9.939-6.977 14.316-11.333l7.96-7.92-1.308 10.459c-.84 6.716-10.329-17.946-13.323-32.72-3.041-15.007-3.53-14.835-8.523-34.16-1.698-6.57-13.994-18.941-19.858-26.518-13.29-17.17-18.526-16.103-24.365-15.008-10.043 1.884-25.557 13.12-31.045 22.486l-3.21 5.475 3.073 24.796c3.008 24.275 3.184 25.002 8.363 34.603l5.29 9.808-.16 17.518c-.087 9.635.465 19.991 1.226 23.014 3.033 12.046 14.699 15.297 28.404 7.915m-29.278-4.652c-3.972-4.389 4.82-18.702 11.958-19.736 9.914-1.437 15.105.379 24.194 12.81 3.418 4.676 2.68 4.985-1.637 7.218-5.163 2.67-8.873 3.048-9.072-1.53-.642-14.782-18.993-11.512-21.459-2.724-1.572 5.603 2.614 9.478-.754 5.757zm-40.547-1.412c0-1.987 1.075-4.94 2.389-6.563 1.97-2.434 3.557-2.95 9.062-2.95 3.67 0 8.416.447 10.545.994l3.872.995.85-15.032c.824-14.593.752-15.225-2.46-21.62-1.82-3.623-3.493-6.792-3.717-7.042s-.487-4.257-5.408-2.762-15.716 10.669-16.09 10.295c-.793-.794 11.473-13.8 15.788-16.536l2.956-1.874-2.096-21.489c-2.735-28.027-3.682-31.359-10.025-35.28-2.248-1.388-5.708-2.52-7.689-2.513-5.81.02-15.87 5.47-21.005 11.38-8.38 9.644-2.487 15.073-2.536 42.994-.024 13.75 4.181 25.012 4.748 29.622 1.028 8.353 6.08 14.058 9.712 24.336 2.38 6.734 2.004 5.419 4.568 9.399s5.083 7.24 5.598 7.246c.516.006.938-1.614.938-3.6" style="fill:#000"/></svg>